<svg width="160" height="160" viewBox="0 0 160 160" fill="none" xmlns="http://www.w3.org/2000/svg">
<mask id="mask0_495_8032" style="mask-type:alpha" maskUnits="userSpaceOnUse" x="0" y="0" width="160" height="160">
<path d="M160 18C160 8.05887 151.941 0 142 0H47.4558C42.6819 0 38.1036 1.89642 34.7279 5.27208L5.27207 34.7279C1.89642 38.1036 0 42.6819 0 47.4558V142C0 151.941 8.05888 160 18 160H112.544C117.318 160 121.896 158.104 125.272 154.728L154.728 125.272C158.104 121.896 160 117.318 160 112.544V18Z" fill="black"/>
</mask>
<g mask="url(#mask0_495_8032)">
<path d="M0 18C0 8.05888 8.05887 0 18 0H142C151.941 0 160 8.05887 160 18V142C160 151.941 151.941 160 142 160H18C8.05888 160 0 151.941 0 142V18Z" fill="black"/>
</g>
</svg>
