<svg xmlns="http://www.w3.org/2000/svg" width="145" height="48" viewBox="0 0 145 48" fill="none"><g clip-path="url(#clip0_307_63)"><path d="M9.1782 16.4646C9.85706 16.4646 10.4635 16.1388 10.8527 15.6409L11.1424 15.1521L17.931 3.39427L18.1935 2.94169C18.3021 2.68825 18.3564 2.41671 18.3564 2.12706C18.3564 0.95942 17.406 0.0180664 16.2474 0.0180664H1.90081C0.832736 0.108581 0 1.01373 0 2.09991C0 2.46197 0.0905148 2.80592 0.253441 3.10462L7.28644 15.297L7.42221 15.5323C7.42221 15.5323 7.42221 15.5323 7.43127 15.5414C7.81143 16.0935 8.45408 16.4646 9.1782 16.4646Z" fill="#162339"></path><path d="M41.8725 0H28.1052C27.4716 0.0633604 26.9194 0.407317 26.5755 0.9142C26.5755 0.9142 26.5755 0.923251 26.5664 0.923251L26.4306 1.15859L12.781 24.8101L8.05613 32.9926L7.92941 33.2099C7.78459 33.4995 7.70312 33.8254 7.70312 34.1693C7.70312 34.459 7.75743 34.7396 7.86605 34.993C7.86605 35.0021 7.8751 35.0111 7.8751 35.0111L8.11044 35.4184L14.709 46.8414L14.8085 47.0043C14.8176 47.0224 14.8266 47.0405 14.8357 47.0587C15.2159 47.6198 15.8585 47.991 16.5917 47.991C17.2977 47.991 17.9313 47.6379 18.3115 47.1039L18.5106 46.7509L21.9864 40.7407L43.5017 3.45767C43.5017 3.45767 43.5108 3.44861 43.5108 3.43956L43.8366 2.87837C43.9362 2.64303 43.9905 2.38054 43.9905 2.10899C43.9815 0.950405 43.0401 0 41.8725 0Z" fill="#162339"></path><path d="M55.9472 10.111L49.9913 0.244873H54.0011L57.7847 6.62617L61.541 0.244873H65.5056L59.5044 10.2015V16.4018H55.9472V10.111Z" fill="#162339"></path><path d="M66.7003 5.04219C67.0624 4.00127 67.5874 3.09612 68.2753 2.3177C68.9632 1.53927 69.7959 0.932821 70.7916 0.507401C71.7782 0.0729302 72.8825 -0.135254 74.1044 -0.135254C75.3264 -0.135254 76.4307 0.0819817 77.4173 0.507401C78.4039 0.941872 79.2457 1.53927 79.9426 2.3177C80.6396 3.09612 81.1646 4.00127 81.5176 5.04219C81.8706 6.08311 82.0516 7.19645 82.0516 8.39124C82.0516 9.54983 81.8706 10.6451 81.5176 11.6588C81.1646 12.6816 80.6396 13.5687 79.9426 14.3381C79.2457 15.1074 78.4039 15.7048 77.4173 16.1393C76.4307 16.5738 75.3264 16.782 74.1044 16.782C72.8825 16.782 71.7782 16.5647 70.7916 16.1393C69.805 15.7048 68.9632 15.1165 68.2753 14.3471C67.5874 13.5868 67.0624 12.6907 66.7003 11.6679C66.3383 10.6451 66.1572 9.54983 66.1572 8.38219C66.1572 7.19645 66.3383 6.08311 66.7003 5.04219ZM69.9588 10.4188C70.1218 11.0614 70.3843 11.6407 70.7373 12.1476C71.0903 12.6635 71.5519 13.0618 72.104 13.3605C72.6652 13.6592 73.326 13.804 74.0954 13.804C74.8647 13.804 75.5346 13.6502 76.0958 13.3515C76.666 13.0528 77.1186 12.6454 77.4625 12.1386C77.8065 11.6317 78.069 11.0614 78.2319 10.4188C78.3948 9.77612 78.4853 9.10631 78.4853 8.39124C78.4853 7.64902 78.4039 6.95206 78.2319 6.28225C78.069 5.62149 77.8065 5.03314 77.4625 4.51721C77.1186 4.00127 76.6569 3.59396 76.0958 3.29526C75.5255 2.99656 74.8647 2.84268 74.0954 2.84268C73.326 2.84268 72.6562 2.99656 72.095 3.29526C71.5248 3.59396 71.0722 4.00127 70.7282 4.51721C70.3843 5.03314 70.1218 5.62149 69.9588 6.28225C69.7959 6.943 69.7054 7.64902 69.7054 8.39124C69.7054 9.09726 69.7869 9.77612 69.9588 10.4188Z" fill="#162339"></path><path d="M98.1901 10.292C98.1901 12.4372 97.5927 14.0575 96.3888 15.1436C95.185 16.2389 93.4833 16.7819 91.2838 16.7819C89.0843 16.7819 87.3826 16.2389 86.1878 15.1527C84.993 14.0665 84.3956 12.4463 84.3956 10.283V0.23584H87.9529V10.283C87.9529 10.7808 87.9981 11.2334 88.0796 11.6407C88.161 12.048 88.324 12.4101 88.5684 12.7359C88.8128 13.0618 89.1567 13.3152 89.6002 13.5053C90.0438 13.6954 90.6049 13.7859 91.2838 13.7859C92.5239 13.7859 93.3928 13.5144 93.8906 12.9622C94.3885 12.4101 94.6419 11.514 94.6419 10.283V0.23584H98.1991V10.292H98.1901Z" fill="#162339"></path><path d="M104.816 3.23186H99.9736V0.244873H113.216V3.23186H108.373V16.4108H104.816V3.23186Z" fill="#162339"></path><path d="M115.072 0.244873H118.629V6.44514H125.173V0.244873H128.73V16.4108H125.173V9.44118H118.629V16.4108H115.072V0.244873Z" fill="#162339"></path><path d="M134.27 11.0433C134.27 12.0571 134.605 12.8084 135.274 13.2972C135.944 13.7859 136.804 14.0303 137.845 14.0303C138.189 14.0303 138.542 14.0032 138.895 13.9398C139.248 13.8765 139.592 13.7769 139.918 13.623C140.244 13.4691 140.506 13.261 140.696 12.9985C140.895 12.736 140.995 12.4101 140.995 12.0119C140.995 11.6498 140.895 11.342 140.696 11.0977C140.497 10.8442 140.235 10.636 139.9 10.464C139.565 10.2921 139.203 10.1472 138.813 10.0205C138.424 9.90286 137.89 9.76708 137.229 9.61321C136.795 9.49554 136.442 9.40502 136.189 9.34166C135.483 9.14253 134.849 8.9434 134.306 8.72616C133.763 8.51798 133.265 8.23738 132.821 7.90248C132.378 7.55852 132.025 7.1331 131.753 6.60812C131.491 6.08313 131.355 5.46763 131.355 4.74351C131.355 3.94698 131.527 3.23192 131.862 2.61641C132.206 2.00091 132.658 1.48498 133.247 1.07766C133.826 0.670346 134.478 0.362596 135.193 0.163463C135.908 -0.0447207 136.641 -0.144287 137.401 -0.144287C138.279 -0.144287 139.103 -0.0447209 139.882 0.154412C140.66 0.353544 141.348 0.661295 141.945 1.08671C142.543 1.51213 143.013 2.05522 143.357 2.71598C143.701 3.37674 143.882 4.16422 143.882 5.06937H140.443C140.397 4.16422 140.09 3.53061 139.529 3.16855C138.958 2.8065 138.207 2.62547 137.257 2.62547C136.596 2.62547 136.017 2.77934 135.537 3.07804C135.057 3.37674 134.813 3.83836 134.813 4.46292C134.813 4.77972 134.876 5.03316 134.994 5.22324C135.111 5.41332 135.329 5.57625 135.627 5.72107C135.926 5.8659 136.333 6.01072 136.831 6.16459C137.329 6.31847 138.144 6.53571 139.275 6.82535C139.32 6.82535 139.438 6.85251 139.637 6.91587C139.682 6.93397 139.728 6.94302 139.773 6.94302C140.316 7.07879 140.814 7.23267 141.266 7.3956C141.719 7.55852 142.199 7.81196 142.697 8.15592C143.194 8.49988 143.611 8.95245 143.946 9.5408C144.281 10.1201 144.444 10.8171 144.444 11.6317C144.444 13.1704 143.855 14.4195 142.678 15.379C141.502 16.3385 139.845 16.8182 137.718 16.8182C136.795 16.8182 135.926 16.7005 135.102 16.4742C134.279 16.2479 133.546 15.8949 132.903 15.4243C132.26 14.9445 131.753 14.3471 131.382 13.614C131.011 12.8808 130.83 12.03 130.83 11.0705H134.27V11.0433Z" fill="#162339"></path><path d="M51.7564 20.2849H58.726C60.9165 20.2849 62.6815 20.9638 64.0302 22.3305C65.3788 23.6973 66.0577 25.6796 66.0577 28.2774C66.0577 29.4722 65.9038 30.5583 65.6051 31.545C65.3064 32.5316 64.8448 33.4005 64.2203 34.1337C63.6048 34.8759 62.8354 35.4461 61.9121 35.8444C60.9889 36.2427 59.9299 36.4418 58.717 36.4418H51.7473V20.2849H51.7564ZM55.3136 33.4548H58.4816C59.0247 33.4548 59.5316 33.3643 60.0113 33.1923C60.491 33.0203 60.9165 32.7398 61.2876 32.3505C61.6677 31.9613 61.9664 31.4635 62.1837 30.8299C62.4009 30.2053 62.5095 29.4631 62.5095 28.6032C62.5095 26.8653 62.1565 25.5438 61.4414 24.6296C60.7354 23.7154 59.5316 23.2629 57.839 23.2629H55.3045V33.4548H55.3136Z" fill="#162339"></path><path d="M68.5288 20.2849H77.2454C77.9514 20.2849 78.6031 20.4026 79.1915 20.6289C79.7798 20.8552 80.2776 21.172 80.694 21.5883C81.1104 22.0047 81.4272 22.4754 81.6444 23.0185C81.8617 23.5525 81.9703 24.1318 81.9703 24.7473C81.9703 25.7249 81.7621 26.5666 81.3457 27.2455C80.9294 27.9334 80.2867 28.4493 79.4087 28.7933V28.8386C80.2052 29.0467 80.7845 29.4903 81.1375 30.1601C81.4905 30.8299 81.6987 31.6536 81.7621 32.613C81.7621 32.6764 81.7711 32.8574 81.7892 33.1561C81.8345 33.9255 81.8979 34.5863 81.9793 35.1293C82.0608 35.6724 82.2147 36.1069 82.441 36.4418H78.8837C78.7479 36.1431 78.6574 35.7901 78.6031 35.4009C78.5488 35.0117 78.5036 34.5048 78.4583 33.8802C78.413 33.31 78.3678 32.8665 78.3225 32.5678C78.2049 31.6898 77.9424 31.0652 77.5441 30.6851C77.1458 30.3049 76.5032 30.1148 75.6342 30.1148H72.077V36.4328H68.5198V20.2849H68.5288ZM72.0861 27.5985H75.9782C76.7928 27.5985 77.4083 27.4175 77.8156 27.0464C78.223 26.6753 78.4311 26.096 78.4311 25.2904C78.4311 24.521 78.223 23.9508 77.8156 23.5887C77.4083 23.2266 76.7928 23.0456 75.9782 23.0456H72.0861V27.5985Z" fill="#162339"></path><path d="M84.8761 20.2849H96.9689V23.2719H88.4333V26.7386H96.2629V29.4993H88.4333V33.4639H97.1499V36.4509H84.8761V20.2849Z" fill="#162339"></path><path d="M103.956 20.2849H107.604L113.65 36.4509H109.957L108.735 32.8484H102.689L101.422 36.4509H97.8193L103.956 20.2849ZM103.621 30.1963H107.812L105.776 24.2676H105.73L103.621 30.1963Z" fill="#162339"></path><path d="M115.053 20.2849H120.059L123.842 31.4001H123.887L127.463 20.2849H132.468V36.4509H129.137V24.9917H129.092L125.127 36.4509H122.385L118.42 25.1094H118.375V36.4509H115.044V20.2849H115.053Z" fill="#162339"></path><path d="M137.411 24.5935C136.243 24.5935 135.302 23.6431 135.302 22.4845C135.302 21.3259 136.252 20.3755 137.411 20.3755C138.579 20.3755 139.52 21.3259 139.52 22.4845C139.52 23.6431 138.579 24.5935 137.411 24.5935ZM137.411 20.8009C136.488 20.8009 135.736 21.5522 135.736 22.4754C135.736 23.3987 136.488 24.15 137.411 24.15C138.334 24.15 139.085 23.3987 139.085 22.4754C139.094 21.5522 138.343 20.8009 137.411 20.8009Z" fill="#162339"></path><path d="M137.872 23.5163L137.438 22.8646H137.085V23.5163H136.641V21.4888H137.565C137.809 21.4888 137.99 21.5521 138.126 21.6698C138.262 21.7875 138.325 21.9504 138.325 22.1586V22.1676C138.325 22.3306 138.289 22.4663 138.207 22.5659C138.126 22.6655 138.026 22.7469 137.891 22.7922L138.388 23.5163H137.872ZM137.882 22.1857C137.882 22.0862 137.854 22.0138 137.791 21.9685C137.728 21.9232 137.646 21.8961 137.538 21.8961H137.094V22.4754H137.547C137.655 22.4754 137.737 22.4482 137.8 22.3939C137.845 22.3487 137.882 22.2762 137.882 22.1857Z" fill="#162339"></path></g><defs><clipPath id="clip0_307_63"><rect width="144.434" height="48" fill="white"></rect></clipPath></defs></svg>