<svg xmlns="http://www.w3.org/2000/svg" width="143" height="48" viewBox="0 0 143 48" fill="none"><g clip-path="url(#clip0_283_38)"><path d="M31.912 16.0884V31.7719L16.2285 16.0884H31.912Z" fill="#162339"></path><path d="M15.9558 0V16.0589L15.9264 16.0883L0 32.0074V0H15.9558Z" fill="#162339"></path><path d="M31.9117 32.0442V32.0957L16.0074 48H0V32.0442H31.9117Z" fill="#162339"></path><path d="M40.566 6.32935H46.8879C47.5798 6.32935 48.2348 6.43974 48.8309 6.65317C49.4344 6.87396 49.9496 7.16099 50.3838 7.52162C50.818 7.88224 51.1566 8.30911 51.4068 8.79485C51.6497 9.28059 51.7748 9.78105 51.7748 10.3036C51.7748 11.1573 51.5687 11.8712 51.1566 12.4305C50.7444 12.9899 50.2513 13.4167 49.692 13.6891V13.9098C50.5163 14.2116 51.1639 14.6753 51.635 15.3008C52.106 15.9264 52.3415 16.6918 52.3415 17.6044C52.3415 18.2741 52.209 18.8703 51.9367 19.4002C51.6718 19.9301 51.2964 20.379 50.8254 20.747C50.3544 21.115 49.795 21.402 49.1547 21.5934C48.5071 21.7921 47.8079 21.8878 47.0572 21.8878H40.5586V6.32935H40.566ZM46.5568 12.4968C47.1676 12.4968 47.6386 12.3569 47.9698 12.0846C48.301 11.8123 48.4703 11.4149 48.4703 10.9144C48.4703 10.4066 48.301 10.0166 47.9698 9.74425C47.6386 9.47194 47.197 9.33211 46.6451 9.33211H43.9514V12.5041H46.5568V12.4968ZM46.8438 18.8408C48.2495 18.8408 48.9487 18.2594 48.9487 17.104C48.9487 15.9485 48.22 15.3671 46.7555 15.3671H43.9514V18.8408H46.8438Z" fill="#162339"></path><path d="M61.5935 20.5336H61.3727C60.6514 21.667 59.5622 22.2264 58.1123 22.2264C56.7802 22.2264 55.7867 21.7995 55.139 20.9458C54.484 20.092 54.1602 18.966 54.1602 17.575V11.231H57.4205V17.207C57.4205 17.7885 57.5603 18.2595 57.8326 18.6275C58.105 18.9954 58.5318 19.1794 59.1132 19.1794C59.8492 19.1794 60.4159 18.8998 60.7986 18.3331C61.1813 17.7664 61.3727 17.0304 61.3727 16.1178V11.231H64.633V21.8804H61.5935V20.5336Z" fill="#162339"></path><path d="M68.8716 10.2373C68.5846 10.2373 68.3123 10.1858 68.0694 10.0754C67.8266 9.96504 67.6058 9.8252 67.4291 9.64121C67.2452 9.45722 67.1053 9.24379 66.9949 9.00092C66.8845 8.75805 66.833 8.48574 66.833 8.19871C66.833 7.9264 66.8845 7.66145 66.9949 7.40386C67.1053 7.15363 67.2452 6.93284 67.4291 6.74885C67.6131 6.56485 67.8266 6.42502 68.0694 6.31462C68.3123 6.20423 68.5846 6.15271 68.8716 6.15271C69.144 6.15271 69.4089 6.20423 69.6665 6.31462C69.9167 6.42502 70.1375 6.56485 70.3215 6.74885C70.5055 6.93284 70.6453 7.14627 70.7557 7.40386C70.8661 7.65409 70.9176 7.91904 70.9176 8.19871C70.9176 8.48574 70.8661 8.75805 70.7557 9.00092C70.6453 9.24379 70.5055 9.46458 70.3215 9.64121C70.1375 9.8252 69.9241 9.96504 69.6665 10.0754C69.4089 10.1858 69.1513 10.2373 68.8716 10.2373ZM67.2452 21.8804V11.2383H70.5055V21.8878H67.2452V21.8804Z" fill="#162339"></path><path d="M73.1113 21.8804V6.32935H76.3717V21.8878H73.1113V21.8804Z" fill="#162339"></path><path d="M86.5133 20.7102H86.2925C86.0497 21.1297 85.667 21.4903 85.1518 21.7847C84.6366 22.0791 83.9889 22.2337 83.2088 22.2337C82.5244 22.2337 81.8767 22.0938 81.2511 21.8215C80.6256 21.5492 80.0809 21.1592 79.6099 20.6587C79.1389 20.1582 78.7636 19.5621 78.4912 18.8629C78.2189 18.1711 78.0791 17.3983 78.0791 16.5593C78.0791 15.7203 78.2189 14.9549 78.4912 14.2557C78.7636 13.5639 79.1389 12.9604 79.6099 12.46C80.0809 11.9595 80.6256 11.5695 81.2511 11.2971C81.8767 11.0248 82.5244 10.885 83.2088 10.885C83.9889 10.885 84.6366 11.0322 85.1518 11.3339C85.667 11.6283 86.0497 11.989 86.2925 12.4085H86.5133L86.2925 10.885V6.32935H89.5529V21.8878H86.5133V20.7102ZM83.9301 19.1868C84.276 19.1868 84.6072 19.1279 84.9163 19.0028C85.2254 18.8776 85.505 18.7084 85.7406 18.4802C85.9761 18.2594 86.1674 17.9798 86.3072 17.6559C86.4471 17.3321 86.5133 16.9641 86.5133 16.5593C86.5133 16.1546 86.4471 15.7939 86.3072 15.4701C86.1674 15.1536 85.9834 14.874 85.7406 14.6458C85.505 14.4177 85.2254 14.2337 84.9163 14.1159C84.6072 13.9908 84.276 13.9319 83.9301 13.9319C83.5842 13.9319 83.253 13.9908 82.9439 14.1159C82.6348 14.241 82.3551 14.4177 82.1196 14.6458C81.8841 14.8813 81.6927 15.1536 81.5529 15.4701C81.413 15.7866 81.3468 16.1546 81.3468 16.5593C81.3468 16.9641 81.413 17.3321 81.5529 17.6559C81.6927 17.9798 81.8767 18.2594 82.1196 18.4802C82.3551 18.7084 82.6348 18.8776 82.9439 19.0028C83.253 19.1279 83.5842 19.1868 83.9301 19.1868Z" fill="#162339"></path><path d="M44.4964 35.4001L39.2637 27.0763H43.3483L46.0861 31.6393H46.3069L48.9122 27.0763H53.041L47.8892 35.4001V42.6347H44.4964V35.4001Z" fill="#162339"></path><path d="M57.0301 31.6394C57.8544 31.6394 58.6198 31.7792 59.319 32.0663C60.0181 32.3459 60.629 32.7434 61.1442 33.2365C61.6593 33.7369 62.0568 34.3331 62.3364 35.0322C62.6161 35.724 62.7633 36.4895 62.7633 37.3137C62.7633 38.138 62.6235 38.9034 62.3364 39.5952C62.0568 40.2871 61.652 40.8906 61.1442 41.391C60.629 41.8915 60.0181 42.2815 59.319 42.5612C58.6198 42.8409 57.8544 42.9881 57.0301 42.9881C56.2058 42.9881 55.4404 42.8482 54.7412 42.5612C54.042 42.2815 53.4312 41.8841 52.916 41.391C52.4008 40.8906 52.0034 40.2944 51.7237 39.5952C51.4441 38.9034 51.2969 38.138 51.2969 37.3137C51.2969 36.4895 51.4367 35.724 51.7237 35.0322C52.0034 34.3404 52.4008 33.7369 52.916 33.2365C53.4312 32.736 54.042 32.3459 54.7412 32.0663C55.4404 31.7792 56.2058 31.6394 57.0301 31.6394ZM57.0301 39.9412C57.3613 39.9412 57.6777 39.8823 57.9721 39.7572C58.2665 39.632 58.5315 39.4628 58.767 39.2346C58.9951 39.0138 59.1791 38.7342 59.3116 38.4103C59.4441 38.0865 59.5103 37.7185 59.5103 37.3137C59.5103 36.909 59.4441 36.5483 59.3116 36.2245C59.1791 35.908 59.0025 35.6284 58.767 35.4002C58.5315 35.1721 58.2739 34.9881 57.9721 34.8703C57.6777 34.7452 57.3613 34.6863 57.0301 34.6863C56.6989 34.6863 56.3824 34.7452 56.088 34.8703C55.7937 34.9954 55.5287 35.1721 55.2932 35.4002C55.0577 35.6357 54.8811 35.908 54.7486 36.2245C54.6161 36.541 54.5499 36.909 54.5499 37.3137C54.5499 37.7185 54.6161 38.0865 54.7486 38.4103C54.8811 38.7342 55.0577 39.0138 55.2932 39.2346C55.5213 39.4628 55.7863 39.632 56.088 39.7572C56.3824 39.8749 56.6989 39.9412 57.0301 39.9412Z" fill="#162339"></path><path d="M71.3962 41.2879H71.1754C70.4542 42.4213 69.3649 42.9806 67.9151 42.9806C66.5829 42.9806 65.5894 42.5538 64.9417 41.7C64.2867 40.8463 63.9629 39.7203 63.9629 38.3293V31.9852H67.2232V37.9613C67.2232 38.5427 67.3631 39.0137 67.6354 39.3817C67.9077 39.7497 68.3346 39.9337 68.916 39.9337C69.6519 39.9337 70.2186 39.654 70.6013 39.0873C70.9841 38.5206 71.1754 37.7847 71.1754 36.8721V31.9852H74.4358V42.6347H71.3962V41.2879Z" fill="#162339"></path><path d="M76.4375 31.9853H79.4771V33.3321H79.6979C79.9849 32.8685 80.397 32.4711 80.9343 32.1399C81.4715 31.8087 82.0677 31.6394 82.7153 31.6394C83.1054 31.6394 83.4439 31.6909 83.7383 31.7792C84.0254 31.8749 84.2682 31.978 84.4522 32.0957L83.6059 35.0028C83.4145 34.8998 83.2158 34.8188 83.0097 34.7673C82.7963 34.7084 82.5313 34.679 82.1928 34.679C81.3832 34.679 80.765 34.9586 80.3381 35.5253C79.9113 36.092 79.6979 36.828 79.6979 37.7406V42.6274H76.4375V31.9853Z" fill="#162339"></path><path d="M85.667 27.0764H89.0598V33.0746H95.0138V27.0764H98.4066V42.6348H95.0138V36.2908H89.0598V42.6348H85.667V27.0764Z" fill="#162339"></path><path d="M105.877 31.6394C106.701 31.6394 107.466 31.7792 108.166 32.0663C108.865 32.3459 109.476 32.7434 109.991 33.2365C110.506 33.7369 110.903 34.3331 111.183 35.0322C111.463 35.724 111.61 36.4895 111.61 37.3137C111.61 38.138 111.47 38.9034 111.183 39.5952C110.903 40.2871 110.499 40.8906 109.991 41.391C109.476 41.8915 108.865 42.2815 108.166 42.5612C107.466 42.8409 106.701 42.9881 105.877 42.9881C105.052 42.9881 104.287 42.8482 103.588 42.5612C102.889 42.2815 102.278 41.8841 101.763 41.391C101.248 40.8906 100.85 40.2944 100.57 39.5952C100.291 38.9034 100.144 38.138 100.144 37.3137C100.144 36.4895 100.283 35.724 100.57 35.0322C100.85 34.3404 101.248 33.7369 101.763 33.2365C102.278 32.736 102.889 32.3459 103.588 32.0663C104.287 31.7792 105.052 31.6394 105.877 31.6394ZM105.877 39.9412C106.208 39.9412 106.524 39.8823 106.819 39.7572C107.113 39.632 107.378 39.4628 107.614 39.2346C107.842 39.0138 108.026 38.7342 108.158 38.4103C108.291 38.0865 108.357 37.7185 108.357 37.3137C108.357 36.909 108.291 36.5483 108.158 36.2245C108.026 35.908 107.849 35.6284 107.614 35.4002C107.378 35.1721 107.121 34.9881 106.819 34.8703C106.524 34.7452 106.208 34.6863 105.877 34.6863C105.546 34.6863 105.229 34.7452 104.935 34.8703C104.64 34.9954 104.375 35.1721 104.14 35.4002C103.904 35.6357 103.728 35.908 103.595 36.2245C103.463 36.541 103.397 36.909 103.397 37.3137C103.397 37.7185 103.463 38.0865 103.595 38.4103C103.728 38.7342 103.904 39.0138 104.14 39.2346C104.368 39.4628 104.633 39.632 104.935 39.7572C105.229 39.8749 105.538 39.9412 105.877 39.9412Z" fill="#162339"></path><path d="M112.787 31.9853H115.826V33.3322H116.047C116.393 32.7949 116.842 32.3828 117.386 32.081C117.931 31.7866 118.571 31.6321 119.307 31.6321C120.117 31.6321 120.794 31.8234 121.331 32.2061C121.869 32.5888 122.244 33.0378 122.465 33.5456C122.781 33.0378 123.237 32.5962 123.834 32.2061C124.43 31.8234 125.173 31.6321 126.071 31.6321C126.711 31.6321 127.263 31.7351 127.742 31.9485C128.22 32.162 128.617 32.449 128.926 32.8317C129.236 33.2071 129.471 33.656 129.633 34.1785C129.795 34.7011 129.869 35.2751 129.869 35.8934V42.6275H126.608V36.5189C126.608 35.9669 126.483 35.5254 126.225 35.1795C125.975 34.8409 125.6 34.6716 125.107 34.6716C124.4 34.6716 123.863 34.9587 123.502 35.5327C123.142 36.1068 122.958 36.8722 122.958 37.8216V42.6201H119.697V36.5116C119.697 35.9596 119.565 35.518 119.293 35.1721C119.028 34.8336 118.608 34.6643 118.041 34.6643C117.372 34.6643 116.879 34.9513 116.54 35.5254C116.209 36.0994 116.04 36.8648 116.04 37.8142V42.6128H112.779V31.9853H112.787Z" fill="#162339"></path><path d="M142.071 40.0441C141.549 40.9567 140.864 41.6706 140.018 42.1932C139.172 42.7157 138.149 42.9733 136.942 42.9733C136.117 42.9733 135.352 42.8335 134.653 42.5464C133.954 42.2668 133.335 41.8693 132.82 41.3615C132.298 40.8537 131.893 40.2576 131.606 39.5658C131.319 38.8813 131.172 38.1233 131.172 37.299C131.172 36.5336 131.319 35.8049 131.606 35.1131C131.893 34.4287 132.298 33.8252 132.813 33.31C133.328 32.7948 133.932 32.39 134.616 32.0809C135.3 31.7792 136.051 31.6246 136.868 31.6246C137.751 31.6246 138.531 31.7718 139.201 32.0589C139.878 32.3459 140.438 32.7433 140.886 33.2438C141.335 33.7442 141.674 34.333 141.909 35.0027C142.138 35.6798 142.255 36.3937 142.255 37.1665C142.255 37.2842 142.248 37.402 142.248 37.5124C142.241 37.6302 142.233 37.7332 142.219 37.8141C142.204 37.9172 142.196 38.0129 142.196 38.0938H134.351C134.513 38.7856 134.837 39.2934 135.33 39.6173C135.823 39.9337 136.375 40.0957 136.978 40.0957C137.589 40.0957 138.09 39.9632 138.487 39.7056C138.885 39.448 139.201 39.1095 139.429 38.7047L142.071 40.0441ZM139.179 35.9006C139.15 35.724 139.083 35.54 138.973 35.3339C138.863 35.1279 138.715 34.9439 138.517 34.7819C138.318 34.6127 138.082 34.4802 137.803 34.3698C137.523 34.2594 137.207 34.2079 136.861 34.2079C136.353 34.2079 135.882 34.3551 135.448 34.6421C135.013 34.9291 134.697 35.3486 134.491 35.9006H139.179Z" fill="#162339"></path><path d="M95.2419 11.5548C93.7111 11.5548 92.46 10.311 92.46 8.77281C92.46 7.24199 93.7037 5.99084 95.2419 5.99084C96.7727 5.99084 98.0239 7.23463 98.0239 8.77281C98.0239 10.3036 96.7727 11.5548 95.2419 11.5548ZM95.2419 6.5649C94.0202 6.5649 93.034 7.55846 93.034 8.77281C93.034 9.98716 94.0276 10.9807 95.2419 10.9807C96.4636 10.9807 97.4498 9.98716 97.4498 8.77281C97.4498 7.55846 96.4636 6.5649 95.2419 6.5649Z" fill="#162339"></path><path d="M95.8455 10.1417L95.2714 9.28794H94.8078V10.1417H94.219V7.47009H95.4407C95.7572 7.47009 96.0074 7.55105 96.184 7.7056C96.3607 7.86016 96.449 8.07359 96.449 8.35326V8.36062C96.449 8.57405 96.3975 8.75068 96.2944 8.89052C96.1914 9.02299 96.0516 9.12603 95.8823 9.19226L96.5373 10.149H95.8455V10.1417ZM95.8529 8.3827C95.8529 8.25758 95.8087 8.16191 95.7277 8.09567C95.6468 8.02943 95.5364 7.99999 95.3892 7.99999H94.8078V8.7654H95.4039C95.5511 8.7654 95.6615 8.7286 95.7351 8.66236C95.8161 8.59613 95.8529 8.50045 95.8529 8.39006V8.3827Z" fill="#162339"></path></g><defs><clipPath id="clip0_283_38"><rect width="142.248" height="48" fill="white"></rect></clipPath></defs></svg>