<svg xmlns="http://www.w3.org/2000/svg" width="126" height="48" viewBox="0 0 126 48" fill="none"><path fill-rule="evenodd" clip-rule="evenodd" d="M36.8 19.5007H38.047C38.2215 19.5048 38.3907 19.4402 38.518 19.3208C38.5807 19.2641 38.6305 19.1946 38.664 19.117C38.6975 19.0393 38.7138 18.9554 38.712 18.8709V10.7708C38.6754 10.332 38.7349 9.89047 38.8864 9.47707C39.0379 9.06367 39.2777 8.68824 39.5891 8.37697C39.9004 8.06569 40.2759 7.82616 40.6893 7.67482C41.1028 7.52348 41.5442 7.46405 41.983 7.50075H43.563C43.6498 7.50605 43.7368 7.49273 43.818 7.46168C43.8992 7.43064 43.9729 7.38266 44.034 7.32082C44.1458 7.19817 44.2054 7.03676 44.2 6.87086V5.85084C44.2098 5.76514 44.1999 5.67829 44.1713 5.59694C44.1426 5.51558 44.0958 5.44178 44.0345 5.38112C43.9732 5.32046 43.8988 5.27437 43.8171 5.2466C43.7355 5.21882 43.6486 5.21003 43.563 5.22072H42.482C41.7303 5.15153 40.974 5.28931 40.2949 5.61891C39.6158 5.94851 39.0398 6.45749 38.629 7.09084V5.88063C38.6332 5.79259 38.6193 5.70485 38.5884 5.62233C38.5574 5.5398 38.51 5.46424 38.449 5.40065C38.3845 5.33939 38.3083 5.29194 38.225 5.261C38.1416 5.23006 38.0528 5.21634 37.964 5.22072H36.8C36.7144 5.21739 36.6292 5.23259 36.5502 5.2654C36.4711 5.2982 36.4 5.34776 36.342 5.41066C36.2235 5.53821 36.159 5.7066 36.162 5.88063V18.8709C36.1597 18.9542 36.1745 19.0369 36.2054 19.1143C36.2364 19.1917 36.2829 19.2621 36.342 19.3208C36.402 19.3804 36.4737 19.4271 36.5524 19.458C36.6312 19.489 36.7154 19.5035 36.8 19.5007ZM52.017 19.7708C53.0982 19.7944 54.1716 19.5828 55.163 19.1507C55.9644 18.8183 56.6867 18.3208 57.283 17.6907C57.6932 17.3046 57.9576 16.789 58.032 16.2307C58.0336 16.1606 58.0181 16.0911 57.9867 16.0283C57.9553 15.9656 57.9091 15.9116 57.852 15.8709C57.7268 15.7815 57.5757 15.7357 57.422 15.7407H56.2C56.0407 15.7317 55.881 15.7521 55.729 15.8008C55.5758 15.9087 55.4442 16.0443 55.341 16.2007C54.998 16.6262 54.5801 16.9855 54.108 17.2608C53.4627 17.626 52.7278 17.8027 51.987 17.7708C51.4662 17.788 50.9488 17.6819 50.4768 17.4612C50.0048 17.2405 49.5917 16.9114 49.271 16.5007C48.5772 15.6369 48.1875 14.5684 48.162 13.4607V13.2107H57.78C57.8645 13.2135 57.9485 13.1989 58.0271 13.168C58.1057 13.137 58.1771 13.0904 58.237 13.0308C58.2964 12.9722 58.3432 12.9019 58.3743 12.8245C58.4055 12.7471 58.4204 12.6642 58.418 12.5808V12.0808C58.5206 10.1968 57.9233 8.34134 56.741 6.87086C55.5151 5.66403 53.8728 4.97354 52.1529 4.94191C50.4329 4.91028 48.7664 5.53976 47.497 6.7007C46.3206 7.99338 45.6598 9.67296 45.64 11.4207L45.612 12.3308L45.64 13.2608C45.6485 15.0256 46.31 16.7248 47.497 18.0308C48.0883 18.6182 48.7953 19.0762 49.5731 19.3757C50.3509 19.6753 51.1824 19.8099 52.015 19.7708H52.017ZM48.164 11.3408V11.2608C48.1153 10.1276 48.4799 9.01512 49.19 8.13063C49.538 7.72703 49.9736 7.40844 50.4635 7.19875C50.9534 6.98905 51.4848 6.89383 52.017 6.92067C52.5488 6.89744 53.079 6.99418 53.5684 7.20363C54.0577 7.41308 54.4937 7.72985 54.844 8.13063C55.5703 9.00766 55.9455 10.1231 55.897 11.2608V11.3408H48.164ZM62.439 19.5007H63.658C63.7424 19.5035 63.8265 19.489 63.9051 19.458C63.9837 19.4271 64.0551 19.3804 64.115 19.3208C64.1744 19.2622 64.2212 19.1919 64.2523 19.1145C64.2835 19.0371 64.2983 18.9543 64.296 18.8709V11.1507C64.1929 10.0316 64.5366 8.91739 65.252 8.0508C65.5471 7.74264 65.9024 7.49841 66.2958 7.33327C66.6892 7.16813 67.1124 7.08564 67.539 7.09084C67.9787 7.08017 68.4159 7.15984 68.8236 7.32497C69.2313 7.49009 69.6007 7.73713 69.909 8.0508C70.6269 8.9278 70.9704 10.0522 70.865 11.1807V18.8709C70.8627 18.9542 70.8775 19.0369 70.9084 19.1143C70.9394 19.1917 70.9859 19.2621 71.045 19.3208C71.1048 19.3804 71.1763 19.4271 71.2549 19.458C71.3335 19.489 71.4176 19.5035 71.502 19.5007H72.722C72.8064 19.5035 72.8905 19.489 72.9691 19.458C73.0476 19.4271 73.1191 19.3804 73.179 19.3208C73.2381 19.2621 73.2846 19.1917 73.3156 19.1143C73.3465 19.0369 73.3613 18.9542 73.359 18.8709V11.1807C73.2583 10.0556 73.6018 8.93593 74.316 8.06081C74.609 7.74956 74.9636 7.50245 75.3571 7.33546C75.7506 7.16848 76.1745 7.08531 76.602 7.09084C77.0473 7.07087 77.4919 7.14405 77.9073 7.30592C78.3226 7.4678 78.6996 7.71473 79.014 8.03078C79.7082 8.92633 80.0354 10.0526 79.929 11.1807V18.8709C79.9265 18.9542 79.9412 19.0371 79.9722 19.1145C80.0031 19.1919 80.0497 19.2622 80.109 19.3208C80.1689 19.3804 80.2403 19.4271 80.3189 19.458C80.3975 19.489 80.4816 19.5035 80.566 19.5007H81.758C81.8424 19.5035 81.9265 19.489 82.0051 19.458C82.0837 19.4271 82.1551 19.3804 82.215 19.3208C82.2743 19.2621 82.3209 19.1919 82.3521 19.1145C82.3832 19.0371 82.3981 18.9543 82.396 18.8709V10.9307C82.5061 9.31702 81.9896 7.72312 80.954 6.48073C80.4797 5.97505 79.9033 5.5761 79.2629 5.31056C78.6225 5.04503 77.9329 4.91897 77.24 4.94069C76.2764 4.92742 75.3259 5.16516 74.482 5.63063C73.6916 6.05775 73.0342 6.69447 72.582 7.47072C72.1966 6.6652 71.5787 5.9937 70.8079 5.54274C70.0372 5.09178 69.149 4.88202 68.258 4.94069C67.4869 4.91147 66.7197 5.06267 66.0173 5.38209C65.3149 5.70152 64.6967 6.18045 64.212 6.78078V5.85084C64.217 5.68483 64.1571 5.52319 64.045 5.40065C63.9884 5.34062 63.9195 5.29352 63.8431 5.26247C63.7666 5.23141 63.6844 5.21718 63.602 5.22072H62.44C62.3554 5.21793 62.2711 5.23249 62.1924 5.26344C62.1136 5.2944 62.042 5.34102 61.982 5.40065C61.9229 5.45941 61.8764 5.5298 61.8455 5.60719C61.8145 5.68458 61.7997 5.76753 61.802 5.85084V18.8709C61.7997 18.9542 61.8145 19.0369 61.8455 19.1143C61.8764 19.1917 61.9229 19.2621 61.982 19.3208C62.042 19.3804 62.1136 19.4271 62.1924 19.458C62.2711 19.489 62.3544 19.5035 62.439 19.5007ZM92.263 19.7708C93.1212 19.8255 93.9814 19.7027 94.79 19.4102C95.5987 19.1177 96.3384 18.6618 96.963 18.0708C98.1002 16.8369 98.7289 15.2188 98.723 13.5408C98.76 13.1408 98.779 12.7409 98.779 12.3609C98.779 11.9809 98.76 11.5807 98.723 11.1807C98.732 9.49688 98.0916 7.87438 96.935 6.65065C95.6293 5.54644 93.9746 4.94069 92.2645 4.94069C90.5545 4.94069 88.8997 5.54644 87.594 6.65065C86.4374 7.87438 85.797 9.49688 85.806 11.1807L85.779 12.3609L85.806 13.5408C85.8 15.219 86.4291 16.8373 87.567 18.0708C88.1915 18.662 88.9312 19.1179 89.7399 19.4104C90.5485 19.7029 91.4088 19.8256 92.267 19.7708H92.263ZM92.263 17.7107C91.742 17.7364 91.2215 17.6507 90.7363 17.4592C90.251 17.2678 89.8122 16.9753 89.449 16.6008C88.6988 15.7058 88.3001 14.5682 88.327 13.4007L88.299 12.3609L88.327 11.3108C88.2999 10.1463 88.6989 9.01201 89.449 8.12086C90.2092 7.40168 91.216 7.00075 92.2625 7.00075C93.309 7.00075 94.3158 7.40168 95.076 8.12086C95.826 9.01215 96.2252 10.1463 96.199 11.3108C96.217 11.5008 96.226 11.8509 96.226 12.3609C96.226 12.8709 96.217 13.2207 96.199 13.4007C96.2251 14.5682 95.826 15.7057 95.076 16.6008C94.7129 16.9751 94.2742 17.2676 93.7892 17.459C93.3041 17.6504 92.7838 17.7362 92.263 17.7107ZM107.679 19.5007H109.559C109.641 19.504 109.723 19.4896 109.799 19.4585C109.874 19.4275 109.943 19.3806 109.999 19.3208C110.112 19.1984 110.173 19.0372 110.169 18.8709V17.9607C110.173 17.7944 110.112 17.6332 109.999 17.5108C109.943 17.451 109.874 17.4041 109.799 17.3731C109.723 17.342 109.641 17.3276 109.559 17.3308H107.869C107.567 17.3598 107.263 17.3083 106.987 17.1819C106.711 17.0555 106.474 16.8586 106.299 16.6109C105.958 15.9622 105.802 15.2321 105.849 14.5007V7.33083H109.279C109.447 7.33955 109.612 7.28197 109.739 7.17067C109.799 7.11448 109.846 7.04614 109.877 6.97023C109.908 6.89432 109.922 6.81268 109.919 6.73073V5.85084C109.921 5.76753 109.907 5.68458 109.876 5.60719C109.845 5.5298 109.798 5.45941 109.739 5.40065C109.679 5.34063 109.607 5.29368 109.528 5.26271C109.449 5.23174 109.364 5.21748 109.279 5.22072H105.849V0.63063C105.851 0.547311 105.836 0.46461 105.806 0.387222C105.775 0.309834 105.728 0.239443 105.669 0.180679C105.608 0.121421 105.536 0.0751235 105.457 0.0442045C105.378 0.0132854 105.294 -0.00155742 105.209 0.000747424H103.989C103.907 -0.00350162 103.825 0.0104027 103.749 0.0415189C103.673 0.0726351 103.605 0.120126 103.549 0.180679C103.491 0.2399 103.446 0.31051 103.417 0.387954C103.388 0.465399 103.375 0.547953 103.379 0.63063V5.22072H101.189C101.106 5.2165 101.024 5.23039 100.947 5.26149C100.87 5.29259 100.801 5.34006 100.745 5.40065C100.633 5.52319 100.573 5.68483 100.578 5.85084V6.73073C100.575 6.81154 100.588 6.89218 100.617 6.96779C100.645 7.0434 100.689 7.11237 100.745 7.17067C100.804 7.22641 100.874 7.26936 100.95 7.29689C101.027 7.32442 101.108 7.33609 101.189 7.33083H103.379V14.6907C103.379 17.9007 104.812 19.5041 107.679 19.5007ZM118.599 19.7708C119.678 19.7948 120.75 19.5831 121.739 19.1507C122.541 18.8193 123.263 18.3217 123.859 17.6907C124.27 17.3049 124.535 16.7893 124.609 16.2307C124.611 16.1606 124.595 16.0911 124.564 16.0283C124.533 15.9656 124.486 15.9115 124.429 15.8709C124.304 15.7806 124.153 15.7347 123.999 15.7407H122.779C122.62 15.7316 122.461 15.752 122.309 15.8008C122.157 15.9104 122.025 16.0457 121.919 16.2007C121.576 16.6246 121.159 16.9836 120.689 17.2608C120.044 17.6257 119.309 17.8025 118.569 17.7708C118.048 17.7886 117.529 17.6829 117.057 17.4622C116.584 17.2414 116.17 16.912 115.849 16.5007C115.159 15.6348 114.769 14.5677 114.739 13.4607V13.2107H124.359C124.444 13.2139 124.529 13.1997 124.608 13.1687C124.687 13.1377 124.759 13.0908 124.819 13.0308C124.878 12.972 124.925 12.9019 124.956 12.8245C124.986 12.7471 125.001 12.6641 124.999 12.5808V12.0808C125.102 10.1963 124.503 8.3405 123.319 6.87086C122.094 5.66408 120.452 4.97354 118.733 4.94191C117.014 4.91028 115.348 5.53979 114.079 6.7007C112.9 7.99228 112.238 9.67233 112.219 11.4207L112.189 12.3308L112.219 13.2608C112.227 15.0262 112.89 16.7258 114.079 18.0308C114.67 18.619 115.377 19.0776 116.156 19.3772C116.934 19.6768 117.766 19.8108 118.599 19.7708ZM114.739 11.3408V11.2608C114.689 10.1267 115.055 9.01326 115.769 8.13063C116.117 7.72586 116.553 7.40633 117.043 7.19655C117.534 6.98677 118.066 6.89238 118.599 6.92067C119.13 6.89741 119.659 6.99414 120.147 7.20363C120.635 7.41312 121.07 7.72994 121.419 8.13063C122.147 9.00736 122.524 10.1224 122.479 11.2608V11.3408H114.739ZM41.1 47.0007C42.192 47.0232 43.2782 46.8364 44.3 46.4507C45.1052 46.1513 45.8076 45.6272 46.324 44.9407C46.7701 44.3167 47.0078 43.5679 47.003 42.8008C47.0174 42.3123 46.9267 41.8263 46.7369 41.376C46.5471 40.9257 46.2627 40.5215 45.903 40.1907C44.817 39.3538 43.5325 38.813 42.175 38.6209C41.3066 38.4605 40.4535 38.2261 39.625 37.9207C39.1796 37.7786 38.7786 37.5237 38.461 37.1807C38.2522 36.9014 38.1446 36.5593 38.156 36.2107C38.1471 35.9212 38.2079 35.6339 38.3334 35.3728C38.4589 35.1118 38.6454 34.8846 38.877 34.7107C39.4892 34.3006 40.2196 34.1037 40.955 34.1507C41.4706 34.1393 41.9848 34.207 42.48 34.3508C42.819 34.4554 43.1343 34.6252 43.408 34.8508C43.6855 35.1067 43.9492 35.3769 44.198 35.6607C44.2521 35.7586 44.3331 35.8389 44.4315 35.8921C44.5299 35.9453 44.6415 35.9691 44.753 35.9607H45.806C45.9659 35.9614 46.1199 35.9006 46.236 35.7908C46.2945 35.74 46.3409 35.6769 46.372 35.606C46.4031 35.5351 46.4182 35.458 46.416 35.3806C46.3507 34.8952 46.1321 34.4434 45.792 34.0908C45.2819 33.5099 44.6471 33.0517 43.935 32.7507C42.997 32.3388 41.9791 32.1406 40.955 32.1707C39.9666 32.1469 38.9857 32.3488 38.087 32.7608C37.3506 33.0958 36.7219 33.6291 36.271 34.3008C35.8793 34.8799 35.6671 35.5616 35.661 36.2608C35.644 36.7331 35.724 37.204 35.896 37.6443C36.068 38.0846 36.3283 38.485 36.661 38.8208C37.6409 39.6215 38.8186 40.1431 40.07 40.3308C40.9765 40.5075 41.8702 40.7447 42.745 41.0408C43.2236 41.1903 43.6635 41.4429 44.034 41.7808C44.3022 42.0826 44.4415 42.4773 44.422 42.8806C44.4328 43.2028 44.3545 43.5217 44.1957 43.8023C44.0369 44.0828 43.8037 44.3141 43.522 44.4707C42.7881 44.8721 41.9574 45.0625 41.122 45.0208C40.3894 45.0531 39.6603 44.902 39.001 44.5808C38.4518 44.2731 37.9673 43.8623 37.574 43.3709C37.499 43.2776 37.4099 43.1964 37.31 43.1306C37.2295 43.0869 37.1385 43.0663 37.047 43.0708H35.883C35.7313 43.0721 35.5846 43.1249 35.467 43.2207C35.4023 43.2714 35.3509 43.337 35.3171 43.4119C35.2833 43.4868 35.2682 43.5686 35.273 43.6507C35.3403 44.1472 35.5637 44.6095 35.911 44.9707C36.447 45.5828 37.1152 46.0649 37.865 46.3806C38.8832 46.8204 39.9853 47.0322 41.094 47.0007H41.1ZM55.763 46.7207H57.648C57.7304 46.7243 57.8127 46.71 57.8891 46.679C57.9655 46.6479 58.0344 46.6008 58.091 46.5408C58.1473 46.4806 58.1911 46.4098 58.2197 46.3325C58.2484 46.2553 58.2614 46.1732 58.258 46.0908V45.1907C58.2648 45.0214 58.2048 44.8562 58.091 44.7307C58.0344 44.6707 57.9655 44.6236 57.8891 44.5925C57.8127 44.5615 57.7304 44.5473 57.648 44.5508H55.957C55.6564 44.5823 55.3529 44.533 55.0776 44.4082C54.8024 44.2834 54.5653 44.0877 54.391 43.8408C54.0461 43.1934 53.8879 42.4628 53.934 41.7307V34.5608H57.371C57.5395 34.5651 57.7032 34.504 57.828 34.3906C57.8876 34.3365 57.9346 34.2701 57.9657 34.1958C57.9968 34.1215 58.0112 34.0412 58.008 33.9607V33.0808C58.0113 32.9961 57.9972 32.9115 57.9664 32.8325C57.9356 32.7536 57.8889 32.6819 57.8291 32.6218C57.7693 32.5618 57.6978 32.5146 57.619 32.4834C57.5401 32.4523 57.4557 32.4377 57.371 32.4407H53.934V27.8609C53.9362 27.7775 53.9212 27.6944 53.8901 27.617C53.8589 27.5396 53.8123 27.4693 53.753 27.4107C53.6931 27.3511 53.6217 27.3044 53.5431 27.2735C53.4645 27.2425 53.3804 27.228 53.296 27.2307H52.076C51.9936 27.2272 51.9113 27.2414 51.8349 27.2725C51.7585 27.3035 51.6896 27.3506 51.633 27.4107C51.5211 27.5333 51.4616 27.695 51.467 27.8609V32.4407H49.277C49.1944 32.4371 49.112 32.4514 49.0354 32.4824C48.9588 32.5135 48.8898 32.5608 48.833 32.6209C48.7198 32.7467 48.6602 32.9117 48.667 33.0808V33.9607C48.6636 34.0399 48.6766 34.1191 48.7052 34.1931C48.7338 34.2671 48.7773 34.3342 48.833 34.3906C48.8917 34.4474 48.9614 34.4918 49.0377 34.521C49.114 34.5502 49.1953 34.5639 49.277 34.5608H51.467V41.9207C51.467 45.1207 52.9004 46.7207 55.767 46.7207H55.763ZM66.351 47.0007C67.2951 47.0347 68.2342 46.8498 69.095 46.4607C69.8419 46.0854 70.4883 45.5369 70.98 44.8609V46.0908C70.9765 46.1743 70.9907 46.2574 71.0217 46.335C71.0528 46.4125 71.0999 46.4828 71.16 46.5408C71.2198 46.6004 71.2913 46.647 71.3699 46.678C71.4485 46.7089 71.5326 46.7235 71.617 46.7207H72.809C72.8934 46.7235 72.9775 46.7089 73.0561 46.678C73.1347 46.647 73.2061 46.6004 73.266 46.5408C73.3258 46.4825 73.3728 46.4122 73.404 46.3347C73.4352 46.2572 73.4498 46.1743 73.447 46.0908V33.0808C73.4501 32.9961 73.4357 32.9117 73.4047 32.8328C73.3738 32.7539 73.3269 32.6821 73.2671 32.6221C73.2073 32.5621 73.1357 32.5151 73.0569 32.4839C72.9781 32.4527 72.8937 32.4379 72.809 32.4407H71.534C71.4493 32.4377 71.3649 32.4523 71.2861 32.4834C71.2073 32.5146 71.1357 32.5618 71.0759 32.6218C71.0161 32.6819 70.9694 32.7536 70.9386 32.8325C70.9078 32.9115 70.8936 32.9961 70.897 33.0808V40.6807C70.9614 41.7971 70.5884 42.8948 69.857 43.7407C69.496 44.1184 69.0578 44.4139 68.5724 44.6072C68.0871 44.8005 67.5658 44.887 67.044 44.8609C64.605 44.8609 63.385 43.4607 63.385 40.6807V33.0808C63.3884 32.9961 63.3742 32.9115 63.3434 32.8325C63.3126 32.7536 63.2658 32.6819 63.2061 32.6218C63.1463 32.5618 63.0747 32.5146 62.9959 32.4834C62.9171 32.4523 62.8327 32.4377 62.748 32.4407H61.472C61.3873 32.4377 61.3029 32.4523 61.2241 32.4834C61.1452 32.5146 61.0737 32.5618 61.0139 32.6218C60.9541 32.6819 60.9074 32.7536 60.8766 32.8325C60.8458 32.9115 60.8317 32.9961 60.835 33.0808V40.8208C60.7538 42.4429 61.2661 44.039 62.276 45.3108C62.7847 45.8805 63.4152 46.3283 64.1207 46.6209C64.8261 46.9134 65.5885 47.0432 66.351 47.0007ZM82.87 47.0007C83.7448 47.0502 84.6186 46.8857 85.4155 46.5215C86.2125 46.1573 86.9087 45.6044 87.444 44.9107V46.0908C87.4404 46.1731 87.4532 46.2553 87.4818 46.3325C87.5103 46.4098 87.5538 46.4806 87.61 46.5408C87.6667 46.6009 87.7358 46.6482 87.8124 46.6792C87.889 46.7103 87.9714 46.7243 88.054 46.7207H89.246C89.3304 46.7234 89.4145 46.7089 89.4931 46.678C89.5717 46.647 89.6431 46.6003 89.703 46.5408C89.7627 46.4824 89.8095 46.4122 89.8405 46.3347C89.8714 46.2572 89.8859 46.1742 89.883 46.0908V27.8609C89.8853 27.7775 89.8705 27.6946 89.8395 27.6172C89.8086 27.5398 89.7621 27.4694 89.703 27.4107C89.6431 27.3511 89.5717 27.3044 89.4931 27.2735C89.4145 27.2425 89.3304 27.228 89.246 27.2307H88C87.9156 27.228 87.8315 27.2425 87.7529 27.2735C87.6743 27.3044 87.6029 27.3511 87.543 27.4107C87.4839 27.4694 87.4374 27.5398 87.4065 27.6172C87.3755 27.6946 87.3607 27.7775 87.363 27.8609V34.2007C86.8284 33.5312 86.1425 32.9982 85.3618 32.6453C84.5811 32.2924 83.7278 32.1296 82.872 32.1707C82.0496 32.1162 81.226 32.2583 80.4694 32.5852C79.7128 32.9121 79.045 33.4146 78.521 34.0508C77.5057 35.4122 76.9521 37.0625 76.941 38.7608L76.913 39.5808L76.941 40.4107C76.9456 42.1108 77.4945 43.7649 78.507 45.1306C79.0327 45.7679 79.7032 46.2702 80.4625 46.5955C81.2219 46.9208 82.048 47.0598 82.872 47.0007H82.87ZM83.397 44.8609C80.773 44.8609 79.461 43.1008 79.461 39.5808L79.489 38.7908C79.486 37.6344 79.8347 36.5043 80.489 35.5508C80.8354 35.1216 81.2819 34.7839 81.7893 34.5676C82.2967 34.3514 82.8495 34.2633 83.399 34.3108C83.9435 34.2785 84.4882 34.3715 84.991 34.583C85.4938 34.7946 85.9414 35.1189 86.299 35.5308C86.9736 36.3483 87.3499 37.3709 87.366 38.4307C87.384 38.6307 87.394 38.9907 87.394 39.5007C87.394 40.0107 87.384 40.3408 87.366 40.5408C87.3382 41.6387 86.9702 42.7009 86.313 43.5808C85.967 44.0132 85.5216 44.3552 85.0147 44.5781C84.5078 44.801 83.9545 44.8982 83.402 44.8609H83.397ZM94.484 29.7507H96.12C96.2924 29.7533 96.4599 29.6929 96.591 29.5808C96.6545 29.5226 96.7046 29.4512 96.7381 29.3718C96.7716 29.2925 96.7876 29.207 96.785 29.1209V27.6907C96.7859 27.6048 96.7692 27.5198 96.7358 27.4407C96.7024 27.3616 96.6531 27.29 96.591 27.2307C96.5297 27.1684 96.4563 27.1194 96.3752 27.0867C96.2942 27.054 96.2073 27.0385 96.12 27.0408H94.484C94.3986 27.0375 94.3135 27.0527 94.2346 27.0855C94.1557 27.1183 94.0848 27.1679 94.027 27.2307C93.9084 27.3542 93.8437 27.5196 93.847 27.6907V29.1209C93.8435 29.2058 93.8577 29.2905 93.8887 29.3696C93.9197 29.4488 93.9668 29.5208 94.027 29.5808C94.1516 29.6944 94.3154 29.7552 94.484 29.7507ZM94.706 46.7207H95.926C96.0104 46.7233 96.0945 46.7087 96.173 46.6777C96.2516 46.6468 96.323 46.6002 96.383 46.5408C96.4426 46.4824 96.4895 46.4122 96.5204 46.3347C96.5514 46.2572 96.5659 46.1742 96.563 46.0908V33.0808C96.5663 32.9961 96.5522 32.9115 96.5214 32.8325C96.4906 32.7536 96.4439 32.6819 96.3841 32.6218C96.3243 32.5618 96.2528 32.5146 96.174 32.4834C96.0951 32.4523 96.0107 32.4377 95.926 32.4407H94.7C94.6153 32.4379 94.5309 32.4527 94.4521 32.4839C94.3733 32.5151 94.3018 32.5621 94.2419 32.6221C94.1821 32.6821 94.1353 32.7539 94.1043 32.8328C94.0734 32.9117 94.0589 32.9961 94.062 33.0808V46.0908C94.0587 46.1744 94.0731 46.2577 94.1043 46.3352C94.1355 46.4128 94.1827 46.4828 94.243 46.5408C94.3028 46.6004 94.3743 46.647 94.4529 46.678C94.5315 46.7089 94.6156 46.7235 94.7 46.7207H94.706ZM106.573 47.0007C107.43 47.055 108.288 46.9322 109.095 46.6397C109.902 46.3472 110.64 45.8913 111.263 45.3008C112.404 44.0653 113.033 42.4425 113.023 40.7608C113.063 40.3687 113.083 39.9749 113.083 39.5808C113.083 39.2008 113.063 38.8107 113.023 38.4007C113.029 36.7189 112.392 35.0986 111.243 33.8709C109.935 32.7727 108.281 32.1707 106.573 32.1707C104.865 32.1707 103.211 32.7727 101.903 33.8709C100.746 35.0947 100.104 36.7166 100.111 38.4007L100.083 39.5808L100.111 40.7608C100.102 42.4426 100.732 44.0653 101.873 45.3008C102.497 45.8922 103.237 46.3484 104.046 46.6409C104.854 46.9334 105.715 47.0559 106.573 47.0007ZM106.573 44.9407C106.051 44.9663 105.53 44.8806 105.044 44.6892C104.557 44.4978 104.117 44.2053 103.753 43.8308C103.008 42.9327 102.611 41.797 102.633 40.6306L102.603 39.5808L102.633 38.5408C102.609 37.3741 103.007 36.238 103.753 35.3408C104.517 34.6275 105.523 34.2305 106.568 34.2305C107.613 34.2305 108.619 34.6275 109.383 35.3408C110.133 36.2358 110.531 37.3734 110.503 38.5408C110.523 38.7208 110.533 39.0708 110.533 39.5808C110.533 40.0908 110.523 40.4406 110.503 40.6306C110.53 41.7978 110.132 42.9351 109.383 43.8308C109.021 44.2051 108.582 44.4978 108.098 44.6892C107.613 44.8806 107.093 44.9663 106.573 44.9407ZM22.265 0.0107572C18.445 0.0107572 17.349 3.41066 14.247 3.41066C11.382 3.41066 10.303 0.0107572 6.38098 0.0107572H6.35999C5.52937 0.00614819 4.70598 0.165165 3.93683 0.478775C3.16768 0.792385 2.46784 1.25456 1.87726 1.83864C1.28668 2.42272 0.816915 3.1172 0.494812 3.88283C0.172709 4.64846 0.00458357 5.47018 0 6.3008C0 10.0908 3.43201 11.0308 3.43201 14.1008C3.43201 17.1708 0 18.2608 0 22.0508C0 23.736 0.669417 25.3521 1.86102 26.5437C3.05263 27.7353 4.66882 28.4048 6.354 28.4048C8.03919 28.4048 9.65538 27.7353 10.847 26.5437C12.0386 25.3521 12.708 23.736 12.708 22.0508C12.708 18.2608 9.27502 17.1808 9.27502 14.1008C9.33562 12.8095 9.8802 11.5882 10.8004 10.6802C11.7206 9.77221 12.949 9.24401 14.241 9.2007C17.341 9.2007 18.441 12.6008 22.259 12.6008C23.1067 12.6348 23.9527 12.4972 24.746 12.1963C25.5393 11.8954 26.2636 11.4371 26.8755 10.8494C27.4874 10.2616 27.9743 9.55641 28.307 8.77589C28.6397 7.99538 28.8113 7.15584 28.8115 6.30739C28.8117 5.45893 28.6405 4.61907 28.3082 3.83839C27.9759 3.05772 27.4893 2.3522 26.8777 1.76418C26.266 1.17615 25.5419 0.717832 24.7488 0.416519C23.9556 0.115206 23.1098 -0.0228367 22.262 0.0107572H22.265Z" fill="#162339"></path></svg>