<svg xmlns="http://www.w3.org/2000/svg" width="435" height="293" viewBox="0 0 435 293" fill="none"><path d="M274.234 200.565C278.636 204.956 283.732 208.41 289.324 210.813C294.916 213.217 301.016 214.545 307.163 214.695C313.321 214.857 319.49 213.829 325.198 211.715C328.052 210.652 330.801 209.334 333.401 207.752C336.001 206.169 338.461 204.343 340.749 202.275C341.893 201.235 343.002 200.138 344.042 198.994C345.082 197.85 346.064 196.671 346.988 195.447C348.837 193.009 350.431 190.409 351.771 187.682C354.452 182.229 356.081 176.221 356.543 170.086C357.005 163.951 356.3 157.723 354.475 151.9C353.562 148.988 352.372 146.169 350.928 143.489C349.484 140.808 347.785 138.278 345.844 135.898C344.874 134.708 343.834 133.564 342.748 132.455L342.551 132.247L160.766 -49.5419C156.364 -53.9324 151.268 -57.387 145.676 -59.7902C140.084 -62.1935 133.984 -63.5221 127.837 -63.6723C121.679 -63.8341 115.51 -62.8058 109.802 -60.6914C106.948 -59.6285 104.199 -58.3113 101.599 -56.7285C98.9994 -55.1456 96.5385 -53.3201 94.2509 -51.2519C93.107 -50.2121 91.9979 -49.1144 90.9581 -47.9706C89.9182 -46.8268 88.9362 -45.6483 88.0119 -44.4236C86.1633 -41.9857 84.5688 -39.3861 83.2286 -36.6593C80.5482 -31.2059 78.9191 -25.1979 78.4569 -19.0628C77.9948 -12.9277 78.6996 -6.70013 80.5251 -0.876968C81.4378 2.03461 82.6278 4.85376 84.072 7.53426C85.5163 10.2148 87.2147 12.745 89.1557 15.1252C90.1262 16.3152 91.166 17.459 92.2521 18.5682L92.4485 18.7762L274.234 200.565L273.114 201.686L91.3278 19.8969L91.1198 19.6774C89.9875 18.5336 88.9246 17.3551 87.9194 16.1304C85.9206 13.6694 84.1645 11.0466 82.674 8.28525C81.1836 5.52386 79.9589 2.6123 79.0115 -0.403259C77.1283 -6.42284 76.3888 -12.8468 76.8741 -19.1783C77.3478 -25.5098 79.0346 -31.7143 81.8075 -37.3526C83.194 -40.1717 84.8461 -42.8522 86.7525 -45.371C87.6999 -46.6304 88.7166 -47.8551 89.8027 -49.022C90.8772 -50.2005 92.021 -51.3444 93.1995 -52.4073C97.9249 -56.6822 103.355 -59.9751 109.271 -62.1588C115.175 -64.3425 121.552 -65.4054 127.895 -65.2437C134.25 -65.0935 140.547 -63.707 146.323 -61.2345C152.112 -58.7504 157.369 -55.1802 161.909 -50.6511L343.695 131.138L343.903 131.357C345.036 132.501 346.099 133.68 347.104 134.904C349.102 137.365 350.859 139.988 352.349 142.749C353.84 145.511 355.064 148.422 356.012 151.438C357.895 157.458 358.634 163.881 358.149 170.213C357.675 176.544 355.988 182.749 353.216 188.387C351.829 191.206 350.177 193.887 348.271 196.406C347.323 197.665 346.306 198.89 345.22 200.057C344.146 201.235 343.002 202.379 341.824 203.442C337.098 207.717 331.668 211.01 325.752 213.193C319.848 215.377 313.471 216.44 307.128 216.278C300.773 216.128 294.477 214.742 288.7 212.269C282.911 209.785 277.654 206.215 273.114 201.686L274.234 200.565Z" fill="#F0F4F9"></path><path d="M271.046 203.754C275.852 208.537 281.421 212.327 287.556 214.961C293.679 217.595 300.346 219.051 307.059 219.213C313.783 219.386 320.53 218.266 326.781 215.955C333.043 213.644 338.797 210.143 343.799 205.626C345.047 204.493 346.26 203.292 347.393 202.044C348.536 200.796 349.611 199.514 350.616 198.173C352.638 195.504 354.383 192.662 355.85 189.67C358.784 183.696 360.564 177.122 361.072 170.421C361.58 163.72 360.806 156.914 358.808 150.548C357.814 147.359 356.508 144.274 354.937 141.351C353.354 138.417 351.494 135.644 349.38 133.044C348.317 131.739 347.185 130.491 345.995 129.289L345.775 129.058L163.989 -52.7308C159.183 -57.5141 153.614 -61.3038 147.479 -63.9381C141.355 -66.5724 134.689 -68.0282 127.976 -68.1899C121.252 -68.3632 114.505 -67.2425 108.254 -64.9317C101.992 -62.6209 96.2381 -59.1201 91.2353 -54.6025C89.9875 -53.4703 88.7744 -52.2687 87.6421 -51.0208C86.4983 -49.773 85.4238 -48.4905 84.4187 -47.1503C82.3968 -44.4813 80.6522 -41.6391 79.1848 -38.6466C76.2502 -32.6733 74.4709 -26.0991 73.9626 -19.3979C73.4542 -12.6966 74.2283 -5.89136 76.2271 0.474838C77.2207 3.66371 78.5263 6.74858 80.0976 9.67171C81.6804 12.6064 83.5406 15.3793 85.6549 17.979C86.7179 19.2845 87.8501 20.5324 89.0402 21.734L89.2597 21.9651L271.046 203.754L269.925 204.875L87.8963 22.8547C86.6716 21.6184 85.5047 20.3244 84.4187 18.9842C82.235 16.3036 80.3171 13.4383 78.688 10.4227C77.059 7.40717 75.7187 4.22984 74.6904 0.948547C72.6339 -5.61406 71.8367 -12.6157 72.3566 -19.5134C72.8765 -26.4111 74.702 -33.1816 77.7406 -39.3399C79.2542 -42.4248 81.0565 -45.3479 83.1362 -48.0977C84.176 -49.4726 85.2852 -50.8013 86.4521 -52.0838C87.619 -53.3663 88.8668 -54.6025 90.1493 -55.7695C95.3023 -60.4141 101.229 -64.019 107.688 -66.4106C114.135 -68.8023 121.079 -69.9461 127.999 -69.7728C134.92 -69.5995 141.783 -68.109 148.091 -65.3939C154.399 -62.6903 160.153 -58.785 165.087 -53.8515L347.104 128.168C348.328 129.405 349.495 130.699 350.581 132.039C352.765 134.719 354.683 137.585 356.312 140.6C357.941 143.616 359.281 146.793 360.31 150.075C362.366 156.637 363.163 163.639 362.643 170.536C362.123 177.434 360.286 184.205 357.259 190.363C355.746 193.448 353.943 196.371 351.864 199.121C350.824 200.496 349.715 201.824 348.548 203.107C347.381 204.389 346.133 205.626 344.851 206.793C339.698 211.437 333.771 215.042 327.312 217.434C320.865 219.825 313.921 220.969 307.001 220.796C300.08 220.623 293.217 219.132 286.909 216.417C280.601 213.713 274.847 209.808 269.913 204.875L271.046 203.754Z" fill="#F0F4F9"></path><path d="M267.845 206.943C273.044 212.13 279.11 216.255 285.765 219.109C292.408 221.963 299.653 223.546 306.931 223.719C314.222 223.904 321.535 222.691 328.329 220.172C335.134 217.665 341.396 213.852 346.815 208.953C348.167 207.728 349.472 206.423 350.708 205.083C351.945 203.731 353.112 202.333 354.209 200.889C356.404 197.989 358.299 194.904 359.894 191.657C363.082 185.164 365.012 178.035 365.566 170.768C366.121 163.5 365.278 156.129 363.106 149.208C362.02 145.742 360.61 142.403 358.9 139.214C357.178 136.025 355.168 133.009 352.869 130.19C351.714 128.781 350.489 127.429 349.206 126.123L167.178 -55.9081C161.979 -61.0958 155.913 -65.2206 149.258 -68.0744C142.615 -70.9282 135.37 -72.5111 128.092 -72.6844C120.801 -72.8692 113.488 -71.6561 106.694 -69.1373C99.8891 -66.6301 93.627 -62.8174 88.2083 -57.9185C86.8565 -56.6938 85.5509 -55.3882 84.3147 -54.048C83.0784 -52.6962 81.9115 -51.2981 80.8139 -49.8539C78.6187 -46.9539 76.7239 -43.869 75.1295 -40.6223C71.9407 -34.1291 69.9996 -27.0003 69.4566 -19.7329C68.902 -12.4655 69.7455 -5.09412 71.9176 1.82666C73.0036 5.29282 74.4132 8.63188 76.1231 11.8208C77.8446 15.0096 79.8549 18.0252 82.1541 20.8443C83.3095 22.2539 84.5342 23.6057 85.8167 24.9113L267.845 206.943L266.725 208.064L84.9386 26.2747L84.696 26.0205C83.3673 24.6802 82.1079 23.2822 80.9294 21.838C78.5609 18.9379 76.4928 15.8415 74.7251 12.5602C72.9574 9.29045 71.5132 5.8474 70.3925 2.2888C68.1626 -4.82838 67.2961 -12.3962 67.8622 -19.8716C68.4283 -27.3354 70.404 -34.6721 73.6968 -41.3387C75.3374 -44.6778 77.29 -47.8551 79.543 -50.8244C80.6637 -52.3149 81.8653 -53.7476 83.1362 -55.134C84.4071 -56.5205 85.7473 -57.8607 87.1338 -59.1086C89.9182 -61.6273 92.9222 -63.8572 96.0995 -65.7867C99.2767 -67.7162 102.639 -69.3453 106.128 -70.6278C113.107 -73.2159 120.628 -74.4637 128.115 -74.2673C135.602 -74.0824 143.042 -72.4648 149.87 -69.5302C156.71 -66.5955 162.949 -62.3552 168.287 -57.0289L350.073 124.76L350.316 125.014C351.644 126.354 352.904 127.752 354.082 129.197C356.451 132.097 358.519 135.193 360.286 138.474C362.054 141.744 363.498 145.187 364.619 148.746C366.849 155.863 367.715 163.431 367.149 170.906C366.583 178.37 364.608 185.707 361.315 192.373C359.674 195.712 357.721 198.89 355.469 201.859C354.348 203.35 353.146 204.782 351.875 206.169C350.604 207.555 349.264 208.895 347.878 210.143C345.093 212.662 342.089 214.892 338.912 216.821C335.735 218.751 332.373 220.38 328.883 221.662C321.905 224.251 314.384 225.498 306.897 225.302C299.41 225.117 291.969 223.5 285.141 220.565C278.301 217.63 272.062 213.39 266.725 208.064L267.845 206.943Z" fill="#F0F4F9"></path><path d="M264.656 210.143C267.452 212.939 270.491 215.447 273.726 217.642C276.961 219.837 280.393 221.72 283.986 223.257C291.161 226.342 298.971 228.04 306.827 228.237C314.684 228.433 322.575 227.127 329.9 224.412C333.563 223.06 337.098 221.35 340.437 219.329C343.776 217.307 346.93 214.95 349.842 212.315C351.298 210.998 352.707 209.589 354.036 208.144C355.365 206.689 356.624 205.187 357.802 203.615C360.159 200.496 362.227 197.157 363.949 193.644C367.392 186.643 369.483 178.936 370.072 171.103C370.673 163.269 369.76 155.32 367.427 147.856C366.26 144.124 364.735 140.508 362.886 137.065C361.037 133.622 358.854 130.364 356.37 127.325C355.133 125.8 353.805 124.344 352.418 122.934L352.164 122.669L170.378 -59.1201C167.582 -61.9161 164.544 -64.4233 161.309 -66.6186C158.074 -68.8138 154.642 -70.6971 151.049 -72.2338C143.874 -75.3187 136.064 -77.0171 128.207 -77.2135C120.351 -77.4099 112.46 -76.1043 105.134 -73.3892C101.472 -72.0373 97.9365 -70.3274 94.5975 -68.3055C91.2585 -66.2835 88.1043 -63.9265 85.1928 -61.2922C83.737 -59.9751 82.3274 -58.5655 80.9988 -57.1213C79.6701 -55.6655 78.4107 -54.1635 77.2323 -52.5922C74.8753 -49.4726 72.8072 -46.1335 71.0857 -42.6212C67.6311 -35.6195 65.5515 -27.9131 64.9622 -20.0795C64.3614 -12.246 65.2742 -4.29692 67.608 3.16689C68.7749 6.8988 70.3 10.5152 72.1486 13.9582C73.9972 17.4013 76.1809 20.6595 78.6649 23.6981C79.9012 25.2233 81.2298 26.679 82.6163 28.0886L82.8705 28.3543L264.656 210.143L263.536 211.264L81.7497 29.4635L81.484 29.1862C80.0629 27.742 78.7111 26.2515 77.4402 24.6918C74.8984 21.5722 72.657 18.2331 70.7622 14.6977C68.8558 11.1737 67.2961 7.46494 66.0945 3.62904C63.6913 -4.03119 62.767 -12.1767 63.3794 -20.2182C63.9802 -28.2481 66.1176 -36.151 69.653 -43.3375C71.4207 -46.9308 73.5351 -50.3623 75.9498 -53.5627C77.1629 -55.1687 78.4454 -56.7169 79.8087 -58.2074C81.1721 -59.6978 82.6047 -61.1305 84.1067 -62.4823C87.0991 -65.1859 90.3342 -67.6007 93.754 -69.6804C97.1739 -71.7601 100.802 -73.5047 104.568 -74.9027C112.09 -77.6872 120.177 -79.0275 128.23 -78.8195C136.283 -78.6231 144.29 -76.8784 151.65 -73.7127C155.335 -72.1298 158.859 -70.2003 162.175 -67.9473C165.491 -65.6943 168.599 -63.1178 171.476 -60.2639L353.262 121.525L353.528 121.802C354.949 123.246 356.3 124.737 357.571 126.297C360.113 129.416 362.355 132.755 364.249 136.291C366.156 139.815 367.715 143.523 368.917 147.359C371.32 155.02 372.245 163.165 371.632 171.207C371.031 179.237 368.894 187.139 365.358 194.326C363.591 197.919 361.476 201.351 359.062 204.551C357.849 206.157 356.566 207.705 355.203 209.196C353.84 210.686 352.407 212.119 350.905 213.471C347.912 216.174 344.677 218.589 341.257 220.669C337.838 222.749 334.21 224.493 330.443 225.891C322.922 228.676 314.834 230.016 306.781 229.808C298.728 229.612 290.722 227.867 283.362 224.701C279.676 223.118 276.152 221.189 272.836 218.936C269.521 216.683 266.413 214.106 263.536 211.252L264.656 210.143Z" fill="#F0F4F9"></path><path d="M261.468 213.332C264.46 216.325 267.718 219.017 271.196 221.374C274.673 223.731 278.359 225.753 282.218 227.405C289.924 230.721 298.289 232.535 306.723 232.743C315.146 232.962 323.603 231.564 331.471 228.641C335.411 227.185 339.201 225.36 342.783 223.176C346.364 221.004 349.749 218.474 352.881 215.654C354.44 214.245 355.942 212.743 357.375 211.183C358.796 209.623 360.148 208.006 361.419 206.33C363.949 202.98 366.167 199.398 368.016 195.632C371.725 188.11 373.954 179.849 374.59 171.449C375.225 163.05 374.255 154.523 371.748 146.516C370.488 142.507 368.859 138.625 366.872 134.939C364.885 131.242 362.539 127.752 359.882 124.483C358.553 122.854 357.132 121.282 355.653 119.78L355.376 119.491L173.59 -62.2974C170.598 -65.2899 167.34 -67.9819 163.862 -70.3389C160.384 -72.6959 156.699 -74.7178 152.84 -76.3701C145.133 -79.686 136.768 -81.5 128.334 -81.708C119.912 -81.9275 111.454 -80.5295 103.586 -77.6063C99.6465 -76.1505 95.8568 -74.325 92.2752 -72.1413C88.6935 -69.9692 85.3083 -67.4389 82.1772 -64.6198C80.6175 -63.2102 79.1155 -61.7082 77.6829 -60.1484C76.2617 -58.5886 74.91 -56.9711 73.6391 -55.2958C71.1088 -51.9451 68.8905 -48.3634 67.0419 -44.5969C63.3332 -37.0753 61.1033 -28.8143 60.4678 -20.4146C59.8324 -12.0149 60.8029 -3.48814 63.31 4.51869C64.5694 8.52789 66.1985 12.41 68.1857 16.0957C70.1729 19.793 72.5184 23.2822 75.1757 26.552C76.5044 28.1811 77.9255 29.7524 79.4044 31.2544L79.6816 31.5432L261.468 213.332L260.347 214.453L78.5609 32.664L78.2836 32.3751C76.7586 30.8385 75.3143 29.2325 73.951 27.5687C71.2243 24.2296 68.8327 20.6479 66.7877 16.8698C64.7543 13.0917 63.079 9.11714 61.7965 5.01552C59.22 -3.18774 58.2264 -11.9225 58.885 -20.5186C59.532 -29.1147 61.8196 -37.5721 65.6092 -45.2786C67.504 -49.1376 69.7686 -52.8001 72.3566 -56.2316C73.6506 -57.9532 75.0371 -59.6054 76.4928 -61.1998C77.9486 -62.7942 79.4852 -64.3309 81.0912 -65.7751C84.2916 -68.6636 87.7577 -71.2517 91.4318 -73.4816C95.1058 -75.7115 98.9879 -77.5832 103.02 -79.0737C111.085 -82.0546 119.738 -83.4873 128.357 -83.2677C136.976 -83.0598 145.549 -81.188 153.44 -77.8027C157.392 -76.1043 161.17 -74.0362 164.728 -71.6214C168.287 -69.2066 171.614 -66.4453 174.676 -63.395L356.462 118.394L356.739 118.683C358.265 120.219 359.709 121.825 361.072 123.489C363.799 126.828 366.19 130.41 368.235 134.188C370.269 137.966 371.944 141.941 373.227 146.042C375.803 154.245 376.797 162.98 376.138 171.576C375.491 180.172 373.203 188.63 369.414 196.336C367.519 200.195 365.255 203.858 362.667 207.289C361.372 209.011 359.986 210.663 358.53 212.258C357.074 213.852 355.538 215.389 353.932 216.833C350.732 219.721 347.265 222.309 343.591 224.539C339.917 226.769 336.035 228.641 332.003 230.131C323.938 233.112 315.285 234.545 306.666 234.326C298.047 234.118 289.474 232.246 281.583 228.861C277.631 227.162 273.853 225.094 270.295 222.679C266.736 220.264 263.409 217.503 260.347 214.453L261.468 213.332Z" fill="#F0F4F9"></path><path d="M258.279 216.521C261.468 219.71 264.945 222.587 268.654 225.105C272.363 227.624 276.314 229.785 280.427 231.553C288.665 235.088 297.596 237.041 306.596 237.26C315.585 237.491 324.62 236.001 333.031 232.881C337.237 231.321 341.292 229.369 345.116 227.047C348.952 224.724 352.557 222.032 355.896 219.005C357.56 217.491 359.166 215.897 360.691 214.233C362.216 212.57 363.649 210.848 365 209.057C367.704 205.475 370.072 201.651 372.048 197.619C376.011 189.577 378.391 180.75 379.061 171.784C379.743 162.819 378.715 153.714 376.023 145.153C374.682 140.866 372.938 136.718 370.812 132.778C368.686 128.839 366.179 125.095 363.337 121.606C361.915 119.861 360.402 118.197 358.819 116.591L358.53 116.291L176.744 -65.4979C173.544 -68.6867 170.078 -71.5636 166.369 -74.0824C162.66 -76.6011 158.709 -78.7617 154.596 -80.5295C146.358 -84.0649 137.427 -86.0176 128.427 -86.2371C119.438 -86.4682 110.403 -84.9777 101.992 -81.8582C97.7863 -80.2984 93.731 -78.3458 89.9067 -76.0234C86.0708 -73.7011 82.4661 -71.0091 79.1271 -67.9819C77.4633 -66.4684 75.8574 -64.8739 74.3323 -63.2102C72.8072 -61.5464 71.3745 -59.8249 70.0228 -58.034C67.3192 -54.4523 64.9507 -50.628 62.975 -46.5957C59.0121 -38.5542 56.632 -29.727 55.9619 -20.7612C55.2802 -11.7954 56.3201 -2.69092 59.0005 5.8705C60.3407 10.157 62.0854 14.3048 64.2112 18.2447C66.3371 22.1846 68.8443 25.9281 71.6865 29.4173C73.1076 31.162 74.6211 32.8257 76.204 34.4317L76.4928 34.7321L258.279 216.521L257.158 217.642L75.3721 35.8528L75.0717 35.5409C73.4542 33.9002 71.906 32.1903 70.4502 30.411C67.5502 26.8524 64.9853 23.028 62.8132 18.9957C60.6411 14.9634 58.8503 10.7231 57.487 6.34422C54.7372 -2.41362 53.6858 -11.7145 54.379 -20.8767C55.0723 -30.039 57.5101 -39.0626 61.5539 -47.2889C63.5642 -51.4137 65.979 -55.3304 68.7518 -58.993C70.1383 -60.8185 71.6056 -62.5863 73.1654 -64.2847C74.7135 -65.9831 76.3542 -67.6122 78.0641 -69.1604C81.484 -72.2453 85.1696 -74.9951 89.0864 -77.3753C93.0031 -79.7554 97.1508 -81.7542 101.449 -83.3486C110.045 -86.5375 119.276 -88.0626 128.473 -87.82C137.658 -87.6004 146.797 -85.6016 155.22 -81.9852C159.437 -80.1828 163.469 -77.9645 167.259 -75.388C171.048 -72.8115 174.607 -69.8652 177.865 -66.6186L359.651 115.17L359.951 115.482C361.569 117.123 363.117 118.833 364.573 120.612C367.473 124.171 370.038 127.995 372.21 132.027C374.382 136.06 376.173 140.3 377.536 144.679C380.286 153.437 381.337 162.738 380.644 171.9C379.951 181.062 377.513 190.086 373.469 198.312C371.447 202.425 369.033 206.342 366.271 210.005C364.885 211.83 363.417 213.598 361.858 215.296C360.298 216.995 358.669 218.624 356.959 220.172C353.539 223.257 349.853 226.007 345.937 228.387C342.02 230.767 337.872 232.766 333.574 234.36C324.978 237.549 315.747 239.074 306.55 238.832C297.365 238.612 288.226 236.613 279.803 232.997C275.586 231.194 271.554 228.976 267.764 226.4C263.975 223.823 260.416 220.888 257.158 217.63L258.279 216.521Z" fill="#F0F4F9"></path><path d="M255.09 219.71C258.487 223.095 262.172 226.157 266.124 228.837C270.075 231.518 274.269 233.817 278.66 235.7C287.429 239.467 296.926 241.535 306.492 241.766C316.047 242.009 325.648 240.426 334.603 237.11C339.074 235.458 343.395 233.367 347.473 230.894C351.552 228.421 355.388 225.556 358.946 222.344C362.493 219.132 365.74 215.585 368.617 211.772C371.494 207.96 374.012 203.881 376.115 199.606C380.332 191.045 382.862 181.663 383.579 172.131C384.307 162.599 383.209 152.928 380.355 143.812C378.934 139.26 377.074 134.847 374.809 130.641C372.545 126.447 369.876 122.461 366.861 118.764C365.347 116.915 363.741 115.136 362.066 113.437L361.754 113.114L361.396 112.744L179.968 -68.6867C176.571 -72.072 172.885 -75.1338 168.934 -77.8143C164.983 -80.4948 160.789 -82.794 156.398 -84.6773C147.629 -88.4439 138.132 -90.512 128.565 -90.7431C119.01 -90.9857 109.409 -89.4028 100.455 -86.0869C95.9839 -84.4347 91.6628 -82.3434 87.5844 -79.8709C83.5059 -77.3984 79.6701 -74.533 76.1116 -71.321C72.5646 -68.109 69.318 -64.562 66.4411 -60.7492C63.5642 -56.9364 61.0455 -52.8579 58.9427 -48.583C54.7256 -40.0215 52.1954 -30.6398 51.4791 -21.1078C50.7512 -11.5759 51.8488 -1.90524 54.7025 7.21077C56.1236 11.763 57.9838 16.1766 60.2483 20.3822C62.5128 24.5762 65.1817 28.5623 68.1973 32.2596C69.7108 34.1082 71.3168 35.8875 72.9921 37.5859L73.304 37.9094L73.6622 38.2792L255.09 219.71L253.969 220.831L71.8482 38.7066C70.1267 36.9736 68.4861 35.1596 66.9495 33.2648C63.8646 29.4866 61.1379 25.4197 58.8272 21.1332C56.5165 16.8467 54.6217 12.3407 53.1659 7.68446C50.2544 -1.61641 49.1337 -11.495 49.8731 -21.2234C50.601 -30.9517 53.2006 -40.5415 57.4985 -49.2762C59.6475 -53.6436 62.2124 -57.8145 65.1471 -61.6966C68.0817 -65.5787 71.3976 -69.2066 75.0255 -72.488C78.6534 -75.7577 82.5701 -78.6924 86.741 -81.2111C90.9003 -83.7414 95.3138 -85.8674 99.8775 -87.5542C109.016 -90.9395 118.814 -92.5571 128.577 -92.3029C138.34 -92.0602 148.045 -89.9574 156.987 -86.11C161.459 -84.192 165.757 -81.835 169.789 -79.0968C173.821 -76.3585 177.588 -73.239 181.054 -69.7843L363.175 112.34C364.896 114.084 366.537 115.887 368.074 117.781C371.158 121.56 373.885 125.627 376.196 129.913C378.507 134.199 380.401 138.706 381.857 143.362C384.769 152.663 385.889 162.541 385.15 172.27C384.422 181.998 381.823 191.588 377.525 200.322C375.376 204.69 372.811 208.861 369.876 212.743C366.941 216.625 363.625 220.253 359.998 223.534C356.37 226.804 352.453 229.739 348.282 232.257C344.123 234.788 339.709 236.914 335.146 238.6C326.007 241.986 316.209 243.603 306.446 243.349C296.683 243.106 286.978 241.004 278.036 237.156C273.564 235.238 269.266 232.881 265.234 230.143C261.202 227.405 257.435 224.285 253.969 220.831L255.09 219.71Z" fill="#F0F4F9"></path><path d="M251.901 222.899C255.494 226.48 259.411 229.727 263.594 232.569C267.776 235.412 272.236 237.849 276.88 239.848C286.181 243.846 296.244 246.03 306.377 246.284C316.498 246.538 326.677 244.863 336.162 241.35C340.911 239.594 345.486 237.387 349.807 234.764C354.128 232.142 358.207 229.103 361.962 225.706C365.717 222.298 369.16 218.543 372.21 214.511C375.26 210.478 377.929 206.146 380.159 201.605C384.63 192.524 387.311 182.576 388.073 172.478C388.836 162.379 387.68 152.131 384.653 142.472C383.14 137.643 381.176 132.963 378.772 128.503C376.369 124.055 373.55 119.827 370.35 115.91C368.744 113.946 367.045 112.062 365.266 110.26L183.134 -71.8756C179.54 -75.4573 175.624 -78.7039 171.441 -81.5462C167.259 -84.3885 162.799 -86.8263 158.154 -88.8251C148.854 -92.8228 138.79 -95.0065 128.658 -95.2607C118.537 -95.5149 108.358 -93.8395 98.8723 -90.3272C94.1238 -88.571 89.5485 -86.3642 85.2274 -83.7414C80.9063 -81.1187 76.8279 -78.08 73.0729 -74.6832C69.318 -71.2748 65.875 -67.5198 62.8248 -63.4875C59.7746 -59.4552 57.1057 -55.1225 54.8758 -50.5818C50.4046 -41.5004 47.7241 -31.5525 46.9616 -21.4544C46.199 -11.3564 47.3544 -1.10805 50.3815 8.55101C51.895 13.3805 53.8591 18.0599 56.2623 22.5197C58.6655 26.9679 61.4846 31.1966 64.6849 35.1134C66.2909 37.0776 67.9893 38.9608 69.7686 40.7632L251.901 222.899L250.78 224.019L70.0805 43.3282L69.3411 42.5772L68.9714 42.2075L68.6363 41.8609C66.8224 40.0238 65.0893 38.1059 63.4487 36.107C60.179 32.1094 57.3021 27.7998 54.8527 23.2591C52.4034 18.7184 50.393 13.9467 48.8564 9.01317C45.7715 -0.830734 44.5815 -11.287 45.3671 -21.5815C46.1412 -31.8761 48.8795 -42.0319 53.4432 -51.2866C55.7193 -55.9197 58.4344 -60.3333 61.5539 -64.4464C64.6618 -68.5596 68.1742 -72.3955 71.9984 -75.8617C75.8343 -79.3279 79.982 -82.4243 84.3956 -85.1048C88.8091 -87.7853 93.4768 -90.0383 98.3062 -91.8292C107.988 -95.4109 118.352 -97.1208 128.681 -96.8551C139.01 -96.6009 149.281 -94.371 158.755 -90.2925C163.492 -88.259 168.044 -85.7749 172.308 -82.8749C176.571 -79.9749 180.569 -76.6705 184.231 -73.0194L366.029 108.781L366.364 109.128C368.178 110.965 369.911 112.883 371.551 114.881C374.821 118.879 377.698 123.189 380.147 127.729C382.597 132.27 384.607 137.042 386.144 141.975C389.228 151.819 390.418 162.275 389.633 172.57C388.859 182.864 386.121 193.02 381.557 202.275C379.281 206.908 376.566 211.322 373.446 215.435C370.338 219.548 366.826 223.384 363.002 226.85C359.166 230.316 355.018 233.413 350.604 236.093C346.191 238.774 341.523 241.027 336.694 242.818C327.012 246.399 316.648 248.109 306.319 247.844C295.99 247.589 285.719 245.359 276.245 241.281C271.508 239.247 266.956 236.763 262.692 233.863C258.429 230.963 254.431 227.659 250.769 224.008L251.901 222.899Z" fill="#F0F4F9"></path><path d="M248.701 226.088C252.49 229.866 256.627 233.297 261.052 236.301C265.477 239.305 270.179 241.882 275.101 243.996C284.922 248.213 295.563 250.536 306.261 250.79C316.96 251.067 327.693 249.288 337.722 245.579C342.736 243.73 347.577 241.385 352.141 238.612C356.716 235.839 361.014 232.627 364.989 229.045C368.952 225.452 372.58 221.489 375.803 217.226C379.027 212.962 381.846 208.387 384.203 203.592C388.928 194.002 391.759 183.488 392.568 172.824C393.376 162.16 392.152 151.334 388.951 141.132C387.357 136.025 385.266 131.08 382.735 126.378C380.205 121.675 377.213 117.215 373.827 113.067C372.141 110.999 370.338 109.012 368.466 107.106L368.12 106.747L186.322 -75.0529C182.533 -78.831 178.396 -82.2625 173.971 -85.2666C169.546 -88.2706 164.844 -90.8471 159.922 -92.9614C150.101 -97.1786 139.461 -99.5009 128.762 -99.7551C118.063 -100.032 107.33 -98.2531 97.301 -94.5443C92.2867 -92.6957 87.4457 -90.3503 82.882 -87.5773C78.3068 -84.8044 74.0088 -81.5924 70.0343 -78.0107C66.0714 -74.4174 62.4435 -70.4545 59.22 -66.1911C55.9966 -61.9277 53.1775 -57.3524 50.8205 -52.5575C46.095 -42.9678 43.2644 -32.4537 42.4556 -21.7895C41.6469 -11.1253 42.8716 -0.299255 46.0719 9.90283C47.6663 15.0096 49.7576 19.9547 52.2878 24.6571C54.8181 29.3596 57.8105 33.8194 61.1957 37.9672C62.8826 40.0354 64.6849 42.0226 66.5566 43.929L66.9033 44.2872L248.701 226.088L247.58 227.208L65.7825 45.4079L65.4244 45.0382C63.5065 43.0971 61.681 41.0752 59.9595 38.9608C56.5165 34.7437 53.4663 30.1914 50.8898 25.3966C48.3018 20.6017 46.1759 15.5642 44.5584 10.365C41.3002 -0.0335388 40.0524 -11.0559 40.8728 -21.9166C41.6931 -32.7772 44.5815 -43.4877 49.3878 -53.2623C51.791 -58.1496 54.6563 -62.8058 57.9491 -67.1501C61.2304 -71.4943 64.9276 -75.5266 68.9714 -79.1892C73.0152 -82.8402 77.394 -86.11 82.0502 -88.9407C86.7063 -91.7714 91.6282 -94.1515 96.7465 -96.0348C106.96 -99.8129 117.901 -101.627 128.796 -101.35C139.692 -101.084 150.529 -98.7268 160.534 -94.4288C165.537 -92.2798 170.344 -89.657 174.85 -86.5952C179.355 -83.5335 183.573 -80.0442 187.431 -76.1967L369.229 105.604L369.587 105.973C371.505 107.914 373.331 109.936 375.052 112.051C378.495 116.268 381.545 120.82 384.122 125.615C386.71 130.41 388.836 135.447 390.453 140.647C393.711 151.045 394.959 162.067 394.139 172.928C393.318 183.789 390.43 194.499 385.624 204.274C383.221 209.161 380.355 213.817 377.062 218.162C373.781 222.506 370.084 226.538 366.04 230.201C361.996 233.852 357.618 237.122 352.961 239.952C348.305 242.783 343.383 245.163 338.265 247.046C328.052 250.824 317.11 252.638 306.215 252.361C295.32 252.095 284.483 249.738 274.477 245.44C269.474 243.291 264.668 240.669 260.162 237.607C255.656 234.545 251.439 231.056 247.58 227.208L248.701 226.088Z" fill="#F0F4F9"></path><path d="M245.512 229.276C249.498 233.251 253.854 236.867 258.51 240.033C263.166 243.199 268.134 245.914 273.31 248.132C283.662 252.581 294.869 255.018 306.134 255.296C317.399 255.585 328.71 253.713 339.282 249.808C344.562 247.855 349.657 245.394 354.475 242.471C359.293 239.548 363.822 236.163 368.004 232.384C372.175 228.606 375.999 224.435 379.396 219.941C382.793 215.446 385.762 210.628 388.246 205.568C393.226 195.458 396.207 184.378 397.062 173.148C397.917 161.917 396.623 150.525 393.249 139.768C391.562 134.396 389.367 129.174 386.698 124.217C384.029 119.26 380.875 114.558 377.317 110.191C375.537 108.007 373.643 105.916 371.667 103.917L371.297 103.535L189.5 -78.2649C185.514 -82.2394 181.158 -85.8558 176.502 -89.0216C171.846 -92.1873 166.877 -94.9025 161.701 -97.1208C151.349 -101.569 140.142 -104.007 128.877 -104.284C117.612 -104.573 106.301 -102.701 95.7297 -98.7962C90.4497 -96.8435 85.3545 -94.3826 80.5366 -91.4594C75.7187 -88.5363 71.1897 -85.151 67.0072 -81.3729C62.8363 -77.5948 59.0121 -73.4238 55.6153 -68.9294C52.2185 -64.4349 49.2492 -59.6169 46.7651 -54.5563C41.7855 -44.4467 38.8046 -33.3665 37.9497 -22.1361C37.0947 -10.9057 38.3887 0.486374 41.7624 11.243C43.4492 16.6156 45.6444 21.838 48.3133 26.7946C50.9822 31.7512 54.1364 36.4536 57.6949 40.821C59.4742 43.0047 61.369 45.0959 63.3447 47.0948L63.7144 47.476L245.512 229.276L244.391 230.397L62.5937 48.5968L62.224 48.2155C60.2137 46.182 58.2842 44.0445 56.4703 41.8262C52.8424 37.3895 49.642 32.5946 46.9153 27.5456C44.1887 22.4965 41.9588 17.1933 40.2488 11.7168C36.8174 0.775223 35.5003 -10.8249 36.3784 -22.2517C37.2333 -33.6785 40.2835 -44.955 45.344 -55.2496C47.8743 -60.4026 50.8898 -65.3014 54.3559 -69.8768C57.8105 -74.4521 61.7041 -78.6924 65.9443 -82.5398C70.1961 -86.3873 74.8175 -89.8303 79.7163 -92.7997C84.6151 -95.7806 89.8027 -98.2762 95.1867 -100.263C105.943 -104.25 117.462 -106.144 128.924 -105.856C140.385 -105.578 151.788 -103.094 162.325 -98.5651C167.594 -96.3005 172.654 -93.5391 177.391 -90.3156C182.14 -87.0921 186.565 -83.4179 190.62 -79.3741L372.418 102.426L372.788 102.808C374.798 104.841 376.727 106.979 378.541 109.197C382.169 113.634 385.37 118.428 388.096 123.477C390.823 128.527 393.053 133.83 394.763 139.306C398.194 150.248 399.511 161.848 398.633 173.275C397.778 184.702 394.728 195.978 389.668 206.273C387.137 211.426 384.122 216.325 380.656 220.9C377.201 225.475 373.307 229.716 369.067 233.563C364.815 237.41 360.194 240.853 355.295 243.823C350.396 246.804 345.209 249.299 339.825 251.287C329.068 255.273 317.549 257.168 306.088 256.879C294.627 256.601 283.223 254.117 272.686 249.588C267.418 247.324 262.369 244.562 257.62 241.339C252.872 238.115 248.447 234.441 244.391 230.397L245.512 229.276Z" fill="#F0F4F9"></path><path d="M242.323 232.477C246.506 236.648 251.081 240.449 255.98 243.777C260.878 247.104 266.101 249.958 271.542 252.292C276.984 254.626 282.646 256.44 288.434 257.699C294.222 258.958 300.115 259.663 306.03 259.813C317.861 260.114 329.75 258.161 340.853 254.048C346.41 251.991 351.76 249.403 356.82 246.33C361.881 243.257 366.652 239.698 371.031 235.735C375.41 231.761 379.419 227.382 382.989 222.668C386.56 217.942 389.679 212.882 392.29 207.567C397.524 196.937 400.655 185.302 401.545 173.494C402.446 161.698 401.083 149.728 397.547 138.428C395.779 132.778 393.469 127.29 390.661 122.079C387.854 116.869 384.538 111.924 380.794 107.337C378.923 105.049 376.935 102.842 374.867 100.739L192.677 -81.4538C188.494 -85.6247 183.919 -89.426 179.02 -92.7535C174.122 -96.081 168.899 -98.9348 163.458 -101.269C158.016 -103.603 152.354 -105.417 146.566 -106.676C140.778 -107.935 134.885 -108.64 128.97 -108.79C117.139 -109.091 105.25 -107.138 94.1469 -103.025C88.5896 -100.968 83.2402 -98.3802 78.1797 -95.3069C73.1191 -92.2335 68.3475 -88.675 63.9686 -84.712C59.5897 -80.7374 55.5806 -76.3585 52.0105 -71.6445C48.4404 -66.919 45.3209 -61.8584 42.7098 -56.5436C37.476 -45.914 34.3334 -34.2793 33.4553 -22.4712C32.5541 -10.6747 33.9174 1.29515 37.4529 12.5948C39.2206 18.2447 41.5313 23.7213 44.3389 28.9436C47.1464 34.1544 50.4623 39.0995 54.2057 43.6864C56.0774 45.974 58.0647 48.1808 60.1328 50.2836L242.323 232.477L241.202 233.598L59.4164 51.7972L59.0236 51.3928C56.9093 49.2553 54.8989 47.0255 52.9926 44.6916C49.1914 40.0353 45.8177 35.0094 42.964 29.7062C40.1102 24.4029 37.7533 18.834 35.9624 13.0801C32.3577 1.58401 30.9828 -10.5822 31.8955 -22.5752C32.7967 -34.5681 35.9971 -46.4108 41.3118 -57.2253C43.9692 -62.6325 47.1464 -67.7855 50.7743 -72.5804C54.4021 -77.3868 58.4806 -81.835 62.9403 -85.8674C67.4001 -89.8997 72.2526 -93.516 77.394 -96.6471C82.547 -99.7667 87.9888 -102.401 93.6385 -104.492C104.938 -108.675 117.023 -110.662 129.051 -110.362C135.07 -110.211 141.066 -109.495 146.947 -108.213C152.828 -106.93 158.593 -105.093 164.128 -102.713C169.662 -100.344 174.965 -97.4328 179.956 -94.0475C184.936 -90.6622 189.592 -86.8032 193.844 -82.5629L375.641 99.2374L376.034 99.6418C378.148 101.779 380.159 104.009 382.065 106.343C385.866 110.999 389.24 116.025 392.094 121.328C394.948 126.632 397.305 132.201 399.095 137.954C402.7 149.451 404.075 161.617 403.162 173.61C402.261 185.603 399.061 197.446 393.746 208.248C391.089 213.656 387.911 218.809 384.283 223.604C380.656 228.41 376.577 232.858 372.117 236.891C367.658 240.923 362.805 244.539 357.664 247.67C352.511 250.79 347.069 253.424 341.419 255.515C330.12 259.698 318.035 261.685 306.007 261.385C299.988 261.234 293.991 260.518 288.11 259.236C282.23 257.953 276.464 256.116 270.93 253.736C265.396 251.367 260.093 248.456 255.102 245.071C250.122 241.685 245.466 237.826 241.214 233.586L242.323 232.477Z" fill="#F0F4F9"></path><path d="M239.134 235.666C243.513 240.045 248.308 244.019 253.449 247.508C258.579 250.998 264.056 253.99 269.763 256.44C275.471 258.889 281.409 260.784 287.475 262.113C293.541 263.43 299.722 264.181 305.926 264.331C318.323 264.643 330.778 262.598 342.424 258.288C348.247 256.139 353.863 253.424 359.177 250.201C364.48 246.977 369.483 243.245 374.082 239.097C378.668 234.938 382.874 230.351 386.617 225.406C390.361 220.461 393.63 215.146 396.369 209.565C401.857 198.416 405.149 186.215 406.074 173.852C407.01 161.49 405.589 148.942 401.88 137.1C400.031 131.172 397.605 125.43 394.659 119.965C391.712 114.5 388.246 109.312 384.318 104.506C382.354 102.103 380.274 99.8036 378.102 97.5968L377.698 97.1809L195.9 -84.6195C191.521 -88.9985 186.727 -92.973 181.585 -96.4623C176.455 -99.9515 170.979 -102.944 165.271 -105.393C159.564 -107.843 153.625 -109.738 147.56 -111.066C141.494 -112.384 135.313 -113.135 129.108 -113.285C116.711 -113.597 104.256 -111.552 92.6102 -107.242C86.7872 -105.093 81.1721 -102.378 75.8574 -99.1543C70.5542 -95.9308 65.5515 -92.1989 60.9531 -88.051C56.3663 -83.8916 52.1607 -79.3048 48.4173 -74.3597C44.6739 -69.4146 41.4042 -64.0998 38.666 -58.5193C33.178 -47.3698 29.8852 -35.1689 28.9609 -22.8062C28.025 -10.4436 29.4461 2.10393 33.1549 13.9467C35.0035 19.8738 37.4297 25.6161 40.3759 31.0811C43.3221 36.5461 46.7882 41.7338 50.7165 46.5402C52.6806 48.9434 54.7603 51.2426 56.9324 53.4494L57.3368 53.8654L239.134 235.666L238.014 236.786L56.2161 54.9861L55.8001 54.5586C53.5934 52.3171 51.4791 49.9832 49.4803 47.5454C45.4942 42.6581 41.9704 37.401 38.9779 31.8436C35.9855 26.2862 33.5246 20.4515 31.6413 14.4319C27.8748 2.39278 26.4191 -10.3512 27.378 -22.9102C28.3254 -35.4693 31.676 -47.8666 37.2449 -59.201C40.0293 -64.8624 43.3568 -70.2696 47.158 -75.2955C50.9591 -80.3215 55.234 -84.9893 59.8902 -89.2064C64.5578 -93.4236 69.6415 -97.2248 75.037 -100.495C80.4326 -103.764 86.1402 -106.526 92.0557 -108.709C103.887 -113.088 116.55 -115.18 129.143 -114.856C135.44 -114.694 141.725 -113.943 147.883 -112.603C154.041 -111.263 160.084 -109.333 165.872 -106.838C171.672 -104.354 177.23 -101.303 182.452 -97.7563C187.674 -94.2093 192.55 -90.177 196.998 -85.7287L378.795 96.0717L379.211 96.4992C381.418 98.7406 383.533 101.075 385.531 103.512C389.517 108.4 393.041 113.657 396.034 119.214C399.026 124.772 401.487 130.606 403.37 136.626C407.137 148.665 408.592 161.409 407.633 173.968C406.686 186.527 403.347 198.924 397.767 210.259C394.982 215.92 391.655 221.327 387.854 226.353C384.052 231.379 379.778 236.047 375.121 240.264C370.454 244.481 365.37 248.283 359.974 251.552C354.579 254.822 348.871 257.583 342.956 259.767C331.125 264.146 318.462 266.237 305.868 265.914C299.572 265.752 293.286 265.001 287.128 263.661C280.97 262.321 274.928 260.391 269.139 257.895C263.339 255.411 257.782 252.361 252.56 248.814C247.337 245.267 242.462 241.235 238.014 236.786L239.134 235.666Z" fill="#F0F4F9"></path><path d="M235.945 238.855C240.521 243.43 245.547 247.589 250.919 251.229C256.292 254.88 262.022 258.011 267.984 260.576C273.957 263.141 280.173 265.128 286.504 266.503C292.847 267.89 299.318 268.664 305.799 268.825C318.762 269.16 331.795 267.011 343.973 262.494C350.061 260.241 355.942 257.399 361.5 254.036C367.057 250.663 372.279 246.758 377.085 242.413C379.489 240.241 381.776 237.953 383.971 235.562C386.155 233.17 388.235 230.674 390.199 228.086C394.116 222.91 397.536 217.353 400.401 211.518C406.143 199.849 409.586 187.093 410.557 174.153C411.539 161.224 410.048 148.11 406.166 135.713C404.225 129.52 401.695 123.501 398.61 117.781C395.525 112.062 391.897 106.643 387.796 101.618C385.739 99.1103 383.567 96.6956 381.291 94.3964L380.864 93.9573L199.066 -87.8431C194.491 -92.4184 189.465 -96.5778 184.092 -100.217C178.72 -103.868 172.989 -106.999 167.028 -109.564C161.054 -112.129 154.838 -114.117 148.507 -115.492C142.164 -116.878 135.694 -117.652 129.212 -117.814C116.249 -118.149 103.217 -116 91.0389 -111.482C84.9501 -109.229 79.0693 -106.387 73.512 -103.025C67.9546 -99.6511 62.7324 -95.7459 57.926 -91.4017C55.5228 -89.2295 53.2352 -86.9419 51.04 -84.5502C48.8564 -82.1586 46.7767 -79.6629 44.8126 -77.0748C40.8959 -71.8987 37.476 -66.3413 34.6106 -60.5066C28.8685 -48.8372 25.4254 -36.0817 24.4549 -23.1413C23.4729 -10.2125 24.9633 2.90117 28.8453 15.2985C30.7864 21.4914 33.3166 27.5109 36.4015 33.2301C39.4863 38.9493 43.1142 44.368 47.2157 49.394C49.2723 51.9012 51.4444 54.3159 53.7205 56.6152L54.148 57.0542L235.945 238.855L234.825 239.975L53.0272 58.1634L52.5998 57.7243C50.289 55.3905 48.0823 52.941 46.0026 50.3876C41.8317 45.2808 38.1461 39.7811 35.015 33.9695C31.884 28.1579 29.3075 22.0459 27.3434 15.7606C23.4036 3.17845 21.89 -10.1432 22.8836 -23.2684C23.8773 -36.3936 27.3665 -49.3571 33.2011 -61.2114C36.1126 -67.1385 39.5903 -72.7768 43.5648 -78.0338C45.552 -80.6681 47.6663 -83.1984 49.8846 -85.6247C52.103 -88.051 54.4368 -90.3734 56.8746 -92.5802C61.7503 -96.9938 67.065 -100.957 72.7032 -104.377C78.3414 -107.797 84.3147 -110.685 90.4959 -112.973C96.6771 -115.26 103.078 -116.959 109.583 -118.033C116.087 -119.108 122.685 -119.57 129.259 -119.397C135.844 -119.235 142.407 -118.449 148.842 -117.04C155.278 -115.642 161.586 -113.62 167.652 -111.02C173.717 -108.421 179.529 -105.232 184.982 -101.523C190.435 -97.8141 195.531 -93.5969 200.187 -88.9522L381.984 92.8481L382.412 93.2872C384.722 95.6211 386.929 98.0705 389.009 100.624C393.18 105.731 396.865 111.23 399.996 117.042C403.128 122.854 405.704 128.966 407.668 135.251C411.608 147.833 413.121 161.155 412.128 174.28C411.134 187.405 407.645 200.369 401.81 212.223C398.899 218.15 395.421 223.788 391.447 229.045C389.46 231.68 387.345 234.21 385.127 236.636C382.909 239.063 380.575 241.385 378.137 243.592C373.261 248.005 367.947 251.968 362.308 255.388C356.67 258.808 350.697 261.697 344.516 263.984C338.334 266.272 331.934 267.97 325.429 269.045C318.924 270.119 312.327 270.582 305.753 270.408C299.167 270.247 292.605 269.461 286.169 268.051C279.734 266.653 273.426 264.631 267.36 262.032C261.294 259.432 255.483 256.243 250.029 252.534C244.576 248.826 239.481 244.608 234.825 239.964L235.945 238.855Z" fill="#F0F4F9"></path><path d="M232.757 242.043C237.528 246.815 242.774 251.159 248.377 254.961C253.992 258.773 259.966 262.043 266.205 264.724C272.444 267.404 278.925 269.472 285.546 270.917C292.166 272.361 298.913 273.17 305.684 273.343C312.454 273.516 319.236 273.043 325.914 271.933C332.592 270.824 339.178 269.091 345.544 266.734C351.91 264.377 358.045 261.419 363.845 257.895C369.645 254.371 375.098 250.305 380.124 245.764C382.631 243.499 385.023 241.108 387.311 238.624C389.598 236.128 391.759 233.528 393.804 230.825C397.894 225.417 401.464 219.617 404.456 213.517C407.449 207.428 409.852 201.05 411.62 194.511C413.399 187.971 414.543 181.27 415.051 174.511C416.079 161.016 414.531 147.325 410.476 134.384C408.454 127.914 405.808 121.629 402.585 115.656C399.361 109.682 395.571 104.021 391.285 98.7753C389.148 96.1526 386.871 93.6338 384.503 91.2422L384.064 90.7916L202.266 -91.0088C197.495 -95.7806 192.249 -100.125 186.634 -103.926C181.019 -107.739 175.046 -111.009 168.807 -113.689C162.568 -116.37 156.086 -118.438 149.466 -119.882C142.846 -121.326 136.098 -122.135 129.328 -122.308C122.557 -122.482 115.775 -122.008 109.097 -120.899C102.419 -119.79 95.8337 -118.056 89.4676 -115.699C83.1015 -113.342 76.9665 -110.385 71.1666 -106.861C65.3666 -103.337 59.9133 -99.2699 54.8874 -94.7292C52.3802 -92.4646 49.9886 -90.073 47.701 -87.5889C45.4134 -85.0932 43.2528 -82.4936 41.2078 -79.79C37.1178 -74.3828 33.5477 -68.5827 30.5553 -62.4823C27.5629 -56.3934 25.1597 -50.0156 23.392 -43.4761C21.6127 -36.9366 20.4689 -30.2354 19.9605 -23.4764C18.9323 -9.98143 20.4805 3.70992 24.5358 16.6503C26.5577 23.1204 29.2035 29.4058 32.427 35.3791C35.6505 41.3525 39.4401 47.0139 43.7265 52.2594C45.864 54.8821 48.14 57.4008 50.5085 59.7925L50.9476 60.2431L232.757 242.043L231.636 243.164L49.8384 61.3638L49.3878 60.9017C46.9847 58.4638 44.6739 55.9104 42.5018 53.253C38.1576 47.9267 34.3102 42.1844 31.0406 36.1186C27.7709 30.0528 25.0904 23.675 23.0338 17.1124C18.9207 3.97565 17.3494 -9.91211 18.3892 -23.6035C18.9092 -30.4549 20.0761 -37.2602 21.8785 -43.8921C23.6808 -50.5356 26.1187 -57.0058 29.1573 -63.1871C32.1959 -69.3684 35.8238 -75.2609 39.9716 -80.749C42.0397 -83.4873 44.2464 -86.1331 46.5687 -88.6634C48.891 -91.1937 51.3057 -93.6085 53.8591 -95.9077C58.9543 -100.506 64.4885 -104.642 70.3809 -108.213C76.2617 -111.783 82.5007 -114.798 88.9593 -117.178C95.4178 -119.57 102.096 -121.338 108.878 -122.459C115.66 -123.579 122.546 -124.053 129.409 -123.88C136.272 -123.706 143.123 -122.886 149.847 -121.419C156.56 -119.951 163.146 -117.849 169.477 -115.133C175.808 -112.418 181.874 -109.091 187.57 -105.232C193.266 -101.361 198.581 -96.9591 203.422 -92.118L385.219 89.6824L385.67 90.1446C388.073 92.5824 390.384 95.1358 392.556 97.7932C396.9 103.12 400.759 108.862 404.017 114.928C407.287 120.993 409.967 127.371 412.024 133.934C416.137 147.071 417.708 160.958 416.668 174.65C416.149 181.501 414.982 188.306 413.179 194.938C411.377 201.582 408.939 208.052 405.9 214.233C402.862 220.415 399.234 226.307 395.086 231.795C393.018 234.533 390.811 237.179 388.489 239.71C386.167 242.24 383.752 244.655 381.199 246.954C376.103 251.552 370.569 255.689 364.677 259.259C358.796 262.829 352.557 265.845 346.099 268.225C339.64 270.616 332.962 272.384 326.18 273.505C319.398 274.625 312.512 275.099 305.649 274.926C298.786 274.753 291.935 273.932 285.21 272.465C278.498 270.997 271.912 268.895 265.581 266.18C259.249 263.464 253.184 260.137 247.488 256.278C241.792 252.407 236.477 248.005 231.636 243.164L232.757 242.043Z" fill="#F0F4F9"></path><path d="M229.568 245.232C234.547 250.201 240.001 254.73 245.847 258.693C251.693 262.667 257.932 266.076 264.425 268.872C270.93 271.656 277.689 273.828 284.587 275.33C291.484 276.832 298.52 277.676 305.568 277.849C312.616 278.022 319.687 277.537 326.654 276.382C333.62 275.226 340.472 273.412 347.104 270.963C353.736 268.513 360.136 265.417 366.179 261.754C372.221 258.08 377.917 253.84 383.14 249.114C385.751 246.746 388.246 244.273 390.626 241.674C393.007 239.074 395.271 236.359 397.397 233.551C401.66 227.913 405.392 221.87 408.5 215.516C411.62 209.161 414.127 202.518 415.975 195.701C417.824 188.884 419.025 181.894 419.557 174.858C420.631 160.797 419.014 146.527 414.785 133.044C412.671 126.297 409.921 119.746 406.559 113.518C403.208 107.291 399.246 101.386 394.786 95.9215C392.556 93.1832 390.187 90.572 387.715 88.0648L387.253 87.5911L205.455 -94.2093C200.476 -99.1774 195.022 -103.707 189.176 -107.67C183.33 -111.644 177.091 -115.052 170.598 -117.849C164.093 -120.633 157.334 -122.805 150.437 -124.307C143.539 -125.809 136.503 -126.653 129.455 -126.837C122.407 -127.011 115.336 -126.525 108.369 -125.37C101.403 -124.215 94.5513 -122.401 87.9194 -119.951C81.2876 -117.502 74.8868 -114.405 68.8443 -110.743C62.8017 -107.069 57.1057 -102.828 51.8834 -98.1029C49.2723 -95.7344 46.7767 -93.2618 44.3966 -90.6622C42.0166 -88.0626 39.752 -85.3474 37.6262 -82.5398C33.3628 -76.9015 29.631 -70.8589 26.5231 -64.5042C23.4036 -58.1496 20.8964 -51.5061 19.0478 -44.6893C17.1992 -37.8725 15.9976 -30.8824 15.4662 -23.8461C14.3917 -9.78502 16.0092 4.48402 20.2378 17.9674C22.3522 24.7149 25.1019 31.2659 28.4641 37.4935C31.8146 43.721 35.7776 49.6251 40.2373 55.0901C42.4672 57.8283 44.8357 60.4395 47.3082 62.9467L47.7703 63.4204L229.568 245.232L228.447 246.353L46.6496 64.5527L46.1875 64.079C43.6803 61.5487 41.2887 58.8913 39.0242 56.1183C34.4951 50.5725 30.486 44.5876 27.0776 38.2676C23.6693 31.9476 20.8733 25.3041 18.7359 18.4642C14.4494 4.78441 12.8088 -9.68103 13.8949 -23.9501C14.4379 -31.0788 15.651 -38.1729 17.5227 -45.0821C19.3944 -51.9914 21.9362 -58.7388 25.1019 -65.1859C28.2677 -71.6214 32.0457 -77.7681 36.3668 -83.4757C38.5273 -86.3295 40.815 -89.0793 43.2297 -91.7136C45.6444 -94.3479 48.1631 -96.8667 50.8205 -99.2583C56.1236 -104.053 61.8889 -108.363 68.0239 -112.083C74.159 -115.803 80.6521 -118.946 87.3764 -121.43C94.1007 -123.914 101.056 -125.763 108.115 -126.93C115.175 -128.097 122.338 -128.594 129.49 -128.42C136.641 -128.235 143.77 -127.38 150.772 -125.855C157.773 -124.33 164.624 -122.135 171.222 -119.304C177.819 -116.474 184.139 -113.007 190.066 -108.987C195.993 -104.954 201.539 -100.367 206.576 -95.33L388.374 86.4704L388.836 86.9441C391.343 89.4744 393.734 92.1318 395.999 94.9047C400.528 100.451 404.537 106.436 407.945 112.755C411.354 119.075 414.15 125.719 416.287 132.559C420.574 146.239 422.214 160.704 421.128 174.973C420.585 182.102 419.372 189.196 417.5 196.105C415.629 203.014 413.087 209.762 409.921 216.209C406.755 222.656 402.977 228.791 398.656 234.499C396.496 237.353 394.208 240.102 391.793 242.737C389.379 245.371 386.86 247.89 384.203 250.281C378.899 255.076 373.134 259.386 366.999 263.106C360.864 266.827 354.371 269.969 347.647 272.453C340.922 274.937 333.967 276.786 326.908 277.953C319.848 279.12 312.685 279.617 305.533 279.443C298.382 279.259 291.253 278.404 284.251 276.878C277.25 275.353 270.399 273.158 263.801 270.327C257.204 267.497 250.884 264.031 244.957 260.01C239.03 255.977 233.485 251.391 228.447 246.353L229.568 245.232Z" fill="#F0F4F9"></path><path d="M226.367 248.421C231.544 253.586 237.216 258.3 243.305 262.425C249.394 266.561 255.876 270.108 262.646 273.008C269.405 275.908 276.453 278.161 283.628 279.721C290.802 281.281 298.127 282.159 305.464 282.343C312.801 282.528 320.149 282.02 327.393 280.818C334.637 279.617 341.777 277.733 348.675 275.18C355.572 272.627 362.239 269.415 368.536 265.59C374.832 261.778 380.748 257.352 386.19 252.442C388.905 249.981 391.493 247.405 393.965 244.701C396.438 241.997 398.795 239.178 401.013 236.243C405.45 230.386 409.332 224.089 412.567 217.48C415.814 210.871 418.425 203.95 420.343 196.856C422.272 189.762 423.52 182.495 424.063 175.181C425.172 160.542 423.497 145.719 419.095 131.681C416.9 124.668 414.034 117.851 410.533 111.369C407.044 104.887 402.92 98.7406 398.275 93.0561C395.953 90.2138 393.492 87.4871 390.927 84.8875L208.644 -97.3981C203.468 -102.563 197.795 -107.277 191.706 -111.401C185.618 -115.538 179.136 -119.085 172.365 -121.985C165.607 -124.885 158.559 -127.138 151.384 -128.698C144.209 -130.257 136.884 -131.135 129.547 -131.32C122.211 -131.505 114.863 -130.997 107.618 -129.795C100.374 -128.594 93.2341 -126.71 86.3366 -124.157C79.439 -121.604 72.7725 -118.392 66.4758 -114.567C60.179 -110.754 54.2635 -106.329 48.8217 -101.419C46.1066 -98.9579 43.5185 -96.3814 41.0461 -93.6778C38.5736 -90.9742 36.2166 -88.155 33.9983 -85.2203C29.5617 -79.3625 25.6796 -73.0656 22.4446 -66.4568C19.198 -59.848 16.5869 -52.9272 14.669 -45.8331C12.7395 -38.7391 11.4917 -31.4716 10.9487 -24.158C9.83951 -9.51926 11.5148 5.30435 15.9168 19.3423C18.112 26.3555 20.9773 33.1723 24.478 39.6541C27.9673 46.1358 32.0919 52.2825 36.7365 57.967C39.0588 60.8092 41.5198 63.5359 44.0847 66.1356L226.367 248.421L225.247 249.542L43.8305 68.1113L43.4608 67.73L42.9755 67.2332C40.3759 64.5989 37.8803 61.8375 35.5234 58.9606C30.821 53.1952 26.6386 46.9677 23.1032 40.3935C19.5562 33.8194 16.6562 26.9101 14.4263 19.8045C9.95504 5.57008 8.25665 -9.4615 9.37736 -24.2967C9.94349 -31.7143 11.2028 -39.0857 13.1554 -46.2722C15.108 -53.4587 17.7422 -60.4719 21.035 -67.1732C24.3279 -73.8744 28.2561 -80.2637 32.7505 -86.2024C34.9919 -89.1718 37.3835 -92.0371 39.8907 -94.7754C42.3978 -97.5137 45.0205 -100.125 47.7703 -102.62C53.2814 -107.6 59.2778 -112.083 65.6554 -115.954C72.0331 -119.824 78.792 -123.082 85.782 -125.67C92.772 -128.259 100.016 -130.177 107.353 -131.39C114.701 -132.603 122.141 -133.123 129.582 -132.938C137.011 -132.753 144.44 -131.863 151.707 -130.28C158.986 -128.698 166.115 -126.41 172.978 -123.475C179.841 -120.529 186.415 -116.936 192.584 -112.742C198.754 -108.559 204.508 -103.776 209.753 -98.542L391.193 82.9118L391.562 83.2931L392.048 83.7899C394.647 86.4242 397.143 89.1856 399.5 92.0625C404.202 97.8279 408.384 104.055 411.92 110.63C415.467 117.204 418.367 124.113 420.597 131.219C425.056 145.453 426.755 160.485 425.634 175.32C425.068 182.737 423.809 190.109 421.856 197.295C419.903 204.482 417.269 211.495 413.976 218.196C410.684 224.898 406.755 231.287 402.261 237.226C400.02 240.195 397.628 243.06 395.121 245.799C392.614 248.537 389.991 251.148 387.241 253.644C381.73 258.623 375.734 263.106 369.356 266.977C362.978 270.847 356.219 274.106 349.229 276.694C342.24 279.282 334.995 281.2 327.659 282.413C320.311 283.626 312.87 284.146 305.429 283.961C298 283.776 290.571 282.886 283.304 281.304C276.025 279.721 268.897 277.433 262.034 274.498C255.182 271.552 248.597 267.959 242.427 263.765C236.257 259.582 230.504 254.799 225.258 249.565L226.367 248.421Z" fill="#F0F4F9"></path><path d="M223.179 251.622C228.551 256.983 234.444 261.882 240.775 266.168C247.095 270.466 253.842 274.152 260.867 277.167C267.891 280.183 275.205 282.517 282.669 284.146C290.121 285.775 297.723 286.688 305.349 286.873C312.962 287.069 320.599 286.538 328.132 285.29C335.654 284.042 343.071 282.089 350.246 279.432C357.421 276.786 364.342 273.435 370.881 269.472C377.421 265.509 383.567 260.911 389.217 255.804C392.036 253.251 394.728 250.57 397.293 247.763C399.858 244.955 402.307 242.02 404.606 238.982C409.216 232.893 413.249 226.342 416.611 219.479C419.984 212.616 422.688 205.418 424.687 198.058C426.686 190.686 427.98 183.142 428.557 175.539C429.713 160.334 427.968 144.933 423.404 130.341C421.128 123.05 418.136 115.967 414.508 109.232C410.88 102.496 406.605 96.1179 401.776 90.2023C399.361 87.2445 396.808 84.4138 394.139 81.7217L393.642 81.2134L211.833 -100.599C206.46 -105.96 200.568 -110.858 194.237 -115.145C187.917 -119.443 181.169 -123.129 174.145 -126.144C167.12 -129.16 159.807 -131.494 152.343 -133.123C144.891 -134.752 137.288 -135.665 129.663 -135.849C122.049 -136.046 114.412 -135.514 106.879 -134.267C99.3576 -133.019 91.9401 -131.066 84.7653 -128.409C77.5904 -125.763 70.6698 -122.412 64.1304 -118.449C57.591 -114.486 51.4444 -109.888 45.7946 -104.781C42.9755 -102.228 40.2835 -99.5472 37.7186 -96.7396C35.1537 -93.932 32.7043 -90.9973 30.4051 -87.9586C25.7952 -81.8697 21.7629 -75.3187 18.4008 -68.4556C15.0387 -61.5926 12.3236 -54.4061 10.3248 -47.0347C8.32597 -39.6634 7.03196 -32.1187 6.45427 -24.5162C5.2989 -9.31131 7.04351 6.09001 11.6188 20.6826C13.8949 27.9731 16.8873 35.0556 20.5151 41.7915C24.143 48.5274 28.4179 54.9052 33.2473 60.8208C35.662 63.7786 38.2154 66.6093 40.8843 69.3013L41.3811 69.8097L223.179 251.622L222.058 252.742L40.2488 70.9189L39.7405 70.399C37.0369 67.6607 34.4489 64.7953 32.0111 61.8029C27.1238 55.8179 22.7912 49.3478 19.1171 42.531C15.4431 35.7026 12.416 28.5277 10.1052 21.1447C7.7945 13.7618 6.18854 6.15935 5.32201 -1.51242C4.44393 -9.1842 4.30528 -16.9369 4.88297 -24.6433C5.46065 -32.3382 6.77777 -39.9984 8.79967 -47.4622C10.8216 -54.926 13.5714 -62.2165 16.9912 -69.172C20.4111 -76.1274 24.4896 -82.7594 29.1573 -88.9291C31.4911 -92.014 33.9636 -94.9834 36.5632 -97.8256C39.1628 -100.668 41.8895 -103.383 44.7432 -105.971C50.4623 -111.136 56.6898 -115.792 63.3216 -119.813C69.9419 -123.833 76.9665 -127.219 84.2222 -129.911C91.4895 -132.603 98.9994 -134.59 106.625 -135.849C114.25 -137.109 121.98 -137.652 129.698 -137.455C137.415 -137.259 145.122 -136.335 152.678 -134.694C160.234 -133.053 167.64 -130.685 174.757 -127.623C181.874 -124.573 188.714 -120.829 195.115 -116.474C201.527 -112.129 207.5 -107.161 212.942 -101.731L394.751 80.0811L395.259 80.601C397.963 83.3393 400.551 86.2047 402.989 89.1971C407.876 95.182 412.209 101.652 415.883 108.469C419.557 115.297 422.584 122.472 424.895 129.855C427.205 137.238 428.811 144.841 429.678 152.512C430.556 160.184 430.695 167.937 430.117 175.643C429.539 183.338 428.222 190.998 426.2 198.462C424.178 205.926 421.429 213.217 418.009 220.172C414.589 227.127 410.51 233.759 405.843 239.929C403.509 243.014 401.036 245.983 398.437 248.826C395.837 251.668 393.111 254.383 390.257 256.971C384.538 262.136 378.31 266.792 371.678 270.813C365.058 274.833 358.033 278.219 350.778 280.911C343.51 283.603 336.001 285.59 328.375 286.85C320.75 288.109 313.02 288.652 305.302 288.455C297.585 288.259 289.878 287.335 282.322 285.694C274.766 284.053 267.36 281.685 260.243 278.623C253.126 275.573 246.286 271.829 239.885 267.474C233.473 263.129 227.5 258.161 222.058 252.731L223.179 251.622Z" fill="#F0F4F9"></path><path d="M219.99 254.811C225.559 260.368 231.682 265.452 238.245 269.9C244.807 274.36 251.809 278.184 259.099 281.315C266.389 284.446 273.98 286.873 281.71 288.559C289.451 290.246 297.33 291.194 305.233 291.39C313.136 291.587 321.05 291.044 328.86 289.749C336.671 288.455 344.365 286.422 351.794 283.672C359.235 280.922 366.421 277.456 373.203 273.331C379.985 269.218 386.375 264.446 392.221 259.155C395.144 256.509 397.928 253.736 400.597 250.824C403.266 247.913 405.796 244.874 408.188 241.72C412.971 235.4 417.154 228.606 420.655 221.489C424.155 214.36 426.963 206.908 429.043 199.259C431.122 191.611 432.462 183.777 433.052 175.897C433.652 168.018 433.502 160.08 432.601 152.224C431.711 144.367 430.071 136.591 427.702 129.023C425.334 121.456 422.237 114.107 418.471 107.117C414.704 100.127 410.268 93.5067 405.265 87.3716C402.758 84.3098 400.112 81.3751 397.351 78.5791L396.831 78.0477L215.022 -103.764C209.453 -109.322 203.329 -114.405 196.767 -118.854C190.204 -123.313 183.203 -127.138 175.912 -130.269C168.622 -133.4 161.031 -135.826 153.302 -137.513C145.561 -139.2 137.681 -140.148 129.778 -140.344C121.876 -140.54 113.961 -139.997 106.151 -138.703C98.3409 -137.432 90.6577 -135.399 83.2171 -132.649C75.7765 -129.899 68.5901 -126.433 61.8081 -122.308C55.026 -118.195 48.6368 -113.423 42.7907 -108.132C39.8676 -105.486 37.0831 -102.713 34.4142 -99.8013C31.7453 -96.8898 29.2151 -93.8511 26.8235 -90.6969C22.0402 -84.3769 17.8578 -77.5832 14.357 -70.466C10.8562 -63.3373 8.04868 -55.885 5.96901 -48.2364C3.88935 -40.5877 2.54912 -32.7541 1.95988 -24.8744C1.35909 -16.9946 1.50929 -9.05713 2.41047 -1.20049C3.30011 6.65616 4.94074 14.4319 7.30924 21.9997C9.67775 29.5675 12.7741 36.9158 16.5407 43.9059C20.3072 50.896 24.7438 57.5164 29.7465 63.6515C32.2537 66.7133 34.8995 69.6479 37.6608 72.444L38.1807 72.9755L219.99 254.811L218.869 255.931L37.0485 74.1078L36.5286 73.5763C33.7326 70.7456 31.0521 67.7762 28.5103 64.6682C23.4382 58.4638 18.9438 51.751 15.1311 44.68C11.3184 37.5975 8.18733 30.1568 5.78416 22.4966C3.38099 14.8363 1.72881 6.95656 0.816063 -1.00407C-0.0851258 -8.96469 -0.246878 -16.9946 0.365469 -24.9784C0.966261 -32.9621 2.3296 -40.8881 4.43237 -48.6407C6.53515 -56.3818 9.37736 -63.9381 12.9243 -71.1593C16.4713 -78.3804 20.7 -85.255 25.541 -91.6558C27.9557 -94.8563 30.5322 -97.9296 33.2242 -100.876C35.9278 -103.822 38.7469 -106.63 41.7046 -109.31C47.6317 -114.671 54.0902 -119.501 60.9646 -123.672C67.8391 -127.843 75.1064 -131.355 82.6509 -134.139C90.184 -136.924 97.9711 -138.981 105.885 -140.298C113.788 -141.603 121.806 -142.158 129.813 -141.961C137.82 -141.765 145.803 -140.806 153.637 -139.096C161.47 -137.386 169.154 -134.937 176.536 -131.771C183.919 -128.605 191.013 -124.723 197.656 -120.206C204.3 -115.699 210.504 -110.558 216.142 -104.92L397.952 76.8922L398.471 77.4237C401.267 80.2544 403.948 83.2238 406.49 86.3318C411.562 92.5362 416.056 99.249 419.869 106.32C423.682 113.403 426.824 120.843 429.216 128.503C431.619 136.164 433.271 144.043 434.184 152.004C435.085 159.965 435.247 167.995 434.635 175.978C434.034 183.962 432.67 191.888 430.568 199.641C428.465 207.382 425.623 214.938 422.076 222.159C418.529 229.38 414.3 236.255 409.459 242.656C407.044 245.856 404.468 248.93 401.776 251.876C399.072 254.822 396.253 257.63 393.295 260.31C387.368 265.671 380.91 270.501 374.035 274.672C367.161 278.843 359.894 282.355 352.349 285.139C344.816 287.924 337.029 289.981 329.115 291.298C321.212 292.603 313.194 293.158 305.187 292.961C297.18 292.765 289.197 291.806 281.363 290.096C273.53 288.386 265.846 285.937 258.464 282.759C251.081 279.594 243.987 275.711 237.343 271.194C230.7 266.688 224.496 261.546 218.858 255.908L219.99 254.811Z" fill="#F0F4F9"></path></svg>