<svg xmlns="http://www.w3.org/2000/svg" viewBox="0 0 54 54"><path d="M39.14.135c-.322.175-.411.441-.613 1.831-.096.661-.188 1.211-.203 1.221-.016.011-.346.15-.732.31l-.704.29-1.037-.769c-1.064-.788-1.321-.915-1.673-.827-.112.029-.887.74-1.723 1.581l-1.52 1.53.047.352c.036.262.247.618.823 1.385l.775 1.031-.288.713c-.158.391-.319.735-.359.762-.04.028-.609.123-1.265.212-1.311.179-1.6.283-1.76.635-.168.369-.149 4.118.023 4.45.176.34.428.427 1.835.631.661.096 1.211.188 1.222.203.012.016.149.349.306.74l.285.712-.809 1.082c-1.147 1.532-1.191 1.338.758 3.287l1.568 1.569.356-.048c.265-.036.615-.243 1.383-.82l1.028-.772.716.287c.394.158.729.295.745.303.015.009.107.557.203 1.218.204 1.407.291 1.659.631 1.835.368.19 4.116.19 4.484 0 .34-.176.427-.428.631-1.835.096-.661.188-1.209.203-1.218.016-.008.351-.145.745-.303l.716-.287 1.028.772c.768.577 1.118.784 1.383.82l.356.048 1.581-1.581 1.581-1.581-.048-.356c-.036-.265-.243-.615-.82-1.383l-.772-1.028.287-.716c.158-.394.295-.729.303-.745.009-.015.557-.107 1.218-.203 1.407-.204 1.659-.291 1.835-.631.172-.332.191-4.081.023-4.45-.16-.352-.449-.456-1.76-.635-.656-.089-1.225-.184-1.265-.212-.04-.027-.201-.371-.359-.762l-.288-.713.775-1.031c.576-.767.787-1.123.823-1.385l.047-.352-1.52-1.53c-.836-.841-1.611-1.552-1.723-1.581-.352-.088-.609.039-1.673.827l-1.037.769-.704-.29c-.386-.16-.716-.299-.732-.31-.015-.01-.107-.56-.203-1.221-.204-1.407-.291-1.659-.631-1.835-.362-.188-4.156-.184-4.502.004m3.291 1.867c.024.112.106.648.183 1.193.089.636.198 1.07.304 1.215.112.153.421.313.966.501a11.65 11.65 0 0 1 1.341.562c.84.445.877.436 2.213-.575l.863-.653.727.727.727.727-.653.863c-1.01 1.334-1.02 1.373-.58 2.208.155.294.408.898.563 1.341.19.547.352.86.505.971.144.106.58.215 1.215.304 1.577.222 1.405.067 1.375 1.237l-.025 1.008-1.17.164c-.772.107-1.247.218-1.395.325-.154.111-.314.418-.505.969a12.174 12.174 0 0 1-.563 1.341c-.44.835-.43.874.58 2.208l.653.863-.727.727-.727.727-.863-.653c-1.335-1.01-1.34-1.011-2.193-.577a13 13 0 0 1-1.361.563c-.544.188-.854.349-.966.502-.106.145-.215.579-.304 1.215-.22 1.566-.071 1.395-1.214 1.395s-.994.171-1.214-1.395c-.089-.636-.198-1.07-.304-1.215-.112-.153-.422-.314-.966-.502a13 13 0 0 1-1.361-.563c-.853-.434-.858-.433-2.193.577l-.863.653-.727-.727-.727-.727.653-.863c1.011-1.336 1.02-1.373.575-2.213-.157-.297-.41-.9-.562-1.341-.189-.548-.347-.853-.501-.964-.149-.107-.622-.218-1.395-.325l-1.17-.164-.025-1.008c-.03-1.17-.202-1.015 1.375-1.237.636-.089 1.07-.198 1.215-.304.153-.112.313-.421.501-.966a11.65 11.65 0 0 1 .562-1.341c.445-.84.436-.877-.575-2.213l-.653-.863.727-.727.727-.727.863.653c1.336 1.011 1.373 1.02 2.213.575.297-.157.9-.41 1.341-.562.545-.188.854-.348.966-.501.106-.145.215-.579.304-1.215.22-1.566.071-1.395 1.214-1.395.95 0 .988.007 1.031.202M3.78 7.26C2.477 7.467 1.061 8.503.502 9.658-.026 10.747 0 9.943 0 25.2c0 15.294-.028 14.444.514 15.57.309.643 1.273 1.607 1.916 1.916 1.072.516 1.041.514 7.607.514h6.04l-.34 2.677c-.186 1.473-.341 2.688-.343 2.701-.002.012-.502.022-1.111.022-1.015 0-1.147.02-1.581.236a1.83 1.83 0 0 0-.716.601c-.237.359-.241.388-.241 1.863s.004 1.504.241 1.863c.133.201.396.461.585.578l.344.214h20.97l.344-.214c.189-.117.452-.377.585-.578.237-.359.241-.388.241-1.863s-.004-1.504-.241-1.863a1.83 1.83 0 0 0-.716-.601c-.434-.216-.566-.236-1.581-.236-.609 0-1.109-.01-1.111-.022-.002-.013-.157-1.228-.343-2.701l-.34-2.677h6.04c6.566 0 6.535.002 7.607-.514.643-.309 1.607-1.273 1.916-1.916.524-1.089.514-.907.514-9.019V24.3H45v9.9H1.797l.024-11.587.024-11.588.251-.511a2.666 2.666 0 0 1 1.319-1.279l.41-.19 12.937-.024L29.7 8.998V7.2l-12.848.012c-7.066.007-12.948.029-13.072.048m36.45.08c-.982.212-1.845.698-2.613 1.472-.779.785-1.18 1.479-1.439 2.492a5.429 5.429 0 0 0 .469 3.844c.383.73 1.475 1.822 2.205 2.205.717.375 1.786.647 2.548.647s1.831-.272 2.548-.647c.73-.383 1.822-1.475 2.205-2.205a5.429 5.429 0 0 0 .469-3.844c-.262-1.024-.658-1.708-1.445-2.494-1.344-1.342-3.107-1.866-4.947-1.47m2.649 2.004c.812.38 1.337.897 1.74 1.712.319.645.336.725.334 1.548-.002.818-.021.907-.336 1.544-.403.816-.926 1.327-1.761 1.722-.542.256-.684.284-1.456.284-.774.001-.912-.026-1.456-.284-.836-.396-1.358-.907-1.762-1.724-.317-.64-.335-.725-.334-1.539.001-.777.029-.921.284-1.463.358-.762.873-1.322 1.546-1.68.709-.378 1.097-.464 1.924-.424.541.025.828.094 1.277.304m-28.88 4.744c-.733 1.957-1.317 3.574-1.297 3.594.06.06 1.462.588 1.561.588.087 0 2.799-7.095 2.733-7.149-.057-.045-1.53-.591-1.598-.591-.036 0-.666 1.601-1.399 3.558m-5.287-1.601c-.862.868-1.432 1.514-1.47 1.665-.121.485.04.721 1.47 2.161l1.407 1.419.656-.652.656-.651-1.012-1.015L9.408 14.4l1.011-1.014 1.012-1.015-.656-.651-.656-.652-1.407 1.419m10.143-.787-.626.631 1.031 1.034 1.032 1.035-1.032 1.035-1.033 1.036.653.652.653.652 1.432-1.44c1.454-1.463 1.614-1.696 1.493-2.183-.038-.151-.608-.797-1.469-1.665-.774-.779-1.43-1.417-1.458-1.417-.028 0-.332.284-.676.63M7.2 22.5v.9h3.6v-1.8H7.2v.9m5.4 0v.9h9v-1.8h-9v.9M9 26.1v.9h3.6v-1.8H9v.9m5.4 0v.9h9v-1.8h-9v.9m10.8 0v.9H27v-1.8h-1.8v.9M9 29.7v.9h3.6v-1.8H9v.9m5.4 0v.9h9v-1.8h-9v.9m10.8 0v.9H27v-1.8h-1.8v.9m19.785 7.988c-.029 1.638-.037 1.702-.283 2.202a2.66 2.66 0 0 1-1.476 1.329c-.478.179-.677.181-19.826.181s-19.348-.002-19.826-.181a2.66 2.66 0 0 1-1.476-1.329c-.246-.5-.254-.564-.283-2.202L1.786 36h43.228l-.029 1.688M39.6 38.7v.9h1.8v-1.8h-1.8v.9m-10.706 4.522.343 2.7.34 2.678H17.223l.34-2.678.343-2.7c.002-.012 2.474-.022 5.494-.022 3.019 0 5.492.01 5.494.022M33.3 51.3v.9H13.5v-1.8h19.8v.9" fill="currentColor" fill-rule="evenodd"></path></svg>