<svg xmlns="http://www.w3.org/2000/svg" viewBox="0 0 40 40"><g fill="none" class="nc-icon-wrapper"><path d="M5.83344 15.8334C4.45251 15.8334 3.33344 14.7141 3.33344 13.3334C3.33344 11.9525 4.45251 10.8334 5.83344 10.8334C7.21405 10.8334 8.33344 11.9525 8.33344 13.3334C8.33344 14.7141 7.21405 15.8334 5.83344 15.8334ZM5.83344 12.5C5.37323 12.5 5 12.8732 5 13.3334C5 13.7936 5.37323 14.1666 5.83344 14.1666C6.29364 14.1666 6.66656 13.7936 6.66656 13.3334C6.66656 12.8732 6.29364 12.5 5.83344 12.5Z" fill="currentColor"></path><path d="M1.66656 24.1666H0V10C0 8.61938 1.11938 7.5 2.5 7.5H15V9.16656H2.5C2.03979 9.16656 1.66656 9.53979 1.66656 10V24.1666Z" fill="currentColor"></path><path d="M29.1666 32.5H2.5C1.11938 32.5 0 31.3806 0 30V26.6666C0 26.2064 0.37323 25.8334 0.833435 25.8334H28.3334V27.5H1.66657V30C1.66657 30.4602 2.0398 30.8334 2.5 30.8334H29.1666C29.6268 30.8334 30 30.4602 30 30V25H31.6666V30C31.6666 31.3806 30.5475 32.5 29.1666 32.5Z" fill="currentColor"></path><path d="M22.5 40H9.16656C7.78595 40 6.66656 38.8806 6.66656 37.5C6.66656 36.1194 7.78595 35 9.16656 35H22.5C23.8806 35 25 36.1194 25 37.5C25 38.8806 23.8806 40 22.5 40ZM9.16656 36.6666C8.70636 36.6666 8.33344 37.0398 8.33344 37.5C8.33344 37.9602 8.70636 38.3334 9.16656 38.3334H22.5C22.9602 38.3334 23.3334 37.9602 23.3334 37.5C23.3334 37.0398 22.9602 36.6666 22.5 36.6666H9.16656Z" fill="currentColor"></path><path d="M10 31.6666H11.6666V35.8334H10V31.6666Z" fill="currentColor"></path><path d="M20 31.6666H21.6666V35.8334H20V31.6666Z" fill="currentColor"></path><path d="M30.8334 23.3334H25.8334C25.3732 23.3334 25 22.9602 25 22.5V20.2057C24.884 20.1593 24.7693 20.1108 24.6533 20.0601L23.0301 21.6843C22.7045 22.0096 22.1771 22.0096 21.8518 21.6843L18.3157 18.1482C17.9904 17.8229 17.9904 17.2955 18.3157 16.9699L19.9399 15.3467C19.8892 15.2307 19.8407 15.116 19.7943 15H17.5C17.0398 15 16.6666 14.6268 16.6666 14.1666V9.16656C16.6666 8.70636 17.0398 8.33344 17.5 8.33344H19.7943C19.8407 8.21747 19.8892 8.10242 19.9399 7.98676L18.3157 6.36322C17.9904 6.0379 17.9904 5.51056 18.3157 5.18494L21.8518 1.64917C22.1771 1.32385 22.7045 1.32385 23.0301 1.64917L24.6533 3.27332C24.7693 3.22235 24.884 3.17413 25 3.12744V0.833435C25 0.37323 25.3732 0 25.8334 0H30.8334C31.2936 0 31.6666 0.37323 31.6666 0.833435V3.12744C31.7825 3.17413 31.8976 3.22235 32.0132 3.27332L33.6368 1.64917C33.9621 1.32385 34.4894 1.32385 34.8151 1.64917L38.3508 5.18494C38.6761 5.51056 38.6761 6.0379 38.3508 6.36322L36.7267 7.98676C36.7776 8.10242 36.8259 8.21747 36.8726 8.33344H39.1666C39.6268 8.33344 40 8.70636 40 9.16656V14.1666C40 14.6268 39.6268 15 39.1666 15H36.8726C36.8259 15.116 36.7776 15.2307 36.7267 15.3467L38.3508 16.9699C38.6761 17.2955 38.6761 17.8229 38.3508 18.1482L34.8151 21.6843C34.4894 22.0096 33.9621 22.0096 33.6368 21.6843L32.0132 20.0601C31.8976 20.1108 31.7825 20.1593 31.6666 20.2057V22.5C31.6666 22.9602 31.2936 23.3334 30.8334 23.3334ZM26.6666 21.6666H30V19.6176C30 19.2535 30.2362 18.9316 30.5832 18.8226C31.0022 18.6893 31.4087 18.519 31.7975 18.3142C32.1204 18.1451 32.5156 18.2056 32.7734 18.4634L34.2258 19.9167L36.5833 17.5592L35.1309 16.1066C34.873 15.849 34.8126 15.4538 34.9817 15.1309C35.1868 14.7418 35.3568 14.3356 35.4901 13.9166C35.5991 13.5693 35.921 13.3334 36.2851 13.3334H38.3334V10H36.2842C35.9201 10 35.5984 9.76379 35.4892 9.41681C35.3558 8.9978 35.1859 8.59131 34.9808 8.20251C34.8117 7.87964 34.8721 7.48444 35.13 7.22656L36.5833 5.77423L34.2258 3.41675L32.7734 4.87C32.5156 5.12787 32.1204 5.18829 31.7975 5.01923C31.4087 4.81415 31.0022 4.64417 30.5832 4.5108C30.2362 4.40155 30 4.07989 30 3.71582V1.66656H26.6666V3.71582C26.6666 4.07989 26.4307 4.40155 26.0834 4.5108C25.6644 4.64417 25.2582 4.81415 24.8691 5.01923C24.5462 5.18829 24.151 5.12787 23.8934 4.87L22.4408 3.41675L20.0833 5.77423L21.5359 7.22656C21.7935 7.48444 21.8539 7.87964 21.6849 8.20251C21.4801 8.59131 21.3098 8.9978 21.1768 9.41681C21.0675 9.76379 20.7455 10 20.3818 10H18.3334V13.3334H20.3824C20.7465 13.3334 21.0684 13.5693 21.1774 13.9166C21.3107 14.3356 21.481 14.7418 21.6858 15.1309C21.8549 15.4538 21.7944 15.849 21.5366 16.1066L20.0833 17.5592L22.4408 19.9167L23.8934 18.4641C24.151 18.2065 24.5462 18.1461 24.8691 18.3151C25.2582 18.5199 25.6644 18.6902 26.0834 18.8232C26.4307 18.9325 26.6666 19.2545 26.6666 19.6182V21.6666Z" fill="currentColor"></path><path d="M28.3334 16.6666V15C30.1743 15 31.6666 13.5077 31.6666 11.6666C31.6666 9.82574 30.1743 8.33344 28.3334 8.33344C26.4923 8.33344 25 9.82574 25 11.6666H23.3334C23.3334 8.90533 25.5719 6.66656 28.3334 6.66656C31.0947 6.66656 33.3334 8.90533 33.3334 11.6666C33.3334 14.4281 31.0947 16.6666 28.3334 16.6666Z" fill="currentColor"></path><path d="M9.16656 24.1666C7.78595 24.1666 6.66656 23.0475 6.66656 21.6666C6.66656 20.2859 7.78595 19.1666 9.16656 19.1666C10.5475 19.1666 11.6666 20.2859 11.6666 21.6666C11.6666 23.0475 10.5475 24.1666 9.16656 24.1666ZM9.16656 20.8334C8.70636 20.8334 8.33344 21.2064 8.33344 21.6666C8.33344 22.1268 8.70636 22.5 9.16656 22.5C9.62677 22.5 10 22.1268 10 21.6666C10 21.2064 9.62677 20.8334 9.16656 20.8334Z" fill="currentColor"></path><path d="M7.5 12.5H15V14.1666H7.5V12.5Z" fill="currentColor"></path><path d="M10.5893 21.4224L9.41071 20.2441L11.9107 17.7441C12.067 17.5879 12.2791 17.5 12.5 17.5H15V19.1666H12.8448L10.5893 21.4224Z" fill="currentColor"></path></g></svg>