<svg xmlns="http://www.w3.org/2000/svg" width="174" height="36" viewBox="0 0 174 36" fill="none"><path d="M65.0895 29V20.6145C65.0895 19.8188 65.0172 19.0542 64.8725 18.3205C64.7382 17.5868 64.4953 16.9307 64.144 16.352C63.803 15.763 63.338 15.298 62.749 14.957C62.1703 14.616 61.4367 14.4455 60.548 14.4455C59.8557 14.4455 59.2253 14.5643 58.657 14.802C58.099 15.0293 57.6185 15.3807 57.2155 15.856C56.8125 16.3313 56.4973 16.9307 56.27 17.654C56.053 18.367 55.9445 19.2092 55.9445 20.1805L54.131 19.6225C54.131 18.0002 54.4203 16.6103 54.999 15.453C55.588 14.2853 56.4095 13.3915 57.4635 12.7715C58.5278 12.1412 59.7782 11.826 61.2145 11.826C62.2995 11.826 63.2243 11.9965 63.989 12.3375C64.7537 12.6785 65.3892 13.1332 65.8955 13.7015C66.4018 14.2595 66.7997 14.8898 67.089 15.5925C67.3783 16.2848 67.5798 16.9927 67.6935 17.716C67.8175 18.429 67.8795 19.1058 67.8795 19.7465V29H65.0895ZM53.1545 29V12.26H55.6345V16.7395H55.9445V29H53.1545ZM79.0119 29.465C77.3689 29.465 75.9326 29.1033 74.7029 28.38C73.4836 27.6463 72.5329 26.6285 71.8509 25.3265C71.1689 24.0142 70.8279 22.4848 70.8279 20.7385C70.8279 18.9095 71.1637 17.3285 71.8354 15.9955C72.5071 14.6522 73.4422 13.6188 74.6409 12.8955C75.8499 12.1618 77.2656 11.795 78.8879 11.795C80.5722 11.795 82.0034 12.1825 83.1814 12.9575C84.3697 13.7325 85.2584 14.8382 85.8474 16.2745C86.4467 17.7108 86.7051 19.421 86.6224 21.405H83.8324V20.413C83.8014 18.3567 83.3829 16.8222 82.5769 15.8095C81.7709 14.7865 80.5722 14.275 78.9809 14.275C77.2759 14.275 75.9791 14.8227 75.0904 15.918C74.2017 17.0133 73.7574 18.584 73.7574 20.63C73.7574 22.6037 74.2017 24.133 75.0904 25.218C75.9791 26.303 77.2449 26.8455 78.8879 26.8455C79.9936 26.8455 80.9546 26.5923 81.7709 26.086C82.5872 25.5797 83.2279 24.8512 83.6929 23.9005L86.3434 24.815C85.6924 26.2927 84.7107 27.4397 83.3984 28.256C82.0964 29.062 80.6342 29.465 79.0119 29.465ZM72.8274 21.405V19.1885H85.1964V21.405H72.8274ZM97.2033 29.465C95.5397 29.465 94.1033 29.0878 92.8943 28.3335C91.6957 27.5792 90.7708 26.5355 90.1198 25.2025C89.4688 23.8695 89.1433 22.3402 89.1433 20.6145C89.1433 18.8578 89.474 17.3182 90.1353 15.9955C90.7967 14.6728 91.7318 13.6447 92.9408 12.911C94.1498 12.167 95.5707 11.795 97.2033 11.795C98.8773 11.795 100.319 12.1722 101.528 12.9265C102.737 13.6705 103.662 14.709 104.302 16.042C104.953 17.3647 105.279 18.8888 105.279 20.6145C105.279 22.3608 104.953 23.9005 104.302 25.2335C103.651 26.5562 102.721 27.5947 101.512 28.349C100.303 29.093 98.867 29.465 97.2033 29.465ZM97.2033 26.8455C98.9393 26.8455 100.231 26.2668 101.078 25.1095C101.926 23.9522 102.349 22.4538 102.349 20.6145C102.349 18.7235 101.92 17.22 101.063 16.104C100.205 14.9777 98.9187 14.4145 97.2033 14.4145C96.0357 14.4145 95.0747 14.678 94.3203 15.205C93.566 15.732 93.0028 16.4605 92.6308 17.3905C92.2588 18.3205 92.0728 19.3952 92.0728 20.6145C92.0728 22.4952 92.5068 24.0038 93.3748 25.1405C94.2428 26.2772 95.519 26.8455 97.2033 26.8455ZM118.038 29C117.046 29.1963 116.064 29.2738 115.093 29.2325C114.132 29.2015 113.274 29.0103 112.52 28.659C111.766 28.2973 111.192 27.7393 110.799 26.985C110.469 26.3237 110.288 25.6572 110.257 24.9855C110.236 24.3035 110.226 23.5337 110.226 22.676V7.61H112.985V22.552C112.985 23.234 112.99 23.8178 113 24.3035C113.021 24.7892 113.13 25.2077 113.326 25.559C113.698 26.2203 114.287 26.6078 115.093 26.7215C115.909 26.8352 116.891 26.8042 118.038 26.6285V29ZM106.831 14.5385V12.26H118.038V14.5385H106.831ZM127.994 29.465C126.351 29.465 124.915 29.1033 123.685 28.38C122.466 27.6463 121.515 26.6285 120.833 25.3265C120.151 24.0142 119.81 22.4848 119.81 20.7385C119.81 18.9095 120.146 17.3285 120.818 15.9955C121.489 14.6522 122.425 13.6188 123.623 12.8955C124.832 12.1618 126.248 11.795 127.87 11.795C129.555 11.795 130.986 12.1825 132.164 12.9575C133.352 13.7325 134.241 14.8382 134.83 16.2745C135.429 17.7108 135.687 19.421 135.605 21.405H132.815V20.413C132.784 18.3567 132.365 16.8222 131.559 15.8095C130.753 14.7865 129.555 14.275 127.963 14.275C126.258 14.275 124.961 14.8227 124.073 15.918C123.184 17.0133 122.74 18.584 122.74 20.63C122.74 22.6037 123.184 24.133 124.073 25.218C124.961 26.303 126.227 26.8455 127.87 26.8455C128.976 26.8455 129.937 26.5923 130.753 26.086C131.57 25.5797 132.21 24.8512 132.675 23.9005L135.326 24.815C134.675 26.2927 133.693 27.4397 132.381 28.256C131.079 29.062 129.617 29.465 127.994 29.465ZM121.81 21.405V19.1885H134.179V21.405H121.81ZM146.108 29.465C144.414 29.465 142.972 29.0878 141.784 28.3335C140.606 27.5688 139.707 26.52 139.087 25.187C138.467 23.854 138.146 22.335 138.126 20.63C138.146 18.8837 138.472 17.3492 139.102 16.0265C139.743 14.6935 140.657 13.655 141.846 12.911C143.034 12.167 144.465 11.795 146.139 11.795C147.906 11.795 149.425 12.229 150.696 13.097C151.978 13.965 152.835 15.1533 153.269 16.662L150.541 17.4835C150.19 16.5122 149.616 15.7578 148.821 15.2205C148.035 14.6832 147.131 14.4145 146.108 14.4145C144.961 14.4145 144.016 14.6832 143.272 15.2205C142.528 15.7475 141.975 16.4812 141.613 17.4215C141.252 18.3515 141.066 19.421 141.055 20.63C141.076 22.49 141.505 23.9935 142.342 25.1405C143.189 26.2772 144.445 26.8455 146.108 26.8455C147.204 26.8455 148.113 26.5975 148.836 26.1015C149.56 25.5952 150.107 24.8667 150.479 23.916L153.269 24.6445C152.691 26.2048 151.786 27.3983 150.557 28.225C149.327 29.0517 147.844 29.465 146.108 29.465ZM168.352 29V20.6145C168.352 19.8188 168.28 19.0542 168.135 18.3205C168.001 17.5868 167.758 16.9307 167.407 16.352C167.066 15.763 166.601 15.298 166.012 14.957C165.433 14.616 164.699 14.4455 163.811 14.4455C163.118 14.4455 162.488 14.5643 161.92 14.802C161.362 15.0293 160.881 15.3807 160.478 15.856C160.075 16.3313 159.76 16.9307 159.533 17.654C159.316 18.367 159.207 19.2092 159.207 20.1805L157.394 19.6225C157.394 18.0002 157.683 16.6103 158.262 15.453C158.851 14.2853 159.672 13.3915 160.726 12.7715C161.791 12.1412 163.041 11.826 164.477 11.826C165.562 11.826 166.487 11.9965 167.252 12.3375C168.016 12.6785 168.652 13.1332 169.158 13.7015C169.665 14.2595 170.062 14.8898 170.352 15.5925C170.641 16.2848 170.843 16.9927 170.956 17.716C171.08 18.429 171.142 19.1058 171.142 19.7465V29H168.352ZM156.417 29V6.68H158.897V19.0025H159.207V29H156.417Z" fill="white"></path><g clip-path="url(#clip0_399_4272)"><path d="M3.22312 28.1C1.76376 27.232 0.940075 25.7591 0.940075 24.0185V11.9815C0.940075 10.2409 1.76376 8.76798 3.22312 7.89996L13.3312 1.8838C14.7905 1.01577 16.4379 1.01577 17.9017 1.8838L28.0053 7.89996C29.4646 8.76798 30.2883 10.2409 30.2883 11.9815V24.0185C30.2883 25.7591 29.4646 27.232 28.0053 28.1L17.9017 34.1162C16.4424 34.9842 14.795 34.9842 13.3312 34.1162L3.22312 28.1ZM18.3718 34.9565L28.4753 28.9404C30.2257 27.8969 31.2284 26.1054 31.2284 24.0185V11.9815C31.2284 9.89457 30.2257 8.10311 28.4753 7.05963L18.3718 1.04347C16.6169 -5.30481e-06 14.6115 -5.30481e-06 12.8611 1.04347L2.75308 7.05963C1.00275 8.10311 0 9.89457 0 11.9815V24.0138C0 26.1008 1.00275 27.8923 2.75308 28.9357L12.8566 34.9519C14.6115 36 16.6169 36 18.3718 34.9565Z" fill="url(#paint0_linear_399_4272)"></path><path d="M9.61114 28.1C8.15178 27.232 7.3281 25.7591 7.3281 24.0185V11.9815C7.3281 10.2409 8.15178 8.76798 9.61114 7.89996L19.7147 1.8838C21.1741 1.01577 22.8214 1.01577 24.2853 1.8838L34.3888 7.89996C35.8482 8.76798 36.6719 10.2409 36.6719 11.9815V24.0185C36.6719 25.7591 35.8482 27.232 34.3888 28.1L24.2853 34.1162C22.8259 34.9842 21.1785 34.9842 19.7147 34.1162L9.61114 28.1ZM24.7553 34.9565L34.8589 28.9404C36.6092 27.8969 37.6119 26.1054 37.6119 24.0185V11.9815C37.6119 9.89457 36.6092 8.10311 34.8589 7.05963L24.7553 1.04347C23.0005 -5.30481e-06 20.995 -5.30481e-06 19.2447 1.04347L9.1411 7.05963C7.39077 8.10311 6.38802 9.89457 6.38802 11.9815V24.0138C6.38802 26.1008 7.39077 27.8923 9.1411 28.9357L19.2447 34.9519C20.995 36 23.0005 36 24.7553 34.9565Z" fill="url(#paint1_linear_399_4272)"></path><path d="M15.9947 28.1C14.5354 27.232 13.7117 25.7591 13.7117 24.0185V11.9815C13.7117 10.2409 14.5354 8.76798 15.9947 7.89996L26.0983 1.8838C27.5577 1.01577 29.205 1.01577 30.6689 1.8838L40.7724 7.89996C42.2318 8.76798 43.0555 10.2409 43.0555 11.9815V24.0185C43.0555 25.7591 42.2318 27.232 40.7724 28.1L30.6689 34.1162C29.2095 34.9842 27.5622 34.9842 26.0983 34.1162L15.9947 28.1ZM31.1389 34.9565L41.2425 28.9404C42.9928 27.8969 43.9956 26.1054 43.9956 24.0185V11.9815C43.9956 9.89457 42.9928 8.10311 41.2425 7.05963L31.1389 1.04347C29.3886 -5.30481e-06 27.3831 -5.30481e-06 25.6283 1.04347L15.5247 7.05963C13.7744 8.10311 12.7716 9.89457 12.7716 11.9815V24.0138C12.7716 26.1008 13.7744 27.8923 15.5247 28.9357L25.6283 34.9519C27.3831 36 29.3886 36 31.1389 34.9565Z" fill="url(#paint2_linear_399_4272)"></path></g><defs><linearGradient id="paint0_linear_399_4272" x1="7.86702e-09" y1="9.48506" x2="40.9572" y2="29.8013" gradientUnits="userSpaceOnUse"><stop offset="0.175" stop-color="#8236FB"></stop><stop offset="1" stop-color="#076EF4"></stop></linearGradient><linearGradient id="paint1_linear_399_4272" x1="7.86702e-09" y1="9.48506" x2="40.9572" y2="29.8013" gradientUnits="userSpaceOnUse"><stop offset="0.175" stop-color="#8236FB"></stop><stop offset="1" stop-color="#076EF4"></stop></linearGradient><linearGradient id="paint2_linear_399_4272" x1="7.86702e-09" y1="9.48506" x2="40.9572" y2="29.8013" gradientUnits="userSpaceOnUse"><stop offset="0.175" stop-color="#8236FB"></stop><stop offset="1" stop-color="#076EF4"></stop></linearGradient><clipPath id="clip0_399_4272"><rect width="44" height="36" fill="white"></rect></clipPath></defs></svg>