<svg xmlns="http://www.w3.org/2000/svg" width="175" height="36" viewBox="0 0 175 36" fill="none"><path d="M64.919 29V20.7695C64.919 20.1185 64.8622 19.452 64.7485 18.77C64.6452 18.0777 64.4385 17.437 64.1285 16.848C63.8288 16.259 63.4 15.7837 62.842 15.422C62.2943 15.0603 61.5762 14.8795 60.6875 14.8795C60.1088 14.8795 59.5612 14.9777 59.0445 15.174C58.5278 15.36 58.0732 15.6648 57.6805 16.0885C57.2982 16.5122 56.9933 17.0702 56.766 17.7625C56.549 18.4548 56.4405 19.297 56.4405 20.289L54.4255 19.5295C54.4255 18.0105 54.7097 16.6723 55.278 15.515C55.8463 14.3473 56.6627 13.438 57.727 12.787C58.7913 12.136 60.0778 11.8105 61.5865 11.8105C62.7438 11.8105 63.7152 11.9965 64.5005 12.3685C65.2858 12.7405 65.9213 13.2313 66.407 13.841C66.903 14.4403 67.2802 15.0965 67.5385 15.8095C67.7968 16.5225 67.9725 17.22 68.0655 17.902C68.1585 18.584 68.205 19.1833 68.205 19.7V29H64.919ZM53.1545 29V12.26H56.053V17.096H56.4405V29H53.1545ZM79.4549 29.465C77.7912 29.465 76.329 29.1033 75.0684 28.38C73.818 27.6463 72.8415 26.6285 72.1389 25.3265C71.4465 24.0142 71.1004 22.4952 71.1004 20.7695C71.1004 18.9405 71.4414 17.3543 72.1234 16.011C72.8157 14.6677 73.7767 13.6292 75.0064 12.8955C76.236 12.1618 77.6672 11.795 79.2999 11.795C81.0049 11.795 82.4567 12.1928 83.6554 12.9885C84.854 13.7738 85.7479 14.895 86.3369 16.352C86.9362 17.809 87.1739 19.5398 87.0499 21.5445H83.8104V20.3665C83.7897 18.4238 83.4177 16.9875 82.6944 16.0575C81.9814 15.1275 80.8912 14.6625 79.4239 14.6625C77.8015 14.6625 76.5822 15.174 75.7659 16.197C74.9495 17.22 74.5414 18.6977 74.5414 20.63C74.5414 22.4693 74.9495 23.8953 75.7659 24.908C76.5822 25.9103 77.7602 26.4115 79.2999 26.4115C80.3125 26.4115 81.1857 26.1842 81.9194 25.7295C82.6634 25.2645 83.242 24.6032 83.6554 23.7455L86.8329 24.753C86.1819 26.2513 85.195 27.4138 83.8724 28.2405C82.5497 29.0568 81.0772 29.465 79.4549 29.465ZM73.4874 21.5445V19.018H85.4379V21.5445H73.4874ZM97.7969 29.465C96.1229 29.465 94.6711 29.0878 93.4414 28.3335C92.2118 27.5792 91.2611 26.5407 90.5894 25.218C89.9281 23.885 89.5974 22.3505 89.5974 20.6145C89.5974 18.8682 89.9384 17.3337 90.6204 16.011C91.3024 14.678 92.2583 13.6447 93.4879 12.911C94.7176 12.167 96.1539 11.795 97.7969 11.795C99.4709 11.795 100.923 12.1722 102.152 12.9265C103.382 13.6808 104.333 14.7193 105.004 16.042C105.676 17.3647 106.012 18.8888 106.012 20.6145C106.012 22.3608 105.671 23.9005 104.989 25.2335C104.317 26.5562 103.367 27.5947 102.137 28.349C100.907 29.093 99.4606 29.465 97.7969 29.465ZM97.7969 26.4115C99.3986 26.4115 100.592 25.8742 101.377 24.7995C102.173 23.7145 102.571 22.3195 102.571 20.6145C102.571 18.8682 102.168 17.4732 101.362 16.4295C100.566 15.3755 99.3779 14.8485 97.7969 14.8485C96.7119 14.8485 95.8181 15.0965 95.1154 15.5925C94.4128 16.0782 93.8909 16.755 93.5499 17.623C93.2089 18.4807 93.0384 19.4778 93.0384 20.6145C93.0384 22.3712 93.4414 23.7765 94.2474 24.8305C95.0534 25.8845 96.2366 26.4115 97.7969 26.4115ZM118.997 29C117.943 29.2067 116.91 29.2945 115.897 29.2635C114.884 29.2325 113.98 29.0362 113.185 28.6745C112.389 28.3128 111.79 27.7445 111.387 26.9695C111.025 26.2772 110.829 25.5745 110.798 24.8615C110.777 24.1382 110.767 23.3218 110.767 22.4125V7.61H114.022V22.2575C114.022 22.9292 114.027 23.513 114.037 24.009C114.058 24.505 114.166 24.9235 114.363 25.2645C114.735 25.9052 115.324 26.272 116.13 26.365C116.946 26.4477 117.902 26.4115 118.997 26.2565V29ZM107.558 14.864V12.26H118.997V14.864H107.558ZM129.194 29.465C127.53 29.465 126.068 29.1033 124.808 28.38C123.557 27.6463 122.581 26.6285 121.878 25.3265C121.186 24.0142 120.84 22.4952 120.84 20.7695C120.84 18.9405 121.181 17.3543 121.863 16.011C122.555 14.6677 123.516 13.6292 124.746 12.8955C125.975 12.1618 127.406 11.795 129.039 11.795C130.744 11.795 132.196 12.1928 133.395 12.9885C134.593 13.7738 135.487 14.895 136.076 16.352C136.675 17.809 136.913 19.5398 136.789 21.5445H133.55V20.3665C133.529 18.4238 133.157 16.9875 132.434 16.0575C131.721 15.1275 130.63 14.6625 129.163 14.6625C127.541 14.6625 126.321 15.174 125.505 16.197C124.689 17.22 124.281 18.6977 124.281 20.63C124.281 22.4693 124.689 23.8953 125.505 24.908C126.321 25.9103 127.499 26.4115 129.039 26.4115C130.052 26.4115 130.925 26.1842 131.659 25.7295C132.403 25.2645 132.981 24.6032 133.395 23.7455L136.572 24.753C135.921 26.2513 134.934 27.4138 133.612 28.2405C132.289 29.0568 130.816 29.465 129.194 29.465ZM123.227 21.5445V19.018H135.177V21.5445H123.227ZM147.428 29.465C145.712 29.465 144.255 29.0827 143.057 28.318C141.858 27.5533 140.938 26.5045 140.298 25.1715C139.667 23.8385 139.347 22.3247 139.337 20.63C139.347 18.9043 139.678 17.3802 140.329 16.0575C140.98 14.7245 141.91 13.6808 143.119 12.9265C144.328 12.1722 145.78 11.795 147.474 11.795C149.303 11.795 150.864 12.2497 152.155 13.159C153.457 14.0683 154.315 15.3135 154.728 16.8945L151.504 17.8245C151.184 16.8842 150.657 16.1557 149.923 15.639C149.2 15.112 148.368 14.8485 147.428 14.8485C146.363 14.8485 145.49 15.1017 144.808 15.608C144.126 16.104 143.62 16.786 143.289 17.654C142.959 18.522 142.788 19.514 142.778 20.63C142.788 22.3557 143.181 23.7507 143.956 24.815C144.741 25.8793 145.898 26.4115 147.428 26.4115C148.471 26.4115 149.314 26.1738 149.954 25.6985C150.605 25.2128 151.101 24.5205 151.442 23.6215L154.728 24.3965C154.181 26.0292 153.276 27.2847 152.016 28.163C150.755 29.031 149.226 29.465 147.428 29.465ZM169.635 29V20.7695C169.635 20.1185 169.578 19.452 169.464 18.77C169.361 18.0777 169.154 17.437 168.844 16.848C168.545 16.259 168.116 15.7837 167.558 15.422C167.01 15.0603 166.292 14.8795 165.403 14.8795C164.825 14.8795 164.277 14.9777 163.76 15.174C163.244 15.36 162.789 15.6648 162.396 16.0885C162.014 16.5122 161.709 17.0702 161.482 17.7625C161.265 18.4548 161.156 19.297 161.156 20.289L159.141 19.5295C159.141 18.0105 159.425 16.6723 159.994 15.515C160.562 14.3473 161.378 13.438 162.443 12.787C163.507 12.136 164.794 11.8105 166.302 11.8105C167.46 11.8105 168.431 11.9965 169.216 12.3685C170.002 12.7405 170.637 13.2313 171.123 13.841C171.619 14.4403 171.996 15.0965 172.254 15.8095C172.513 16.5225 172.688 17.22 172.781 17.902C172.874 18.584 172.921 19.1833 172.921 19.7V29H169.635ZM157.87 29V6.68H160.769V18.7235H161.156V29H157.87Z" fill="#162339"></path><g clip-path="url(#clip0_351_331)"><path d="M3.22312 28.0999C1.76376 27.2319 0.940075 25.759 0.940075 24.0183V11.9814C0.940075 10.2407 1.76376 8.76786 3.22312 7.89983L13.3312 1.88367C14.7905 1.01565 16.4379 1.01565 17.9017 1.88367L28.0053 7.89983C29.4646 8.76786 30.2883 10.2407 30.2883 11.9814V24.0183C30.2883 25.759 29.4646 27.2319 28.0053 28.0999L17.9017 34.1161C16.4424 34.9841 14.795 34.9841 13.3312 34.1161L3.22312 28.0999ZM18.3718 34.9564L28.4753 28.9402C30.2257 27.8968 31.2284 26.1053 31.2284 24.0183V11.9814C31.2284 9.89445 30.2257 8.10299 28.4753 7.05951L18.3718 1.04335C16.6169 -0.000127375 14.6115 -0.000127375 12.8611 1.04335L2.75308 7.05951C1.00275 8.10299 0 9.89445 0 11.9814V24.0137C0 26.1007 1.00275 27.8921 2.75308 28.9356L12.8566 34.9518C14.6115 35.9999 16.6169 35.9999 18.3718 34.9564Z" fill="url(#paint0_linear_351_331)"></path><path d="M9.61114 28.0999C8.15178 27.2319 7.3281 25.759 7.3281 24.0183V11.9814C7.3281 10.2407 8.15178 8.76786 9.61114 7.89983L19.7147 1.88367C21.1741 1.01565 22.8214 1.01565 24.2853 1.88367L34.3888 7.89983C35.8482 8.76786 36.6719 10.2407 36.6719 11.9814V24.0183C36.6719 25.759 35.8482 27.2319 34.3888 28.0999L24.2853 34.1161C22.8259 34.9841 21.1785 34.9841 19.7147 34.1161L9.61114 28.0999ZM24.7553 34.9564L34.8589 28.9402C36.6092 27.8968 37.6119 26.1053 37.6119 24.0183V11.9814C37.6119 9.89445 36.6092 8.10299 34.8589 7.05951L24.7553 1.04335C23.0005 -0.000127375 20.995 -0.000127375 19.2447 1.04335L9.1411 7.05951C7.39077 8.10299 6.38802 9.89445 6.38802 11.9814V24.0137C6.38802 26.1007 7.39077 27.8921 9.1411 28.9356L19.2447 34.9518C20.995 35.9999 23.0005 35.9999 24.7553 34.9564Z" fill="url(#paint1_linear_351_331)"></path><path d="M15.9947 28.0999C14.5354 27.2319 13.7117 25.759 13.7117 24.0183V11.9814C13.7117 10.2407 14.5354 8.76786 15.9947 7.89983L26.0983 1.88367C27.5577 1.01565 29.205 1.01565 30.6689 1.88367L40.7724 7.89983C42.2318 8.76786 43.0555 10.2407 43.0555 11.9814V24.0183C43.0555 25.759 42.2318 27.2319 40.7724 28.0999L30.6689 34.1161C29.2095 34.9841 27.5622 34.9841 26.0983 34.1161L15.9947 28.0999ZM31.1389 34.9564L41.2425 28.9402C42.9928 27.8968 43.9956 26.1053 43.9956 24.0183V11.9814C43.9956 9.89445 42.9928 8.10299 41.2425 7.05951L31.1389 1.04335C29.3886 -0.000127375 27.3831 -0.000127375 25.6283 1.04335L15.5247 7.05951C13.7744 8.10299 12.7716 9.89445 12.7716 11.9814V24.0137C12.7716 26.1007 13.7744 27.8921 15.5247 28.9356L25.6283 34.9518C27.3831 35.9999 29.3886 35.9999 31.1389 34.9564Z" fill="url(#paint2_linear_351_331)"></path></g><defs><linearGradient id="paint0_linear_351_331" x1="7.86702e-09" y1="9.48494" x2="40.9572" y2="29.8012" gradientUnits="userSpaceOnUse"><stop offset="0.175" stop-color="#8236FB"></stop><stop offset="1" stop-color="#076EF4"></stop></linearGradient><linearGradient id="paint1_linear_351_331" x1="7.86702e-09" y1="9.48494" x2="40.9572" y2="29.8012" gradientUnits="userSpaceOnUse"><stop offset="0.175" stop-color="#8236FB"></stop><stop offset="1" stop-color="#076EF4"></stop></linearGradient><linearGradient id="paint2_linear_351_331" x1="7.86702e-09" y1="9.48494" x2="40.9572" y2="29.8012" gradientUnits="userSpaceOnUse"><stop offset="0.175" stop-color="#8236FB"></stop><stop offset="1" stop-color="#076EF4"></stop></linearGradient><clipPath id="clip0_351_331"><rect width="44" height="36" fill="white"></rect></clipPath></defs></svg>