<svg xmlns="http://www.w3.org/2000/svg" width="174" height="54" viewBox="0 0 174 54" fill="none"><g clip-path="url(#clip0_283_83)"><path d="M164.374 24.919C164.374 24.3655 164.608 23.8971 165.076 23.5139C165.545 23.1307 166.205 22.9391 167.056 22.9391C167.812 22.9391 168.557 23.0881 169.292 23.3755C170.026 23.6629 170.782 24.0887 171.527 24.6422L173.081 22.4494C172.229 21.7682 171.325 21.2572 170.356 20.906C169.387 20.5547 168.302 20.3737 167.088 20.3737C166.268 20.3737 165.513 20.4908 164.831 20.7144C164.14 20.9379 163.554 21.2679 163.054 21.6937C162.564 22.1194 162.181 22.6304 161.894 23.2158C161.617 23.8013 161.468 24.4613 161.468 25.1851C161.468 25.9515 161.585 26.6115 161.83 27.1437C162.074 27.6759 162.436 28.1336 162.894 28.5168C163.362 28.8894 163.937 29.2087 164.618 29.4642C165.31 29.7197 166.087 29.9432 166.971 30.1455C167.737 30.3371 168.365 30.518 168.855 30.6883C169.334 30.8587 169.717 31.0503 169.994 31.2419C170.271 31.4335 170.462 31.657 170.558 31.8912C170.665 32.1254 170.707 32.3915 170.707 32.6895C170.707 33.3388 170.441 33.8498 169.92 34.2223C169.398 34.5949 168.685 34.7865 167.78 34.7865C166.747 34.7865 165.811 34.6055 165.002 34.233C164.182 33.8604 163.373 33.3282 162.575 32.6363L160.829 34.712C161.819 35.6061 162.894 36.2767 164.065 36.7025C165.225 37.139 166.449 37.3519 167.716 37.3519C168.578 37.3519 169.377 37.2454 170.1 37.0219C170.824 36.7983 171.442 36.479 171.953 36.0532C172.464 35.6274 172.868 35.1058 173.155 34.4991C173.443 33.8817 173.592 33.1898 173.592 32.4021C173.592 31.7102 173.475 31.1035 173.251 30.5925C173.028 30.0816 172.687 29.6345 172.24 29.2513C171.804 28.8681 171.239 28.5381 170.569 28.272C169.898 28.0059 169.132 27.7611 168.27 27.5375C167.482 27.3459 166.833 27.165 166.311 26.9947C165.8 26.8244 165.396 26.6328 165.108 26.4305C164.821 26.2283 164.619 26.0047 164.512 25.7705C164.427 25.5257 164.374 25.249 164.374 24.919ZM146.959 24.919C146.959 24.3655 147.193 23.8971 147.662 23.5139C148.13 23.1307 148.79 22.9391 149.642 22.9391C150.397 22.9391 151.142 23.0881 151.877 23.3755C152.611 23.6629 153.367 24.0887 154.112 24.6422L155.666 22.4494C154.815 21.7682 153.91 21.2572 152.941 20.906C151.973 20.5547 150.887 20.3737 149.674 20.3737C148.854 20.3737 148.098 20.4908 147.417 20.7144C146.725 20.9379 146.14 21.2679 145.639 21.6937C145.15 22.1194 144.766 22.6304 144.479 23.2158C144.202 23.8013 144.053 24.4613 144.053 25.1851C144.053 25.9515 144.17 26.6115 144.415 27.1437C144.66 27.6759 145.022 28.1336 145.48 28.5168C145.948 28.8894 146.523 29.2087 147.204 29.4642C147.896 29.7197 148.673 29.9432 149.556 30.1455C150.323 30.3371 150.951 30.518 151.441 30.6883C151.92 30.8587 152.303 31.0503 152.579 31.2419C152.856 31.4335 153.048 31.657 153.144 31.8912C153.25 32.1254 153.293 32.3915 153.293 32.6895C153.293 33.3388 153.027 33.8498 152.505 34.2223C151.983 34.5949 151.27 34.7865 150.365 34.7865C149.333 34.7865 148.396 34.6055 147.587 34.233C146.768 33.8604 145.959 33.3282 145.16 32.6363L143.414 34.712C144.404 35.6061 145.48 36.2767 146.65 36.7025C147.811 37.139 149.035 37.3519 150.302 37.3519C151.164 37.3519 151.962 37.2454 152.686 37.0219C153.41 36.7983 154.027 36.479 154.538 36.0532C155.049 35.6274 155.454 35.1058 155.741 34.4991C156.028 33.8817 156.177 33.1898 156.177 32.4021C156.177 31.7102 156.06 31.1035 155.837 30.5925C155.613 30.0816 155.273 29.6345 154.825 29.2513C154.389 28.8681 153.825 28.5381 153.154 28.272C152.484 28.0059 151.717 27.7611 150.855 27.5375C150.067 27.3459 149.418 27.165 148.896 26.9947C148.386 26.8244 147.981 26.6328 147.694 26.4305C147.406 26.2283 147.204 26.0047 147.098 25.7705C147.012 25.5257 146.959 25.249 146.959 24.919ZM138.39 20.5973H126.17V37.107H138.507V34.4885H129.044V30.0816H137.326V27.463H129.044V23.2158H138.38V20.5973H138.39ZM120.571 34.4672L118.708 32.5831C118.006 33.243 117.282 33.7646 116.558 34.1478C115.834 34.531 114.972 34.7226 113.961 34.7226C113.173 34.7226 112.449 34.5736 111.779 34.2649C111.108 33.9562 110.533 33.5411 110.044 32.9982C109.554 32.466 109.181 31.838 108.915 31.1248C108.649 30.4116 108.511 29.6452 108.511 28.8255C108.511 28.0059 108.649 27.2501 108.915 26.5369C109.181 25.8344 109.565 25.217 110.044 24.6848C110.533 24.1526 111.108 23.7374 111.779 23.4394C112.449 23.1307 113.173 22.9817 113.961 22.9817C114.908 22.9817 115.749 23.1733 116.484 23.5458C117.218 23.9184 117.921 24.4187 118.581 25.0361L120.443 22.8859C120.05 22.5133 119.634 22.162 119.198 21.8427C118.762 21.5233 118.283 21.2572 117.761 21.0337C117.239 20.8102 116.675 20.6292 116.047 20.5015C115.43 20.3737 114.738 20.3099 113.982 20.3099C112.726 20.3099 111.577 20.5334 110.544 20.9805C109.501 21.4275 108.607 22.0449 107.851 22.822C107.095 23.599 106.51 24.5038 106.095 25.547C105.679 26.5902 105.467 27.6972 105.467 28.8681C105.467 30.0603 105.679 31.178 106.105 32.2212C106.531 33.2537 107.116 34.1585 107.862 34.9249C108.607 35.6913 109.49 36.2874 110.512 36.7345C111.534 37.1709 112.652 37.3944 113.865 37.3944C114.632 37.3944 115.345 37.3306 115.973 37.1922C116.611 37.0538 117.197 36.8622 117.729 36.6067C118.261 36.3513 118.762 36.0426 119.23 35.6913C119.698 35.3294 120.145 34.9249 120.571 34.4672ZM101.07 34.4672L99.2075 32.5831C98.505 33.243 97.7811 33.7646 97.0573 34.1478C96.3335 34.531 95.4713 34.7226 94.46 34.7226C93.6723 34.7226 92.9485 34.5736 92.2779 34.2649C91.6073 33.9562 91.0325 33.5411 90.5428 32.9982C90.0532 32.466 89.6806 31.838 89.4145 31.1248C89.1484 30.4116 89.01 29.6452 89.01 28.8255C89.01 28.0059 89.1484 27.2501 89.4145 26.5369C89.6806 25.8344 90.0638 25.217 90.5428 24.6848C91.0325 24.1526 91.6073 23.7374 92.2779 23.4394C92.9485 23.1307 93.6723 22.9817 94.46 22.9817C95.4074 22.9817 96.2483 23.1733 96.9828 23.5458C97.7173 23.9184 98.4198 24.4187 99.0798 25.0361L100.943 22.8859C100.549 22.5133 100.134 22.162 99.6972 21.8427C99.2607 21.5233 98.7817 21.2572 98.2601 21.0337C97.7386 20.8102 97.1744 20.6292 96.5464 20.5015C95.929 20.3737 95.2371 20.3099 94.4813 20.3099C93.2253 20.3099 92.0756 20.5334 91.0431 20.9805C89.9999 21.4275 89.1058 22.0449 88.35 22.822C87.5943 23.599 87.0088 24.5038 86.5937 25.547C86.1785 26.5902 85.9656 27.6972 85.9656 28.8681C85.9656 30.0603 86.1785 31.178 86.6043 32.2212C87.0301 33.2537 87.6156 34.1585 88.3607 34.9249C89.1058 35.6913 89.9893 36.2874 91.0112 36.7345C92.0331 37.1709 93.1507 37.3944 94.3642 37.3944C95.1306 37.3944 95.8332 37.3306 96.4719 37.1922C97.1105 37.0538 97.696 36.8622 98.2282 36.6067C98.7604 36.3513 99.2607 36.0426 99.7291 35.6913C100.208 35.3294 100.655 34.9249 101.07 34.4672ZM77.2903 20.5973V30.1029C77.2903 31.6251 76.9177 32.7747 76.1726 33.5517C75.4275 34.3181 74.4163 34.712 73.1176 34.712C71.8083 34.712 70.7758 34.3075 70.0307 33.5092C69.2856 32.7108 68.913 31.5399 68.913 29.9964V20.6079H66.039V30.1135C66.039 31.3057 66.2093 32.3595 66.5393 33.2643C66.8693 34.1691 67.3376 34.9249 67.955 35.5423C68.5724 36.1597 69.3069 36.6174 70.1691 36.9261C71.0313 37.2348 71.9999 37.3838 73.075 37.3838C74.1608 37.3838 75.1401 37.2348 76.0129 36.9261C76.8858 36.6174 77.6309 36.1597 78.2377 35.5316C78.8551 34.9142 79.3234 34.1372 79.664 33.2111C80.0047 32.285 80.175 31.2099 80.175 29.9752V20.5973H77.2903ZM51.0727 24.919C51.0727 24.3655 51.3069 23.8971 51.7752 23.5139C52.2436 23.1307 52.9035 22.9391 53.7551 22.9391C54.5109 22.9391 55.256 23.0881 55.9905 23.3755C56.725 23.6629 57.4807 24.0887 58.2258 24.6422L59.7799 22.4494C58.9284 21.7682 58.0236 21.2572 57.0549 20.906C56.0863 20.5547 55.0005 20.3737 53.787 20.3737C52.9674 20.3737 52.2116 20.4908 51.5304 20.7144C50.8385 20.9379 50.253 21.2679 49.7528 21.6937C49.2631 22.1194 48.8799 22.6304 48.5925 23.2158C48.3157 23.8013 48.1667 24.4613 48.1667 25.1851C48.1667 25.9515 48.2838 26.6115 48.5286 27.1437C48.7734 27.6759 49.1354 28.1336 49.5931 28.5168C50.0614 28.8894 50.6363 29.2087 51.3175 29.4642C52.0094 29.7197 52.7865 29.9432 53.67 30.1455C54.4364 30.3371 55.0644 30.518 55.5541 30.6883C56.0331 30.8587 56.4163 31.0503 56.693 31.2419C56.9698 31.4335 57.1614 31.657 57.2572 31.8912C57.3636 32.1254 57.4062 32.3915 57.4062 32.6895C57.4062 33.3388 57.1401 33.8498 56.6185 34.2223C56.0969 34.5949 55.3837 34.7865 54.4789 34.7865C53.4358 34.7865 52.5097 34.6055 51.7007 34.233C50.8811 33.8604 50.0721 33.3282 49.2737 32.6363L47.56 34.7013C48.5499 35.5955 49.625 36.2661 50.7959 36.6919C51.9562 37.1283 53.1803 37.3412 54.447 37.3412C55.3092 37.3412 56.1076 37.2348 56.8314 37.0112C57.5552 36.7877 58.1726 36.4684 58.6836 36.0426C59.1945 35.6168 59.599 35.0952 59.8864 34.4885C60.1738 33.8711 60.3228 33.1792 60.3228 32.3915C60.3228 31.6996 60.2057 31.0928 59.9822 30.5819C59.7587 30.071 59.418 29.6239 58.971 29.2407C58.5345 28.8575 57.9704 28.5275 57.2998 28.2614C56.6292 27.9953 55.8627 27.7504 55.0005 27.5269C54.2128 27.3353 53.5635 27.1543 53.0419 26.984C52.531 26.8137 52.1265 26.6221 51.8391 26.4199C51.5517 26.2176 51.3494 25.9941 51.243 25.7599C51.1259 25.5257 51.0727 25.249 51.0727 24.919Z" fill="#162339"></path><path d="M137.656 42.919H133.536V48.4967H137.698V47.6132H134.505V46.123H137.304V45.2395H134.505V43.8025H137.656V42.919ZM127.916 44.7392C127.916 45.0266 127.81 45.2608 127.607 45.4311C127.405 45.6014 127.118 45.6866 126.766 45.6866H125.329V43.8025H126.756C127.128 43.8025 127.405 43.877 127.607 44.0367C127.82 44.1963 127.916 44.4305 127.916 44.7392ZM129.087 48.4861L127.586 46.3785C127.778 46.3253 127.959 46.2507 128.118 46.1549C128.278 46.0591 128.416 45.942 128.533 45.793C128.65 45.6546 128.746 45.495 128.81 45.3034C128.874 45.1224 128.906 44.9095 128.906 44.6753C128.906 44.4092 128.863 44.1538 128.768 43.9409C128.672 43.7173 128.533 43.5364 128.352 43.3873C128.171 43.2383 127.959 43.1212 127.703 43.0361C127.448 42.9509 127.16 42.9083 126.841 42.9083H124.361V48.4861H125.329V46.5381H126.564L127.937 48.4861H129.087ZM119.73 42.919H115.6V48.4967H119.762V47.6132H116.569V46.123H119.368V45.2395H116.569V43.8025H119.72V42.919H119.73ZM109.778 46.1443V48.4967H110.746V42.919H109.778V45.2395H107.106V42.919H106.126V48.4967H107.095V46.1443H109.778ZM97.9195 46.7723L94.939 42.919H94.0342V48.4967H95.0029V44.5263L98.0685 48.4967H98.8882V42.919H97.9195V46.7723ZM87.7007 46.272H85.7847L86.7427 44.0473L87.7007 46.272ZM87.2004 42.8764H86.2956L83.8474 48.4861H84.848L85.4228 47.1449H88.0626L88.6268 48.4861H89.6593L87.2004 42.8764ZM79.6321 47.7197V45.3779H77.2584V46.2295H78.6847V47.2726C78.5144 47.4004 78.3122 47.5068 78.0886 47.5813C77.8545 47.6558 77.6096 47.6984 77.3435 47.6984C77.0561 47.6984 76.8006 47.6452 76.5665 47.5494C76.3323 47.4536 76.1407 47.3046 75.9704 47.1342C75.8001 46.9533 75.6723 46.7404 75.5872 46.4956C75.502 46.2507 75.4488 45.9846 75.4488 45.6972C75.4488 45.4311 75.4914 45.1756 75.5872 44.9308C75.683 44.686 75.8107 44.4837 75.9704 44.3028C76.13 44.1218 76.3216 43.9834 76.5452 43.877C76.7687 43.7706 77.0029 43.7173 77.2584 43.7173C77.4287 43.7173 77.599 43.728 77.7374 43.7599C77.8864 43.7918 78.0141 43.8238 78.1419 43.877C78.259 43.9302 78.376 43.9941 78.4931 44.0686C78.6102 44.1431 78.7167 44.2283 78.8231 44.3134L79.4405 43.5683C79.3021 43.4512 79.1531 43.3341 78.9934 43.249C78.8444 43.1532 78.6847 43.0787 78.5144 43.0148C78.3441 42.9509 78.1632 42.8977 77.9609 42.8658C77.7587 42.8338 77.5351 42.8125 77.3009 42.8125C76.8858 42.8125 76.4919 42.887 76.1407 43.0467C75.7894 43.1957 75.4807 43.4086 75.2252 43.6747C74.9698 43.9409 74.7675 44.2389 74.6291 44.5902C74.4908 44.9415 74.4163 45.314 74.4163 45.7079C74.4163 46.1124 74.4908 46.4956 74.6185 46.8468C74.7569 47.1981 74.9485 47.4962 75.204 47.7623C75.4594 48.0177 75.7575 48.22 76.1194 48.369C76.4707 48.518 76.8752 48.5925 77.3009 48.5925C77.5458 48.5925 77.7799 48.5713 78.0035 48.5287C78.227 48.4861 78.4293 48.4222 78.6315 48.3371C78.8231 48.2626 79.0041 48.1668 79.1744 48.0603C79.3341 47.9432 79.4937 47.8368 79.6321 47.7197ZM69.0301 45.7079C69.0301 45.974 68.9875 46.2295 68.8917 46.4743C68.7959 46.7191 68.6682 46.9213 68.5085 47.1023C68.3488 47.2833 68.1466 47.4216 67.9124 47.5281C67.6782 47.6345 67.4334 47.6878 67.1566 47.6878C66.8799 47.6878 66.6244 47.6345 66.3902 47.5281C66.1561 47.4216 65.9538 47.2833 65.7941 47.1023C65.6238 46.9213 65.4961 46.7085 65.4003 46.4743C65.3045 46.2295 65.2619 45.974 65.2619 45.7079C65.2619 45.4417 65.3045 45.1756 65.4003 44.9415C65.4961 44.6966 65.6238 44.4944 65.7835 44.3134C65.9432 44.1325 66.1454 43.9941 66.3796 43.8876C66.6138 43.7812 66.8586 43.728 67.1354 43.728C67.4121 43.728 67.6676 43.7812 67.9018 43.8876C68.136 43.9941 68.3382 44.1325 68.4979 44.3134C68.6682 44.4944 68.7959 44.7073 68.8917 44.9415C68.9769 45.1863 69.0301 45.4417 69.0301 45.7079ZM70.052 45.6972C70.052 45.3034 69.9775 44.9308 69.8391 44.5795C69.7007 44.2283 69.4985 43.9196 69.243 43.6641C68.9875 43.4086 68.6788 43.1957 68.3276 43.0467C67.9763 42.8977 67.5824 42.8232 67.146 42.8232C66.7202 42.8232 66.3264 42.8977 65.9645 43.0574C65.6132 43.2064 65.3045 43.4193 65.0384 43.6854C64.7829 43.9515 64.5806 44.2496 64.4316 44.6008C64.2932 44.9521 64.2187 45.3247 64.2187 45.7185C64.2187 46.1124 64.2932 46.4849 64.4316 46.8362C64.57 47.1875 64.7723 47.4962 65.0277 47.7516C65.2832 48.0071 65.5919 48.22 65.9432 48.369C66.2944 48.518 66.6883 48.5925 67.1247 48.5925C67.5505 48.5925 67.9443 48.518 68.3063 48.3584C68.6575 48.2093 68.9662 47.9964 69.2323 47.7303C69.4878 47.4642 69.6901 47.1662 69.8391 46.8149C69.9775 46.4636 70.052 46.0911 70.052 45.6972ZM56.4482 48.4861H60.3548V47.6026H57.4275V42.9083H56.4588V48.4861H56.4482ZM48.7522 44.3773C48.7522 44.1963 48.8267 44.0367 48.9863 43.8983C49.146 43.7705 49.3695 43.7067 49.6569 43.7067C49.9124 43.7067 50.1679 43.7599 50.4127 43.8557C50.6575 43.9515 50.913 44.1005 51.1685 44.2815L51.6901 43.5364C51.4027 43.3128 51.094 43.1319 50.7746 43.0148C50.4446 42.8977 50.0827 42.8338 49.6676 42.8338C49.3908 42.8338 49.1354 42.8764 48.9012 42.9509C48.667 43.0254 48.4647 43.1425 48.3051 43.2809C48.1348 43.4193 48.007 43.6002 47.9112 43.7918C47.8154 43.9941 47.7728 44.2176 47.7728 44.4518C47.7728 44.7073 47.8154 44.9308 47.9006 45.1118C47.9857 45.2927 48.1028 45.4417 48.2625 45.5695C48.4222 45.6972 48.6138 45.8037 48.8479 45.8888C49.0821 45.974 49.3482 46.0485 49.6463 46.123C49.9018 46.1869 50.1147 46.2507 50.285 46.304C50.4446 46.3572 50.5724 46.4211 50.6682 46.4956C50.764 46.5594 50.8278 46.6339 50.8598 46.7191C50.8917 46.7936 50.913 46.8894 50.913 46.9852C50.913 47.1981 50.8278 47.3791 50.6469 47.5068C50.4659 47.6345 50.2317 47.6984 49.9231 47.6984C49.5718 47.6984 49.2631 47.6345 48.9863 47.5068C48.7096 47.3791 48.4328 47.1981 48.1667 46.9639L47.5812 47.6665C47.9112 47.9645 48.2838 48.1881 48.667 48.3371C49.0608 48.4861 49.476 48.5606 49.9018 48.5606C50.1892 48.5606 50.4659 48.518 50.7108 48.4542C50.9556 48.3797 51.1685 48.2732 51.3388 48.1242C51.5091 47.9858 51.6475 47.8049 51.7433 47.6026C51.8391 47.4004 51.8923 47.1555 51.8923 46.8894C51.8923 46.6552 51.8497 46.453 51.7752 46.2827C51.7007 46.1124 51.5836 45.9633 51.4346 45.825C51.2856 45.6972 51.094 45.5801 50.8704 45.495C50.6469 45.4098 50.3808 45.3247 50.0934 45.2501C49.8273 45.1863 49.6037 45.1224 49.4334 45.0692C49.2631 45.016 49.1247 44.9521 49.0289 44.8776C48.9331 44.8137 48.8586 44.7392 48.8267 44.654C48.7628 44.5795 48.7522 44.4837 48.7522 44.3773Z" fill="#162339"></path><path d="M32.2317 15.4027C34.9142 18.6706 35.5422 23.1626 33.8603 27.0479C39.47 20.5334 43.2382 14.5086 45.1543 8.97339C45.2713 8.63276 45.133 8.27085 44.8349 8.08989C44.5262 7.90893 44.143 7.96215 43.8982 8.22827C40.13 12.4009 36.2341 14.796 32.2317 15.4027ZM29.0171 0C32.5298 0 35.3825 2.85275 35.3825 6.36546C35.3825 9.87818 32.5298 12.7309 29.0171 12.7309C25.5043 12.7309 22.6516 9.87818 22.6516 6.36546C22.6516 2.85275 25.5043 0 29.0171 0ZM17.968 9.39917C15.3707 9.39917 13.2631 7.29154 13.2631 4.69426C13.2631 7.29154 11.1554 9.39917 8.55815 9.39917C11.1554 9.39917 13.2631 11.5068 13.2631 14.1041C13.2631 11.5068 15.3707 9.39917 17.968 9.39917ZM7.09984 14.5086C5.14124 14.5086 3.54455 12.9225 3.54455 10.9533C3.54455 12.9119 1.95851 14.5086 -0.0107422 14.5086C1.94786 14.5086 3.54455 16.0946 3.54455 18.0639C3.5552 16.0946 5.14124 14.5086 7.09984 14.5086ZM19.5859 23.3223C25.1318 28.7085 15.0194 44.5902 1.74562 52.531C1.41563 52.7227 1.2879 53.1378 1.44757 53.4891C1.60724 53.8297 2.00109 54 2.363 53.8829C20.5652 47.8474 35.3293 30.55 30.007 18.3406C26.0579 9.97398 12.3476 17.0313 5.31155 23.3117C5.02415 23.5671 4.98157 23.9929 5.20511 24.3016C5.42864 24.6103 5.84378 24.7061 6.17376 24.5145C11.379 21.5659 16.7119 20.6824 19.5859 23.3223Z" fill="#162339"></path></g><defs><clipPath id="clip0_283_83"><rect width="173.624" height="54" fill="white"></rect></clipPath></defs></svg>