<svg xmlns="http://www.w3.org/2000/svg" viewBox="0 0 40 40"><path d="M13.467.073c-2.012.305-3.9 1.736-4.767 3.614-.361.78-.509 1.436-.548 2.421l-.035.875-.509.046c-.731.065-1.033.149-1.708.474-1.02.492-1.685 1.127-2.197 2.1-.684 1.301-.712 2.997-.069 4.265.091.18.166.341.166.357 0 .016-.16.119-.356.23-.538.304-1.345.98-1.715 1.436-.275.341-.329.452-.329.682a.78.78 0 0 0 .502.732c.35.146.602.028 1.161-.543 1.162-1.189 2.515-1.759 4.182-1.761.628-.001.693-.014.879-.17.412-.346.401-.885-.025-1.22-.166-.13-.264-.144-.996-.144-.704 0-1.337.063-1.71.171-.077.023-.164-.085-.315-.391-.278-.566-.369-1.031-.327-1.678a3.092 3.092 0 0 1 1.232-2.312c.591-.45 1.043-.606 1.866-.642l.683-.03.135.316c.398.928 1.505 2.25 1.955 2.335a.78.78 0 0 0 .911-.77c0-.288-.085-.426-.613-.992-.816-.877-1.204-1.915-1.198-3.207.004-.831.114-1.3.476-2.034.825-1.672 2.371-2.633 4.235-2.633 1.333 0 2.417.444 3.334 1.364.807.811 1.198 1.581 1.369 2.696.045.29.061 5.22.049 14.44l-.019 14-.152.489c-.377 1.22-1.123 2.267-2.081 2.921a5.074 5.074 0 0 1-2.933.908c-1.042.005-1.863-.219-2.784-.761-.501-.295-1.392-1.185-1.707-1.706-.909-1.505-1.014-3.371-.277-4.934.292-.62.561-1.009 1.082-1.564.39-.417.419-.469.419-.757 0-.263-.034-.343-.226-.536-.255-.255-.57-.301-.899-.131-.427.221-1.317 1.325-1.723 2.138-.368.737-.685 1.86-.685 2.429 0 .236-.015.256-.226.29-.331.054-1.093-.058-1.546-.226-2.026-.753-2.996-3.123-2.063-5.04.38-.78.317-.752 1.043-.469a8.15 8.15 0 0 0 1.707.482c.57.09 1.018-.232 1.018-.73 0-.514-.287-.759-1.017-.865-.384-.056-1.109-.297-1.517-.505-.893-.454-1.79-1.309-2.308-2.202-.363-.623-.553-.798-.87-.798-.46 0-.822.345-.82.78.002.401.807 1.638 1.525 2.345.302.298.35.376.287.467a5.284 5.284 0 0 0-.111 5.942c.946 1.446 2.42 2.28 4.223 2.388l.759.045.129.5c.494 1.905 2.033 3.669 3.883 4.45 1.103.465 2.452.649 3.576.488.676-.097 1.815-.465 2.324-.751 1.43-.803 2.556-2.097 3.108-3.571.288-.769.409-1.4.465-2.433l.047-.85h5.635l.62 1.45c.341.798.666 1.522.722 1.609.198.312.399.341 2.372.341 1.423 0 1.835.019 1.836.084.001.201.34.781.661 1.132.638.698 1.677 1.062 2.605.913 1.281-.207 2.262-1.191 2.486-2.494.21-1.23-.491-2.538-1.669-3.114-.434-.212-.481-.221-1.251-.221-.732 0-.833.016-1.189.183-.73.342-1.335.959-1.559 1.59l-.117.33-1.527-.018-1.527-.018-.625-1.467c-.448-1.049-.682-1.519-.825-1.65l-.199-.183H20.8v-4h6.932l.197.435c.265.583.848 1.166 1.452 1.451.427.202.495.214 1.219.214.725 0 .791-.012 1.219-.214 1.227-.581 1.944-1.896 1.719-3.153-.291-1.629-1.742-2.693-3.361-2.463-1.061.15-1.972.899-2.371 1.948l-.069.182H20.8v-4.4h13.321l.203.434c.788 1.685 2.967 2.256 4.425 1.16.911-.684 1.382-1.808 1.191-2.844-.209-1.137-.898-1.951-1.987-2.348-.352-.129-.512-.147-1.074-.125-.599.025-.707.05-1.158.273a3.03 3.03 0 0 0-1.397 1.416l-.203.434H20.8v-4.8h3.469c3.244 0 3.471.008 3.507.117.498 1.511 2.069 2.376 3.593 1.98 1.115-.291 1.98-1.261 2.175-2.439.201-1.212-.509-2.545-1.641-3.081a2.988 2.988 0 0 0-4.127 1.773c-.036.109-.263.117-3.507.117H20.8v-4h3.14c2.764 0 3.167-.013 3.369-.109.279-.132.243-.067.999-1.825l.616-1.433 1.498-.018 1.498-.018.204.437c.888 1.898 3.312 2.339 4.781.87 1.156-1.155 1.183-2.923.064-4.096-.652-.684-1.412-.983-2.349-.924-1.207.075-2.259.897-2.644 2.066-.035.107-.188.116-1.94.116h-1.901l-.201.184c-.147.132-.376.587-.83 1.65l-.629 1.466-2.829.018-2.829.017-.047-.884c-.07-1.286-.241-1.998-.702-2.918-.687-1.37-1.98-2.53-3.415-3.063-.883-.329-2.258-.471-3.186-.33M35.24 3.365c.356.106.668.382.86.762.179.356.115.991-.137 1.355-.369.533-1.158.752-1.73.48-.328-.156-.671-.578-.762-.937-.182-.725.251-1.472.98-1.692.273-.082.425-.076.789.032m-3.943 9.053c.145.083.355.28.467.438.181.258.203.341.203.777 0 .437-.022.52-.203.778-.599.852-1.827.819-2.345-.063-.396-.674-.159-1.574.508-1.926.401-.212 1-.213 1.37-.004M14.771 13.95c-.182.182-.223.283-.259.634-.053.514-.282.98-.639 1.302-.339.307-.657.441-1.17.494-.336.035-.439.078-.62.257-.181.181-.216.266-.216.522 0 .241.039.35.188.517.16.178.248.216.562.242.819.068 1.717-.307 2.424-1.012.691-.69 1.026-1.448 1.026-2.327 0-.357-.021-.413-.227-.619-.193-.193-.273-.227-.54-.227-.265 0-.347.034-.529.217m22.748 4.754c.522.218.878.743.878 1.296 0 .762-.644 1.4-1.414 1.4-.599 0-1.25-.546-1.349-1.13-.184-1.086.893-1.981 1.885-1.566m-37.135.48c-.445.275-.483.857-.08 1.211.395.346.973.232 1.195-.235.128-.271.127-.385-.008-.67-.19-.399-.721-.546-1.107-.306m11.883 3.794c-.248.039-.945.293-1.12.408-.469.307-.44 1.059.051 1.313.264.137.466.127.883-.041.529-.214 1.265-.199 1.745.035.785.384 1.191 1.007 1.23 1.884.021.479.002.592-.158.949-.188.418-.633.902-1.012 1.097-.262.136-.445.517-.39.812.055.296.437.632.719.632.351 0 .793-.266 1.323-.796.583-.581.863-1.084 1.034-1.851.352-1.582-.439-3.278-1.881-4.036a4.025 4.025 0 0 0-2.424-.406m18.973 1.759c.463.224.761.715.759 1.249-.005.945-.931 1.631-1.806 1.338-.527-.176-.991-.781-.992-1.291-.001-1.045 1.105-1.748 2.039-1.296m4.218 8.971c.48.239.695.572.73 1.13.045.7-.296 1.213-.946 1.426-.882.29-1.808-.394-1.803-1.331.005-1.071 1.053-1.706 2.019-1.225" fill="currentColor" fill-rule="evenodd"/></svg>