<svg xmlns="http://www.w3.org/2000/svg" viewBox="0 0 13 12"><path d="M12.501.209c-.805.48-1.846 1.24-2.697 1.968a35.25 35.25 0 0 0-3.201 3.168C5.902 6.134 5 7.256 4.518 7.937l-.104.148-.988-.984c-1.327-1.32-1.721-1.673-2.038-1.832-.157-.078-.168-.08-.401-.08-.227 0-.248.004-.383.07-.437.215-.685.706-.573 1.13.072.27.212.477.606.898 1.088 1.163 2.125 2.539 2.699 3.58.35.635.592.943.834 1.061.107.053.137.057.321.05a.658.658 0 0 0 .369-.09c.207-.102.453-.295.589-.461.127-.157.292-.485.455-.908.559-1.447.841-2.044 1.501-3.172.519-.887 1.622-2.575 2.39-3.655.913-1.286 1.877-2.464 2.799-3.424.131-.135.234-.246.229-.246a7.5 7.5 0 0 0-.322.187" fill="currentColor" fill-rule="evenodd"/></svg>