<svg xmlns="http://www.w3.org/2000/svg" viewBox="0 0 16 12"><g fill="none" class="nc-icon-wrapper"><path d="M15.5586 0.941406C15.7695 1.17578 15.875 1.44531 15.875 1.75C15.875 2.05469 15.7695 2.32422 15.5586 2.55859L6.55859 11.5586C6.32422 11.7695 6.05469 11.875 5.75 11.875C5.44531 11.875 5.17578 11.7695 4.94141 11.5586L0.441406 7.05859C0.230469 6.82422 0.125 6.55469 0.125 6.25C0.125 5.94531 0.230469 5.67578 0.441406 5.44141C0.675781 5.23047 0.945312 5.125 1.25 5.125C1.55469 5.125 1.82422 5.23047 2.05859 5.44141L5.75 9.16797L13.9414 0.941406C14.1758 0.730469 14.4453 0.625 14.75 0.625C15.0547 0.625 15.3242 0.730469 15.5586 0.941406Z" fill="currentColor"></path></g></svg>