<svg xmlns="http://www.w3.org/2000/svg" viewBox="0 0 46 46"><path d="M22.387.04a35.08 35.08 0 0 1-.69.116c-2.453.397-4.819 2.148-5.967 4.416-.145.287-.195.321-.528.371-.202.03-.488.111-.635.18-.234.11-.792.131-4.332.17l-4.063.043-.563.202a6.757 6.757 0 0 0-.986.456c-.574.345-1.397 1.24-1.69 1.838-.514 1.05-.484.191-.462 13.344l.021 11.906.179.477a4.824 4.824 0 0 0 2.858 2.843l.566.206 6.382.022 6.383.021v3.965l-.5.094c-1.929.364-3.485 2.183-3.516 4.11-.01.602.122.89.497 1.084.144.074 1.839.091 7.749.076l7.564-.018.199-.187c.308-.29.39-.668.283-1.314-.13-.788-.344-1.34-.75-1.936-.623-.913-1.683-1.614-2.746-1.815l-.5-.094V36.647h1.178c1.092 0 1.193-.012 1.389-.167.481-.377.509-.978.066-1.367l-.262-.23H18.209c-8.076 0-11.417-.024-11.708-.086a2.807 2.807 0 0 1-2.002-1.592c-.193-.41-.236-.611-.266-1.246l-.037-.756h37.608l-.037.756c-.03.635-.073.836-.266 1.246a2.807 2.807 0 0 1-2.002 1.592c-.224.048-.891.086-1.484.086h-1.077l-.261.261c-.22.221-.26.315-.26.612 0 .28.045.402.223.602l.224.25h1.482c1.358 0 1.53-.015 2.044-.184 1.325-.434 2.433-1.514 2.939-2.865l.179-.477.021-11.906c.022-13.163.053-12.288-.467-13.356-.335-.69-1.294-1.654-1.972-1.985-1.039-.506-.905-.493-5.71-.525l-4.371-.029-.362-.705C29.2 1.758 26.255-.027 23.115.01a8.458 8.458 0 0 0-.728.03m2.606 2.013c2.31.705 3.877 2.324 4.594 4.746.209.704.462.944.998.944 1.376 0 2.594.735 3.17 1.911.234.479.247.549.247 1.386 0 .831-.014.911-.243 1.394a3.386 3.386 0 0 1-2.019 1.798c-.402.136-.833.143-9.2.143-9.811 0-9.242.031-9.884-.546-.518-.465-.721-.963-.681-1.671.047-.857.381-1.368 1.194-1.826.222-.126.447-.302.499-.393.056-.099.094-.468.095-.931.001-.653.028-.818.181-1.111.301-.578.524-.767.908-.767.374 0 .774-.143.932-.333.06-.073.217-.127.368-.127.487 0 .655-.159 1.073-1.01.213-.435.549-1.005.745-1.265.911-1.206 2.303-2.092 3.842-2.446.68-.157 2.527-.096 3.181.104M12.266 7.149c-.001.011-.07.238-.154.505a3.667 3.667 0 0 0-.152.888c0 .389-.011.41-.347.652-.613.439-1.15 1.275-1.372 2.13-.347 1.337.075 2.758 1.109 3.733.871.823 1.686 1.12 3.067 1.12h.763V18.748l-.787.784-.786.784-.421-.161c-.628-.239-1.699-.183-2.336.123-.607.291-1.14.837-1.444 1.477-.224.474-.244.58-.244 1.283 0 .708.019.806.246 1.271.301.615.919 1.224 1.536 1.513.387.181.535.206 1.208.206.701 0 .809-.02 1.265-.239.961-.463 1.519-1.163 1.729-2.173.13-.622.097-1.049-.129-1.65l-.143-.383.993-.997c.545-.549 1.028-1.095 1.073-1.213.046-.124.08-.854.08-1.706v-1.49h5.06v2.702l-.001 2.703-.494.255c-1.828.946-2.189 3.364-.721 4.832.454.453.976.724 1.657.857.898.176 1.915-.158 2.615-.857 1.468-1.468 1.107-3.886-.721-4.832l-.494-.255-.001-2.703v-2.702h5.06v1.49c0 .852.034 1.582.08 1.706.045.118.528.664 1.073 1.213l.993.997-.144.383a2.957 2.957 0 0 0 .29 2.699c.357.552.671.822 1.311 1.126.454.216.567.237 1.265.237.708 0 .806-.019 1.271-.246.616-.302 1.225-.92 1.511-1.536.178-.384.205-.54.207-1.208.001-.705-.018-.808-.243-1.283-.304-.64-.837-1.186-1.444-1.477-.637-.306-1.708-.362-2.336-.123l-.421.161-.786-.784-.787-.784v-2.552l.467-.052a6.068 6.068 0 0 0 1.948-.606c.611-.319 1.687-1.396 2.006-2.006.779-1.491.83-3.174.141-4.626-.276-.582-.896-1.429-1.206-1.649-.161-.114.038-.122 2.701-.106l2.875.017.479.26a3.033 3.033 0 0 1 1.31 1.375l.204.435.021 10.063.021 10.062H4.213l.021-10.062.021-10.063.204-.435a3.074 3.074 0 0 1 1.828-1.601c.167-.051 5.981-.103 5.979-.053m.434 14.75c.368.175.651.573.697.981.097.863-.755 1.61-1.54 1.351-.591-.195-.911-.631-.911-1.24 0-.475.23-.848.652-1.057.389-.193.745-.204 1.102-.035m21.696.033c.427.207.658.579.658 1.059 0 .585-.256.966-.804 1.194-.375.157-.558.149-.954-.042-.698-.338-.924-1.249-.461-1.856.387-.507.972-.64 1.561-.355M23.69 23.479c.53.362.706 1.166.364 1.668-.296.436-.551.575-1.054.575s-.758-.139-1.054-.575c-.342-.501-.168-1.316.356-1.666.363-.243 1.034-.244 1.388-.002M25.3 38.64v1.993h-4.6v-3.986h4.6v1.993m2.56 4.017c.249.122.584.353.745.514.276.277.605.812.605.986 0 .054-1.963.08-6.21.08-4.285 0-6.21-.025-6.21-.081 0-.127.231-.546.463-.839.269-.341.945-.751 1.384-.839.186-.037 2.235-.062 4.555-.056l4.216.013.452.222" fill="currentColor" fill-rule="evenodd"/></svg>