<svg xmlns="http://www.w3.org/2000/svg" viewBox="0 0 40 40"><g fill="none" class="nc-icon-wrapper"><path fill-rule="evenodd" clip-rule="evenodd" d="M16.875 29.8437C16.875 31.5698 18.274 32.9687 20 32.9687C21.726 32.9687 23.125 31.5698 23.125 29.8437C23.125 28.1177 21.726 26.7187 20 26.7187C18.274 26.7187 16.875 28.1177 16.875 29.8437ZM20 31.4062C19.1369 31.4062 18.4375 30.7068 18.4375 29.8437C18.4375 28.9807 19.1369 28.2812 20 28.2812C20.8631 28.2812 21.5625 28.9807 21.5625 29.8437C21.5625 30.7068 20.8631 31.4062 20 31.4062Z" fill="currentColor"></path><path fill-rule="evenodd" clip-rule="evenodd" d="M17.5444 39.9671C17.7445 39.9135 17.9152 39.7826 18.0188 39.6031L19.1302 37.6781C19.4107 37.7129 19.7009 37.7344 20 37.7344C20.2991 37.7344 20.5893 37.7129 20.8698 37.6781L21.9812 39.6031C22.0848 39.7826 22.2555 39.9135 22.4556 39.9671C22.6558 40.0208 22.869 39.9927 23.0484 39.8891L27.1078 37.5453C27.2873 37.4417 27.4182 37.2711 27.4718 37.0709C27.5254 36.8707 27.4974 36.6575 27.3937 36.478L26.2655 34.5244C26.6116 34.0414 26.9015 33.5084 27.132 32.9687H29.375C29.8065 32.9687 30.1562 32.619 30.1562 32.1875V27.5C30.1562 27.0685 29.8065 26.7188 29.375 26.7188H27.1287C26.8958 26.1901 26.6064 25.695 26.268 25.2369L27.3937 23.2876C27.4974 23.1081 27.5254 22.8949 27.4718 22.6947C27.4182 22.4946 27.2873 22.3239 27.1078 22.2203L23.0484 19.8765C22.869 19.7729 22.6558 19.7449 22.4556 19.7985C22.2555 19.8521 22.0848 19.9831 21.9812 20.1625L20.8698 22.0875C20.5893 22.0527 20.2991 22.0312 20 22.0312C19.7009 22.0312 19.4107 22.0527 19.1302 22.0875L18.0188 20.1625C17.9152 19.9831 17.7445 19.8521 17.5444 19.7985C17.3442 19.7449 17.131 19.7729 16.9516 19.8765L12.8922 22.2203C12.7127 22.3239 12.5818 22.4946 12.5282 22.6947C12.4746 22.8949 12.5026 23.1081 12.6063 23.2876L13.732 25.2369C13.3936 25.695 13.1042 26.1901 12.8713 26.7188H10.625C10.1935 26.7188 9.84375 27.0685 9.84375 27.5V32.1875C9.84375 32.619 10.1935 32.9687 10.625 32.9687H12.868C13.0985 33.5084 13.3884 34.0414 13.7345 34.5244L12.6063 36.478C12.5026 36.6575 12.4746 36.8707 12.5282 37.0709C12.5818 37.2711 12.7127 37.4417 12.8922 37.5453L16.9516 39.8891C17.131 39.9927 17.3442 40.0208 17.5444 39.9671ZM14.3501 36.5828L15.3508 34.8501C15.5162 34.5636 15.4833 34.2039 15.2685 33.9523C14.7927 33.3946 14.4018 32.669 14.1367 31.9252C14.0258 31.614 13.7311 31.4062 13.4008 31.4062H11.4062V28.2812H13.4008C13.7311 28.2812 14.0258 28.0735 14.1367 27.7623C14.3935 27.0417 14.778 26.3882 15.2685 25.8134C15.4833 25.5617 15.5162 25.2021 15.3508 24.9155L14.3501 23.1828L17.0562 21.6203L18.0445 23.332C18.2098 23.6183 18.5373 23.7695 18.8624 23.7098C19.2489 23.6387 19.6243 23.5937 20 23.5937C20.3757 23.5937 20.7511 23.6387 21.1376 23.7098C21.4627 23.7695 21.7902 23.6183 21.9555 23.332L22.9438 21.6203L25.6499 23.1828L24.6492 24.9155C24.4838 25.2021 24.5167 25.5617 24.7315 25.8134C25.222 26.3882 25.6065 27.0417 25.8633 27.7623C25.9742 28.0735 26.2689 28.2812 26.5992 28.2812H28.5938V31.4062H26.5992C26.2689 31.4062 25.9742 31.614 25.8633 31.9252C25.5982 32.669 25.2073 33.3946 24.7315 33.9523C24.5167 34.2039 24.4838 34.5636 24.6492 34.8501L25.6499 36.5828L22.9438 38.1453L21.9555 36.4336C21.7902 36.1473 21.4627 35.9961 21.1376 36.0558C20.7511 36.1269 20.3757 36.1719 20 36.1719C19.6243 36.1719 19.2489 36.1269 18.8624 36.0558C18.5373 35.9961 18.2098 36.1473 18.0445 36.4336L17.0562 38.1453L14.3501 36.5828Z" fill="currentColor"></path><path fill-rule="evenodd" clip-rule="evenodd" d="M2.8125 28.2812C2.8125 29.576 3.8615 30.625 5.15625 30.625H10.625C11.0565 30.625 11.4062 30.2752 11.4062 29.8437C11.4062 29.4123 11.0565 29.0625 10.625 29.0625H5.15625C4.72444 29.0625 4.375 28.7131 4.375 28.2812V2.34375C4.375 1.91194 4.72444 1.5625 5.15625 1.5625H34.8437C35.2756 1.5625 35.625 1.91194 35.625 2.34375V28.2812C35.625 28.7131 35.2756 29.0625 34.8437 29.0625H29.375C28.9435 29.0625 28.5938 29.4123 28.5938 29.8437C28.5938 30.2752 28.9435 30.625 29.375 30.625H34.8437C36.1385 30.625 37.1875 29.576 37.1875 28.2812V2.34375C37.1875 1.049 36.1385 0 34.8437 0H5.15625C3.8615 0 2.8125 1.049 2.8125 2.34375V28.2812Z" fill="currentColor"></path><path fill-rule="evenodd" clip-rule="evenodd" d="M2.8125 5.46875C2.8125 5.90022 3.16228 6.25 3.59375 6.25H36.4062C36.8377 6.25 37.1875 5.90022 37.1875 5.46875C37.1875 5.03728 36.8377 4.6875 36.4062 4.6875H3.59375C3.16228 4.6875 2.8125 5.03728 2.8125 5.46875Z" fill="currentColor"></path><path fill-rule="evenodd" clip-rule="evenodd" d="M29.375 6.25C29.8065 6.25 30.1562 5.90022 30.1562 5.46875V0.781251C30.1562 0.349778 29.8065 0 29.375 0C28.9435 0 28.5937 0.349778 28.5937 0.781251V5.46875C28.5937 5.90022 28.9435 6.25 29.375 6.25Z" fill="currentColor"></path><path fill-rule="evenodd" clip-rule="evenodd" d="M9.84375 15.3125C9.84375 15.744 10.1935 16.0938 10.625 16.0938H29.375C29.8065 16.0938 30.1562 15.744 30.1562 15.3125C30.1562 14.881 29.8065 14.5313 29.375 14.5313H10.625C10.1935 14.5313 9.84375 14.881 9.84375 15.3125Z" fill="currentColor"></path><path d="M20.7813 10.625C20.7813 11.0564 20.4315 11.4062 20 11.4062C19.5686 11.4062 19.2188 11.0564 19.2188 10.625C19.2188 10.1935 19.5686 9.84375 20 9.84375C20.4315 9.84375 20.7813 10.1935 20.7813 10.625Z" fill="currentColor"></path><path fill-rule="evenodd" clip-rule="evenodd" d="M7.5 10.625C7.5 11.0565 7.84978 11.4063 8.28125 11.4063H16.4844C16.9158 11.4063 17.2656 11.0565 17.2656 10.625C17.2656 10.1935 16.9158 9.84375 16.4844 9.84375H8.28125C7.84978 9.84375 7.5 10.1935 7.5 10.625Z" fill="currentColor"></path><path fill-rule="evenodd" clip-rule="evenodd" d="M22.7344 10.625C22.7344 11.0565 23.0842 11.4063 23.5156 11.4063H31.7187C32.1502 11.4063 32.5 11.0565 32.5 10.625C32.5 10.1935 32.1502 9.84375 31.7187 9.84375H23.5156C23.0842 9.84375 22.7344 10.1935 22.7344 10.625Z" fill="currentColor"></path></g></svg>