<svg xmlns="http://www.w3.org/2000/svg" viewBox="0 0 16 16"><g fill="none" class="nc-icon-wrapper"><path fill-rule="evenodd" clip-rule="evenodd" d="M9.10796 4.72732C9.09349 4.58682 8.99279 4.47105 8.85591 4.43728C8.28366 4.29678 7.68669 4.29678 7.11444 4.43728C6.97756 4.47105 6.87686 4.58682 6.86239 4.72732L6.79546 5.38761C6.63325 5.46178 6.47887 5.55102 6.33355 5.65413L5.72814 5.38218C5.5997 5.32429 5.44836 5.35384 5.35067 5.45575C4.94305 5.88086 4.64455 6.39823 4.48053 6.96325C4.44073 7.09892 4.49078 7.24424 4.60535 7.32685L5.14383 7.71519C5.12695 7.89247 5.12695 8.07096 5.14383 8.24824L4.60535 8.63657C4.49078 8.71918 4.44073 8.8645 4.48053 9.00018C4.64455 9.56519 4.94305 10.0826 5.35067 10.5077C5.44836 10.6096 5.5997 10.6391 5.72814 10.5812L6.33355 10.3093C6.47887 10.4124 6.63325 10.5017 6.79546 10.5758L6.86239 11.2361C6.87686 11.3766 6.97756 11.4924 7.11444 11.5261C7.68669 11.6666 8.28366 11.6666 8.85591 11.5261C8.99279 11.4924 9.09349 11.3766 9.10796 11.2361L9.17489 10.5758C9.3371 10.5017 9.49148 10.4124 9.6368 10.3093L10.2422 10.5812C10.3706 10.6391 10.522 10.6096 10.6197 10.5077C11.0273 10.0826 11.3258 9.56519 11.4898 9.00018C11.5296 8.8645 11.4796 8.71918 11.365 8.63657L10.8265 8.24824C10.8434 8.07096 10.8434 7.89247 10.8265 7.71519L11.365 7.32685C11.4796 7.24424 11.5296 7.09892 11.4898 6.96325C11.3258 6.39823 11.0273 5.88086 10.6197 5.45575C10.522 5.35384 10.3706 5.32429 10.2422 5.38218L9.6368 5.65413C9.49148 5.55102 9.3371 5.46178 9.17489 5.38761L9.10796 4.72732ZM8.46939 5.03787L8.5321 5.65293C8.54537 5.77956 8.62858 5.88749 8.74737 5.93151C8.97711 6.01714 9.19058 6.14015 9.37932 6.29633C9.477 6.37713 9.61267 6.39582 9.72844 6.34336L10.2922 6.0907C10.4985 6.34155 10.6619 6.62496 10.7765 6.92948L10.2754 7.29128C10.1723 7.36545 10.1204 7.49147 10.1421 7.6169C10.1825 7.8587 10.1825 8.10472 10.1421 8.34653C10.1204 8.47195 10.1723 8.59798 10.2754 8.67215L10.7765 9.03395C10.6619 9.33846 10.4985 9.62187 10.2922 9.87272L9.72844 9.62006C9.61267 9.5676 9.477 9.5863 9.37932 9.6671C9.19058 9.82328 8.97711 9.94629 8.74737 10.0319C8.62858 10.0759 8.54537 10.1839 8.5321 10.3105L8.46939 10.9256C8.14859 10.978 7.82176 10.978 7.50096 10.9256L7.43825 10.3105C7.42498 10.1839 7.34177 10.0759 7.22298 10.0319C6.99323 9.94629 6.77977 9.82328 6.59103 9.6671C6.49335 9.5863 6.35768 9.5676 6.24191 9.62006L5.6781 9.87272C5.47188 9.62187 5.30846 9.33846 5.19389 9.03395L5.69498 8.67215C5.79809 8.59798 5.84995 8.47195 5.82825 8.34653C5.78784 8.10472 5.78784 7.8587 5.82825 7.6169C5.84995 7.49147 5.79809 7.36545 5.69498 7.29128L5.19389 6.92948C5.30846 6.62496 5.47188 6.34155 5.6781 6.0907L6.24191 6.34336C6.35768 6.39582 6.49335 6.37713 6.59103 6.29633C6.77977 6.14015 6.99323 6.01714 7.22298 5.93151C7.34177 5.88749 7.42498 5.77956 7.43825 5.65293L7.50096 5.03787C7.82176 4.98541 8.14859 4.98541 8.46939 5.03787ZM7.98517 6.52064C7.17896 6.52064 6.5241 7.1755 6.5241 7.98171C6.5241 8.78792 7.17896 9.44278 7.98517 9.44278C8.79139 9.44278 9.44625 8.78792 9.44625 7.98171C9.44625 7.1755 8.79139 6.52064 7.98517 6.52064ZM7.98517 7.18756C8.42356 7.18756 8.77932 7.54333 8.77932 7.98171C8.77932 8.42009 8.42356 8.77586 7.98517 8.77586C7.54679 8.77586 7.19103 8.42009 7.19103 7.98171C7.19103 7.54333 7.54679 7.18756 7.98517 7.18756Z" fill="currentColor"></path><path fill-rule="evenodd" clip-rule="evenodd" d="M8.00475 0.666504C7.45268 0.666504 7.00463 1.11456 7.00463 1.66663C7.00463 2.2187 7.45268 2.66675 8.00475 2.66675C8.55682 2.66675 9.00488 2.2187 9.00488 1.66663C9.00488 1.11456 8.55682 0.666504 8.00475 0.666504ZM8.00475 1.33325C8.18877 1.33325 8.33813 1.48261 8.33813 1.66663C8.33813 1.85065 8.18877 2 8.00475 2C7.82073 2 7.67138 1.85065 7.67138 1.66663C7.67138 1.48261 7.82073 1.33325 8.00475 1.33325Z" fill="currentColor"></path><path fill-rule="evenodd" clip-rule="evenodd" d="M13.1813 2.81021C12.7911 2.41995 12.1576 2.41995 11.7673 2.81021C11.3771 3.20047 11.3771 3.83395 11.7673 4.22421C12.1576 4.61447 12.7911 4.61447 13.1813 4.22421C13.5716 3.83395 13.5716 3.20047 13.1813 2.81021ZM12.71 3.28154C12.8401 3.41163 12.8401 3.62279 12.71 3.75288C12.5799 3.88297 12.3688 3.88297 12.2387 3.75288C12.1086 3.62279 12.1086 3.41163 12.2387 3.28154C12.3688 3.15146 12.5799 3.15146 12.71 3.28154Z" fill="currentColor"></path><path fill-rule="evenodd" clip-rule="evenodd" d="M15.3334 8.00463C15.3334 7.45256 14.8853 7.0045 14.3332 7.0045C13.7812 7.0045 13.3331 7.45256 13.3331 8.00463C13.3331 8.5567 13.7812 9.00475 14.3332 9.00475C14.8853 9.00475 15.3334 8.5567 15.3334 8.00463ZM14.6666 8.00463C14.6666 8.18865 14.5173 8.338 14.3332 8.338C14.1492 8.338 13.9999 8.18865 13.9999 8.00463C13.9999 7.8206 14.1492 7.67125 14.3332 7.67125C14.5173 7.67125 14.6666 7.8206 14.6666 8.00463Z" fill="currentColor"></path><path fill-rule="evenodd" clip-rule="evenodd" d="M13.1897 13.1812C13.5799 12.7909 13.5799 12.1575 13.1897 11.7672C12.7994 11.3769 12.1659 11.3769 11.7757 11.7672C11.3854 12.1575 11.3854 12.7909 11.7757 13.1812C12.1659 13.5715 12.7994 13.5715 13.1897 13.1812ZM12.7183 12.7099C12.5882 12.84 12.3771 12.84 12.247 12.7099C12.1169 12.5798 12.1169 12.3686 12.247 12.2385C12.3771 12.1085 12.5882 12.1085 12.7183 12.2385C12.8484 12.3686 12.8484 12.5798 12.7183 12.7099Z" fill="currentColor"></path><path fill-rule="evenodd" clip-rule="evenodd" d="M8.00476 15.333C8.55683 15.333 9.00489 14.885 9.00489 14.3329C9.00489 13.7808 8.55683 13.3328 8.00476 13.3328C7.45269 13.3328 7.00464 13.7808 7.00464 14.3329C7.00464 14.885 7.45269 15.333 8.00476 15.333ZM8.00476 14.6663C7.82074 14.6663 7.67139 14.5169 7.67139 14.3329C7.67139 14.1489 7.82074 13.9995 8.00476 13.9995C8.18879 13.9995 8.33814 14.1489 8.33814 14.3329C8.33814 14.5169 8.18879 14.6663 8.00476 14.6663Z" fill="currentColor"></path><path fill-rule="evenodd" clip-rule="evenodd" d="M2.81033 13.1812C3.2006 13.5715 3.83407 13.5715 4.22433 13.1812C4.6146 12.7909 4.6146 12.1575 4.22433 11.7672C3.83407 11.3769 3.2006 11.3769 2.81033 11.7672C2.42007 12.1575 2.42007 12.7909 2.81033 13.1812ZM3.28167 12.7099C3.15158 12.5798 3.15158 12.3686 3.28167 12.2385C3.41175 12.1085 3.62291 12.1085 3.753 12.2385C3.88309 12.3686 3.88309 12.5798 3.753 12.7099C3.62291 12.84 3.41175 12.84 3.28167 12.7099Z" fill="currentColor"></path><path fill-rule="evenodd" clip-rule="evenodd" d="M0.666626 8.00463C0.666626 8.5567 1.11468 9.00475 1.66675 9.00475C2.21882 9.00475 2.66688 8.5567 2.66688 8.00463C2.66688 7.45256 2.21882 7.0045 1.66675 7.0045C1.11468 7.0045 0.666626 7.45256 0.666626 8.00463ZM1.33338 8.00463C1.33338 7.8206 1.48273 7.67125 1.66675 7.67125C1.85077 7.67125 2.00013 7.8206 2.00013 8.00463C2.00013 8.18865 1.85077 8.338 1.66675 8.338C1.48273 8.338 1.33338 8.18865 1.33338 8.00463Z" fill="currentColor"></path><path fill-rule="evenodd" clip-rule="evenodd" d="M2.81867 2.81021C2.4284 3.20047 2.4284 3.83395 2.81867 4.22421C3.20893 4.61447 3.8424 4.61447 4.23267 4.22421C4.62293 3.83395 4.62293 3.20047 4.23267 2.81021C3.8424 2.41995 3.20893 2.41995 2.81867 2.81021ZM3.29 3.28154C3.42009 3.15146 3.63124 3.15146 3.76133 3.28154C3.89142 3.41163 3.89142 3.62279 3.76133 3.75288C3.63124 3.88297 3.42009 3.88297 3.29 3.75288C3.15991 3.62279 3.15991 3.41163 3.29 3.28154Z" fill="currentColor"></path><path fill-rule="evenodd" clip-rule="evenodd" d="M7.66667 2.33321V3.33321C7.66667 3.51721 7.816 3.66671 8 3.66671C8.184 3.66671 8.33333 3.51721 8.33333 3.33321V2.33321C8.33333 2.14921 8.184 1.99971 8 1.99971C7.816 1.99971 7.66667 2.14921 7.66667 2.33321Z" fill="currentColor"></path><path fill-rule="evenodd" clip-rule="evenodd" d="M11.767 3.75455L11.0597 4.46188C10.9295 4.59203 10.9294 4.80335 11.0594 4.93344C11.1895 5.06353 11.4009 5.06336 11.531 4.93321L12.2383 4.22588C12.3685 4.09573 12.3687 3.88441 12.2386 3.75432C12.1085 3.62423 11.8972 3.6244 11.767 3.75455Z" fill="currentColor"></path><path fill-rule="evenodd" clip-rule="evenodd" d="M13.6667 7.66654H12.6667C12.4827 7.66654 12.3332 7.81588 12.3332 7.99988C12.3332 8.18388 12.4827 8.33321 12.6667 8.33321H13.6667C13.8507 8.33321 14.0002 8.18388 14.0002 7.99988C14.0002 7.81588 13.8507 7.66654 13.6667 7.66654Z" fill="currentColor"></path><path fill-rule="evenodd" clip-rule="evenodd" d="M12.2453 11.7669L11.538 11.0595C11.4079 10.9294 11.1965 10.9292 11.0664 11.0593C10.9363 11.1894 10.9365 11.4007 11.0667 11.5309L11.774 12.2382C11.9041 12.3684 12.1155 12.3685 12.2456 12.2384C12.3757 12.1084 12.3755 11.897 12.2453 11.7669Z" fill="currentColor"></path><path fill-rule="evenodd" clip-rule="evenodd" d="M8.33333 13.6665V12.6665C8.33333 12.4825 8.184 12.333 8 12.333C7.816 12.333 7.66667 12.4825 7.66667 12.6665V13.6665C7.66667 13.8505 7.816 14 8 14C8.184 14 8.33333 13.8505 8.33333 13.6665Z" fill="currentColor"></path><path fill-rule="evenodd" clip-rule="evenodd" d="M4.226 12.2382L4.93333 11.5309C5.06348 11.4007 5.06365 11.1894 4.93356 11.0593C4.80347 10.9292 4.59215 10.9294 4.462 11.0595L3.75467 11.7669C3.62452 11.897 3.62435 12.1084 3.75444 12.2384C3.88453 12.3685 4.09585 12.3684 4.226 12.2382Z" fill="currentColor"></path><path fill-rule="evenodd" clip-rule="evenodd" d="M2.33333 8.33321H3.33333C3.51733 8.33321 3.66683 8.18388 3.66683 7.99988C3.66683 7.81588 3.51733 7.66654 3.33333 7.66654H2.33333C2.14933 7.66654 1.99983 7.81588 1.99983 7.99988C1.99983 8.18388 2.14933 8.33321 2.33333 8.33321Z" fill="currentColor"></path><path fill-rule="evenodd" clip-rule="evenodd" d="M3.76167 4.22588L4.469 4.93321C4.59915 5.06336 4.81047 5.06353 4.94056 4.93344C5.07065 4.80335 5.07048 4.59203 4.94033 4.46188L4.233 3.75455C4.10285 3.6244 3.89152 3.62423 3.76144 3.75432C3.63135 3.88441 3.63152 4.09573 3.76167 4.22588Z" fill="currentColor"></path></g></svg>