<svg xmlns="http://www.w3.org/2000/svg" viewBox="0 0 30 31"><path d="M13.385 2.426c-2.807.34-5.512 1.659-7.533 3.674-2.028 2.022-3.233 4.41-3.734 7.4-.079.473-.089 1.056-.105 5.898-.016 4.807-.009 5.416.064 5.775A3.866 3.866 0 0 0 5.9 28.3a3.867 3.867 0 0 0 3.824-3.127c.07-.348.079-.766.066-3.1l-.015-2.698-.158-.464c-.592-1.744-2.152-2.807-3.956-2.695-.59.036-.967.133-1.461.375l-.418.203c-.076.032-.002-2.665.087-3.215.764-4.694 4.299-8.375 8.931-9.3 4.949-.989 9.989 1.465 12.245 5.961a10.79 10.79 0 0 1 1.13 3.746c.078.662.107 2.836.038 2.806l-.413-.201c-.494-.242-.871-.339-1.461-.375-1.804-.112-3.364.951-3.956 2.695l-.158.464-.015 2.698c-.013 2.334-.004 2.752.066 3.1A3.867 3.867 0 0 0 24.1 28.3a3.866 3.866 0 0 0 3.823-3.127c.073-.359.08-.968.064-5.775-.019-5.857-.007-5.589-.316-6.973-1.183-5.291-5.714-9.369-11.111-10.001-.773-.09-2.419-.089-3.175.002M6.814 18.135c.439.208.816.585 1.039 1.039l.172.349v5.452l-.161.34a2.232 2.232 0 0 1-1.63 1.241c-.905.166-1.881-.361-2.298-1.241l-.161-.34v-5.45l.156-.325c.267-.554.62-.886 1.202-1.13.257-.107.355-.12.817-.109.472.013.559.03.864.174m18.2 0c.439.208.816.585 1.039 1.039l.172.349v5.452l-.161.34a2.232 2.232 0 0 1-1.63 1.241c-.905.166-1.881-.361-2.298-1.241l-.161-.34v-5.45l.156-.325c.267-.554.62-.886 1.202-1.13.257-.107.355-.12.817-.109.472.013.559.03.864.174" fill="currentColor" fill-rule="evenodd"/></svg>