<svg xmlns="http://www.w3.org/2000/svg" viewBox="0 0 64 64"><g fill="none" class="nc-icon-wrapper"><path d="M8.95838 21.9927H50.9981C52.5132 21.9927 53.7457 20.7601 53.7457 19.245V12.816C53.7457 11.301 52.5132 10.0684 50.9981 10.0684H8.95838C7.44332 10.0684 6.21069 11.301 6.21069 12.816V19.2451C6.21069 20.7601 7.44332 21.9927 8.95838 21.9927ZM8.13069 12.816C8.13069 12.3597 8.50201 11.9884 8.95838 11.9884H50.9981C51.4545 11.9884 51.8257 12.3597 51.8257 12.816V19.2451C51.8257 19.7014 51.4545 20.0727 50.9981 20.0727H8.95838C8.50201 20.0727 8.13069 19.7014 8.13069 19.2451V12.816Z" fill="currentColor"></path><path d="M14.8659 16.9905H35.2451C35.7752 16.9905 36.2051 16.5607 36.2051 16.0305C36.2051 15.5004 35.7752 15.0705 35.2451 15.0705H14.8659C14.3357 15.0705 13.9059 15.5004 13.9059 16.0305C13.9059 16.5607 14.3357 16.9905 14.8659 16.9905Z" fill="currentColor"></path><path d="M39.5993 16.398C39.6224 16.4556 39.6531 16.5119 39.6877 16.5631C39.7222 16.6156 39.7619 16.6655 39.8067 16.709C39.8502 16.7538 39.9001 16.7935 39.9526 16.8293C40.0051 16.8639 40.0601 16.8933 40.1177 16.9163C40.1766 16.9407 40.2368 16.9599 40.2982 16.9714C40.3597 16.9842 40.4224 16.9906 40.4851 16.9906C40.5478 16.9906 40.6106 16.9842 40.6732 16.9714C40.7347 16.9599 40.7949 16.9407 40.8524 16.9163C40.9101 16.8933 40.9664 16.8639 41.0189 16.8293C41.0713 16.7935 41.12 16.7538 41.1648 16.709C41.2083 16.6655 41.248 16.6156 41.2838 16.5631C41.3184 16.5119 41.3478 16.4556 41.3721 16.398C41.3964 16.3404 41.4144 16.2789 41.4272 16.2188C41.4387 16.1561 41.4451 16.0934 41.4451 16.0306C41.4451 15.9679 41.4387 15.9052 41.4272 15.8425C41.4144 15.7823 41.3964 15.7209 41.3721 15.6633C41.3478 15.6057 41.3184 15.5494 41.2838 15.4982C41.248 15.4457 41.2083 15.3957 41.1648 15.3523C41.12 15.3074 41.0713 15.2677 41.0189 15.2319C40.9664 15.1974 40.9101 15.1679 40.8524 15.1436C40.7949 15.1206 40.7347 15.1014 40.6732 15.0898C40.5491 15.0643 40.4211 15.0643 40.2982 15.0898C40.2368 15.1014 40.1766 15.1206 40.1177 15.1436C40.0601 15.1679 40.0051 15.1974 39.9526 15.2319C39.9001 15.2678 39.8502 15.3074 39.8067 15.3523C39.7619 15.3957 39.7222 15.4457 39.6877 15.4982C39.6531 15.5494 39.6224 15.6057 39.5993 15.6633C39.575 15.7209 39.5571 15.7823 39.5443 15.8425C39.5315 15.9052 39.5251 15.9679 39.5251 16.0306C39.5251 16.0934 39.5315 16.1561 39.5443 16.2188C39.5571 16.2789 39.575 16.3404 39.5993 16.398Z" fill="currentColor"></path><path d="M44.5581 16.828C44.6093 16.8626 44.6656 16.8934 44.7232 16.9163C44.7808 16.9407 44.8423 16.9599 44.9037 16.9714C44.9651 16.9842 45.0278 16.9906 45.0906 16.9906C45.1533 16.9906 45.216 16.9842 45.2787 16.9714C45.3389 16.9599 45.4003 16.9407 45.4579 16.9163C45.5155 16.8933 45.5718 16.8626 45.623 16.828C45.6768 16.7935 45.7254 16.7538 45.7689 16.709C45.9481 16.5311 46.0506 16.2828 46.0506 16.0306C46.0506 15.7785 45.9481 15.5302 45.7689 15.3522C45.7254 15.3074 45.6768 15.2677 45.623 15.2319C45.5718 15.1974 45.5155 15.1679 45.4579 15.1436C45.4003 15.1205 45.3389 15.1014 45.2787 15.0898C45.1546 15.0642 45.0266 15.0642 44.9037 15.0898C44.8423 15.1014 44.7808 15.1205 44.7232 15.1436C44.6656 15.1679 44.6093 15.1974 44.5581 15.2319C44.5056 15.2677 44.4557 15.3074 44.4121 15.3522C44.233 15.5302 44.1306 15.7785 44.1306 16.0306C44.1306 16.2828 44.233 16.5311 44.4121 16.709C44.4557 16.7538 44.5056 16.7935 44.5581 16.828Z" fill="currentColor"></path><path d="M28.6124 34.151H8.95838C8.50201 34.151 8.13069 33.7797 8.13069 33.3234V26.8943C8.13069 26.4379 8.50201 26.0667 8.95838 26.0667H50.9981C51.4545 26.0667 51.8257 26.4379 51.8257 26.8943C51.8257 27.4245 52.2556 27.8543 52.7857 27.8543C53.3159 27.8543 53.7457 27.4245 53.7457 26.8943C53.7457 25.3792 52.5132 24.1467 50.9981 24.1467H8.95838C7.44332 24.1467 6.21069 25.3792 6.21069 26.8943V33.3234C6.21069 34.8384 7.44332 36.071 8.95838 36.071H28.6124C29.1426 36.071 29.5724 35.6412 29.5724 35.111C29.5724 34.5808 29.1426 34.151 28.6124 34.151Z" fill="currentColor"></path><path d="M14.8659 29.1488C14.3357 29.1488 13.9059 29.5786 13.9059 30.1088C13.9059 30.639 14.3357 31.0688 14.8659 31.0688H35.2451C35.7752 31.0688 36.2051 30.639 36.2051 30.1088C36.2051 29.5786 35.7752 29.1488 35.2451 29.1488H14.8659Z" fill="currentColor"></path><path d="M28.6124 38.4162H8.95838C7.44332 38.4162 6.21069 39.6488 6.21069 41.1638V47.5929C6.21069 49.108 7.44332 50.3405 8.95838 50.3405H28.6124C29.1426 50.3405 29.5724 49.9107 29.5724 49.3805C29.5724 48.8504 29.1426 48.4205 28.6124 48.4205H8.95838C8.50201 48.4205 8.13069 48.0493 8.13069 47.5929V41.1638C8.13069 40.7075 8.50201 40.3362 8.95838 40.3362H28.6124C29.1426 40.3362 29.5724 39.9064 29.5724 39.3762C29.5724 38.846 29.1426 38.4162 28.6124 38.4162Z" fill="currentColor"></path><path d="M28.6124 43.4184H14.8659C14.3357 43.4184 13.9059 43.8482 13.9059 44.3783C13.9059 44.9085 14.3357 45.3383 14.8659 45.3383H28.6124C29.1426 45.3383 29.5724 44.9085 29.5724 44.3783C29.5724 43.8482 29.1426 43.4184 28.6124 43.4184Z" fill="currentColor"></path><path d="M45.5673 29.4875C38.8281 29.4875 33.3453 34.9702 33.3453 41.7095C33.3453 48.4487 38.8281 53.9315 45.5673 53.9315C52.3066 53.9315 57.7893 48.4487 57.7893 41.7095C57.7893 34.9702 52.3066 29.4875 45.5673 29.4875ZM45.5673 52.0115C39.8868 52.0115 35.2653 47.39 35.2653 41.7095C35.2653 36.0289 39.8868 31.4075 45.5673 31.4075C51.2479 31.4075 55.8693 36.0289 55.8693 41.7095C55.8693 47.39 51.2479 52.0115 45.5673 52.0115Z" fill="currentColor"></path><path d="M49.4642 37.9928L43.67 43.787L41.2121 41.3292C40.8373 40.9543 40.2294 40.9543 39.8545 41.3292C39.4796 41.704 39.4796 42.3119 39.8545 42.6868L42.9912 45.8234C43.1787 46.0108 43.4243 46.1046 43.67 46.1046C43.9157 46.1046 44.1614 46.0108 44.3488 45.8234L50.8218 39.3504C51.1968 38.9755 51.1968 38.3677 50.8218 37.9928C50.4469 37.6179 49.8391 37.6179 49.4642 37.9928Z" fill="currentColor"></path></g></svg>