<svg xmlns="http://www.w3.org/2000/svg" viewBox="0 0 46 46"><path d="M4.408.078C3.151.329 1.974 1.246 1.426 2.402c-.377.793-.43 1.168-.428 3.026.002 1.852.051 2.078.559 2.61.424.443.769.574 1.605.611l.748.032v17.036c0 19.23-.06 17.471.617 18.147.65.65-.392.603 13.194.603h12.02l.354.224c.561.356 1.694.823 2.527 1.042 1.037.272 2.529.339 3.562.158 2.056-.359 3.819-1.321 5.365-2.926 1.875-1.946 3.031-4.529 3.379-7.545.054-.462.076-2.087.061-4.447l-.024-3.718-.204-.435a2.998 2.998 0 0 0-1.31-1.372c-.421-.225-.565-.26-1.183-.288-.503-.022-.803.002-1.049.086l-.344.117-.201-.411c-.231-.471-.796-1.014-1.303-1.253l-.348-.163v-9.799c0-6.618-.026-9.946-.082-10.254-.215-1.194-1.101-2.395-2.187-2.964-1.058-.554.154-.518-16.782-.509C11.581.014 4.577.044 4.408.078m26.779 1.819c-.284.552-.519 1.137-.588 1.461-.047.223-.086 1.076-.086 1.895 0 1.393-.009 1.493-.148 1.568-.097.052-1.608.079-4.374.079-4.69 0-4.544-.015-4.791.506-.172.362-.066.774.274 1.06l.234.197h4.499l4.498-.001.383-.182c.211-.1.511-.315.667-.478.507-.53.544-.7.595-2.712.043-1.674.059-1.825.22-2.131.223-.423.685-.884 1.103-1.099.454-.233 1.357-.285 1.889-.109.493.164 1.104.706 1.376 1.222l.207.392.02 9.983c.02 9.91.019 9.983-.133 10.064-.135.073-.171.043-.315-.262-.216-.46-.684-.98-1.101-1.225-.674-.395-1.435-.496-2.324-.309l-.249.053v-2.52c-.001-2.611-.05-3.226-.306-3.823-.208-.484-.83-1.119-1.36-1.387-.405-.205-.51-.224-1.247-.224-.712 0-.855.024-1.24.204a2.912 2.912 0 0 0-1.386 1.357l-.249.506-.038 7.501-.039 7.501-1.289-1.345c-1.112-1.162-1.358-1.38-1.801-1.595-.468-.226-.578-.249-1.245-.25-.694-.002-.763.013-1.315.286-1.009.498-1.629 1.34-1.874 2.545-.159.777-.061 1.464.318 2.227.179.359 1.341 1.914 3.527 4.715 1.793 2.298 3.434 4.376 3.647 4.619l.387.441-10.872-.019-10.873-.02-.019-16.962L5.75 8.663l4.197-.001c3.179-.001 4.243-.024 4.382-.096.613-.315.662-1.197.086-1.538-.197-.116-.722-.128-5.776-.128-3.058 0-5.614-.021-5.681-.047-.105-.04-.121-.255-.12-1.629.002-1.424.018-1.617.158-1.925.212-.469.456-.773.825-1.029.649-.45-.233-.423 14.145-.427 7.287-.001 13.237.023 13.221.054m-13.83 5.264c-.22.22-.26.314-.26.612 0 .28.045.402.223.602.203.227.265.25.658.25.394 0 .456-.023.658-.25.179-.2.224-.322.224-.602 0-.298-.04-.392-.261-.612-.222-.223-.313-.261-.621-.261-.307 0-.398.038-.621.261m-7.246 4.936c-.882.461-1.017.964-.973 3.608.025 1.447.052 1.788.165 2.043.17.386.462.696.855.908.289.156.428.167 2.322.189 2.446.029 2.655-.01 3.182-.596.218-.242.373-.505.428-.724.132-.525.115-3.912-.022-4.368-.154-.511-.463-.878-.917-1.09-.384-.178-.441-.182-2.511-.183l-2.119-.001-.41.214m8.596-.161c-.22.082-.53.43-.578.648-.07.32.094.729.372.927l.244.174h7.743l.244-.174c.279-.198.442-.607.372-.927-.026-.121-.152-.319-.279-.441l-.232-.221-3.885-.015c-2.138-.007-3.938.006-4.001.029m-4.37 3.436v1.648h-3.374V13.723h3.374v1.649m16.386.465c.094.061.232.205.307.318.126.192.138.68.173 7.085l.039 6.878.186.198c.213.227.584.351.881.294.278-.053.626-.416.685-.715.027-.134.049-1.456.05-2.937 0-2.536.009-2.707.15-2.938.405-.666 1.486-.632 1.856.058.128.239.14.496.14 3.069 0 2.797.001 2.808.175 3.067.345.513 1.101.536 1.466.045.151-.204.163-.337.199-2.3.043-2.315.054-2.368.572-2.614.536-.255 1.193-.062 1.44.422.117.228.134.504.135 2.161 0 2.076.035 2.287.424 2.542.246.161.692.184.945.049.095-.051.239-.202.321-.336.129-.211.149-.391.149-1.318.001-1.174.077-1.459.467-1.744.471-.345 1.24-.204 1.536.281.135.223.144.449.143 3.878-.002 3.84-.044 4.48-.38 5.788-.712 2.769-2.402 5.058-4.608 6.243-1.136.61-2.147.862-3.444.86-1.487-.002-2.859-.451-4.268-1.398-1.1-.739-1.928-1.683-5.439-6.203-1.818-2.34-3.37-4.376-3.448-4.523-.099-.187-.143-.433-.145-.805-.001-.445.033-.596.202-.882.112-.19.317-.429.457-.532.319-.235.943-.303 1.26-.137.121.063.911.849 1.756 1.747 2.061 2.187 2.424 2.422 3.173 2.051.278-.138.398-.26.543-.553l.187-.376.005-8.058c.005-7.635.013-8.07.145-8.312.269-.494 1.073-.675 1.565-.353m-12.177 1.358a.99.99 0 0 0-.369.486c-.099.282-.095.338.038.61.28.575.278.574 3.725.551 2.95-.02 3.049-.025 3.259-.181.119-.088.266-.302.328-.476.1-.283.098-.343-.019-.587a1.17 1.17 0 0 0-.38-.425c-.238-.145-.39-.152-3.286-.153-3.034 0-3.036 0-3.296.175M9.89 22.207c-.483.159-.69.436-.69.925 0 .162.054.371.12.465.291.415-.007.4 7.584.4 7.69 0 7.422.015 7.663-.45.279-.542.021-1.151-.556-1.311-.285-.079-13.884-.107-14.121-.029m-.429 5.424c-.221.22-.261.314-.261.612 0 .28.045.402.224.602l.223.25 4.065.021 4.065.021.268-.235c.147-.129.29-.337.317-.462.07-.316-.086-.732-.344-.915-.211-.151-.328-.155-4.257-.155h-4.04l-.26.261m0 5.136c-.223.223-.261.314-.261.621 0 .308.038.399.261.621l.26.261h7.238l.26-.261c.198-.198.261-.325.261-.531 0-.402-.12-.646-.401-.818-.241-.147-.388-.153-3.804-.153H9.721l-.26.26m.146 5.026c-.309.188-.407.373-.407.766 0 .25.053.371.262.6l.263.286 4.986.021c5.512.024 5.381.034 5.68-.457.185-.304.196-.53.039-.859-.25-.529-.006-.507-5.568-.506-4.826 0-5.019.005-5.255.149" fill="currentColor" fill-rule="evenodd"/></svg>