<svg xmlns="http://www.w3.org/2000/svg" viewBox="0 0 40 40"><g fill="none" class="nc-icon-wrapper"><path d="M35.4686 18.125C34.9555 18.1261 34.4566 18.2945 34.0478 18.6047C33.6389 18.9148 33.3424 19.3498 33.203 19.8437H29.7202L29.0491 19.1734C28.9274 19.0565 28.7647 18.992 28.596 18.9938C28.4273 18.9955 28.2659 19.0633 28.1467 19.1827C28.0274 19.3021 27.9597 19.4635 27.9581 19.6322C27.9565 19.8009 28.0212 19.9636 28.1382 20.0852L28.9975 20.9445C29.1184 21.0652 29.2822 21.1329 29.453 21.1328H33.203C33.3237 21.5545 33.5596 21.9341 33.8842 22.2291C34.2088 22.524 34.6092 22.7227 35.0404 22.8026C35.4717 22.8826 35.9167 22.8408 36.3254 22.6818C36.7342 22.5228 37.0905 22.253 37.3544 21.9027C37.6183 21.5523 37.7793 21.1354 37.8193 20.6986C37.8592 20.2618 37.7767 19.8226 37.5808 19.4302C37.3849 19.0377 37.0834 18.7077 36.7103 18.4772C36.3372 18.2466 35.9072 18.1247 35.4686 18.125ZM35.4686 21.5625C35.2562 21.5625 35.0485 21.4995 34.8718 21.3815C34.6952 21.2634 34.5575 21.0957 34.4762 20.8994C34.3949 20.7031 34.3736 20.4871 34.4151 20.2787C34.4565 20.0703 34.5588 19.8789 34.7091 19.7287C34.8593 19.5785 35.0507 19.4762 35.2591 19.4347C35.4674 19.3933 35.6834 19.4145 35.8797 19.4958C36.076 19.5771 36.2438 19.7148 36.3618 19.8915C36.4799 20.0681 36.5429 20.2758 36.5429 20.4883C36.5426 20.7731 36.4294 21.0462 36.228 21.2476C36.0266 21.449 35.7535 21.5623 35.4686 21.5625Z" fill="currentColor"></path><path d="M35.4686 10.3906C34.9555 10.3917 34.4566 10.5601 34.0478 10.8703C33.6389 11.1805 33.3424 11.6155 33.203 12.1094H30.3124C30.1414 12.1094 29.9775 12.1773 29.8566 12.2982C29.7358 12.419 29.6679 12.583 29.6679 12.7539C29.6679 12.9248 29.7358 13.0888 29.8566 13.2097C29.9775 13.3305 30.1414 13.3984 30.3124 13.3984H33.203C33.3237 13.8201 33.5596 14.1997 33.8842 14.4947C34.2088 14.7897 34.6092 14.9883 35.0404 15.0683C35.4717 15.1482 35.9167 15.1064 36.3254 14.9474C36.7342 14.7884 37.0905 14.5186 37.3544 14.1683C37.6183 13.818 37.7793 13.401 37.8193 12.9642C37.8592 12.5275 37.7767 12.0882 37.5808 11.6958C37.3849 11.3034 37.0834 10.9733 36.7103 10.7428C36.3372 10.5122 35.9072 10.3903 35.4686 10.3906ZM35.4686 13.8281C35.2562 13.8281 35.0485 13.7651 34.8718 13.6471C34.6952 13.529 34.5575 13.3613 34.4762 13.165C34.3949 12.9687 34.3736 12.7527 34.4151 12.5443C34.4565 12.336 34.5588 12.1445 34.7091 11.9943C34.8593 11.8441 35.0507 11.7418 35.2591 11.7003C35.4674 11.6589 35.6834 11.6802 35.8797 11.7615C36.076 11.8428 36.2438 11.9804 36.3618 12.1571C36.4799 12.3338 36.5429 12.5414 36.5429 12.7539C36.5426 13.0387 36.4294 13.3119 36.228 13.5133C36.0266 13.7147 35.7535 13.8279 35.4686 13.8281Z" fill="currentColor"></path><path d="M35.035 25.2898C34.5951 25.0829 34.1171 24.9692 33.6311 24.9557C33.1451 24.9423 32.6616 25.0294 32.2108 25.2117L22.4733 29.1094C22.4523 28.4349 22.2037 27.7875 21.7679 27.2723C21.3322 26.7571 20.7349 26.4045 20.0733 26.2719L9.08661 24.0742C9.06371 24.073 9.04076 24.073 9.01786 24.0742C8.99033 24.0672 8.96242 24.0617 8.93426 24.0578H3.67176C3.46664 24.0578 3.26991 24.1393 3.12486 24.2843C2.97981 24.4294 2.89833 24.6261 2.89833 24.8312V33.6039C2.89895 33.8086 2.98071 34.0048 3.12569 34.1493C3.27067 34.2938 3.46704 34.375 3.67176 34.375H8.81786L18.4624 37.3437C19.7 37.7232 21.0314 37.6565 22.2249 37.1555L34.9218 31.8117C35.7475 31.4601 36.4111 30.8113 36.7813 29.9937C37.1516 29.1762 37.2014 28.2494 36.921 27.3969C36.7686 26.9348 36.5224 26.5091 36.1979 26.1466C35.8733 25.784 35.4775 25.4924 35.035 25.2898ZM4.4452 25.6062H8.16161V32.8305H4.4452V25.6062ZM34.3186 30.3859L21.6249 35.7305C20.7661 36.0917 19.8076 36.1396 18.9171 35.8656L9.7077 33.0328V25.7758L19.7702 27.7883C19.9551 27.8273 20.1306 27.9024 20.2865 28.0092C20.4424 28.1161 20.5757 28.2526 20.6789 28.4109C20.782 28.5693 20.853 28.7464 20.8877 28.9322C20.9224 29.118 20.9202 29.3088 20.8811 29.4937C20.8421 29.6787 20.767 29.8541 20.6602 30.01C20.5534 30.1659 20.4169 30.2993 20.2585 30.4024C20.1001 30.5056 19.923 30.5765 19.7372 30.6113C19.5514 30.646 19.3606 30.6437 19.1757 30.6047L13.4882 29.3406C13.3879 29.3155 13.2837 29.3106 13.1816 29.3264C13.0795 29.3422 12.9815 29.3783 12.8936 29.4325C12.8057 29.4868 12.7295 29.5581 12.6696 29.6423C12.6097 29.7265 12.5672 29.8219 12.5448 29.9227C12.5223 30.0236 12.5203 30.1279 12.5389 30.2296C12.5574 30.3312 12.5962 30.4282 12.6528 30.5146C12.7094 30.601 12.7828 30.6752 12.8686 30.7328C12.9543 30.7905 13.0508 30.8303 13.1522 30.85L18.8397 32.1141C19.4274 32.2444 20.0408 32.1944 20.5996 31.9706C21.1584 31.7467 21.6366 31.3594 21.9718 30.8594C22.1089 30.8808 22.2492 30.8649 22.378 30.8133L32.7858 26.65C33.0415 26.5482 33.3153 26.4997 33.5904 26.5075C33.8655 26.5153 34.1361 26.5793 34.3855 26.6955C34.635 26.8117 34.8581 26.9776 35.0412 27.1831C35.2242 27.3886 35.3633 27.6294 35.4499 27.8906C35.6067 28.3727 35.5776 28.896 35.3683 29.3577C35.159 29.8194 34.7846 30.1862 34.3186 30.3859Z" fill="currentColor"></path><path d="M12.4061 9.59219C12.2124 9.59219 12.0266 9.66915 11.8896 9.80614C11.7526 9.94313 11.6757 10.1289 11.6757 10.3227C11.6757 21.868 19.4022 24.2852 19.7311 24.3852C19.8662 24.4258 20.0102 24.4258 20.1452 24.3852C20.4741 24.2883 28.2015 21.8711 28.2015 10.3227C28.2015 10.1289 28.1245 9.94313 27.9875 9.80614C27.8505 9.66915 27.6647 9.59219 27.471 9.59219H25.4163C23.5124 9.59219 21.6889 8.6 20.5389 6.93594C20.2663 6.54531 19.6108 6.54531 19.3374 6.93594C18.1882 8.59766 16.3647 9.59219 14.46 9.59219H12.4061ZM19.9382 8.53359C21.3569 10.1258 23.3444 11.0531 25.4163 11.0531H26.7288C26.4499 19.9695 21.0936 22.4719 19.9382 22.9094C18.7819 22.4719 13.4265 19.9695 13.1483 11.0531H14.46C16.5319 11.0531 18.5202 10.1258 19.9382 8.53359Z" fill="currentColor"></path><path d="M26.0155 7.99844C26.1001 7.99849 26.184 7.98182 26.2621 7.94937C26.3403 7.91692 26.4113 7.86935 26.471 7.80937L28.8608 5.42031H33.146C33.2444 5.98038 33.5419 6.486 33.9837 6.84401C34.4255 7.20203 34.9818 7.38832 35.5501 7.36857C36.1184 7.34881 36.6605 7.12433 37.0763 6.73649C37.4922 6.34865 37.7539 5.82359 37.8132 5.25804C37.8725 4.6925 37.7254 4.12457 37.399 3.65891C37.0726 3.19325 36.5889 2.86123 36.0371 2.72403C35.4853 2.58682 34.9024 2.65368 34.396 2.91227C33.8895 3.17087 33.4936 3.60378 33.2811 4.13125H28.5936C28.509 4.1312 28.4252 4.14787 28.347 4.18032C28.2689 4.21276 28.1979 4.26034 28.1382 4.32031L25.56 6.89844C25.47 6.98857 25.4087 7.10337 25.3839 7.22832C25.3591 7.35327 25.3718 7.48278 25.4206 7.60048C25.4693 7.71818 25.5518 7.8188 25.6577 7.88963C25.7636 7.96046 25.8881 7.99833 26.0155 7.99844ZM35.4686 3.94375C35.6811 3.94375 35.8888 4.00675 36.0654 4.12479C36.2421 4.24283 36.3798 4.4106 36.4611 4.60688C36.5424 4.80317 36.5637 5.01916 36.5222 5.22754C36.4808 5.43592 36.3785 5.62732 36.2282 5.77756C36.078 5.92779 35.8866 6.0301 35.6782 6.07155C35.4698 6.113 35.2538 6.09172 35.0576 6.01042C34.8613 5.92911 34.6935 5.79143 34.5755 5.61477C34.4574 5.43812 34.3944 5.23043 34.3944 5.01797C34.3948 4.7332 34.5081 4.4602 34.7095 4.25884C34.9109 4.05747 35.1839 3.94416 35.4686 3.94375Z" fill="currentColor"></path><path d="M4.53114 7.13906C5.04435 7.13808 5.54324 6.96972 5.95212 6.65954C6.36099 6.34936 6.65754 5.91428 6.79676 5.42031H11.1421L13.5288 7.8125C13.5888 7.87231 13.66 7.91972 13.7384 7.95201C13.8167 7.9843 13.9006 8.00085 13.9854 8.0007C14.0701 8.00056 14.154 7.98373 14.2322 7.95117C14.3104 7.9186 14.3815 7.87096 14.4413 7.81094C14.5011 7.75092 14.5485 7.67971 14.5808 7.60137C14.6131 7.52303 14.6296 7.4391 14.6295 7.35436C14.6294 7.26963 14.6125 7.18576 14.58 7.10753C14.5474 7.0293 14.4997 6.95825 14.4397 6.89844L11.8616 4.32031C11.8019 4.26034 11.7309 4.21276 11.6527 4.18032C11.5746 4.14787 11.4908 4.1312 11.4061 4.13125H6.79676C6.67604 3.7096 6.44013 3.32996 6.11555 3.03499C5.79097 2.74001 5.39057 2.54138 4.95933 2.46141C4.52809 2.38144 4.08309 2.4233 3.67433 2.58228C3.26557 2.74127 2.90923 3.01107 2.64535 3.3614C2.38146 3.71173 2.22049 4.1287 2.18051 4.56546C2.14053 5.00223 2.22312 5.44149 2.41901 5.83391C2.6149 6.22632 2.91633 6.55634 3.28944 6.7869C3.66254 7.01745 4.09255 7.13941 4.53114 7.13906ZM4.53114 3.70156C4.7436 3.70156 4.95129 3.76456 5.12794 3.8826C5.3046 4.00064 5.44228 4.16841 5.52359 4.3647C5.60489 4.56098 5.62617 4.77697 5.58472 4.98535C5.54327 5.19373 5.44096 5.38514 5.29073 5.53537C5.14049 5.6856 4.94909 5.78791 4.74071 5.82936C4.53233 5.87081 4.31634 5.84953 4.12005 5.76823C3.92377 5.68692 3.756 5.54924 3.63796 5.37258C3.51992 5.19593 3.45692 4.98824 3.45692 4.77578C3.45713 4.49094 3.57037 4.21783 3.77178 4.01642C3.97319 3.81501 4.2463 3.70177 4.53114 3.70156Z" fill="currentColor"></path><path d="M6.79676 20.8891H10.5468C10.6314 20.8891 10.7152 20.8724 10.7934 20.84C10.8715 20.8075 10.9425 20.76 11.0022 20.7L11.8616 19.8406C11.9824 19.7198 12.0503 19.556 12.0503 19.3852C12.0503 19.2143 11.9824 19.0505 11.8616 18.9297C11.7408 18.8089 11.577 18.741 11.4061 18.741C11.2353 18.741 11.0715 18.8089 10.9507 18.9297L10.2796 19.6H6.79676C6.6412 19.0512 6.29239 18.5772 5.8147 18.2654C5.33702 17.9537 4.76269 17.8252 4.19771 17.9038C3.63272 17.9823 3.11521 18.2625 2.74065 18.6927C2.3661 19.1229 2.15979 19.6741 2.15979 20.2445C2.15979 20.8149 2.3661 21.3661 2.74065 21.7963C3.11521 22.2265 3.63272 22.5068 4.19771 22.5853C4.76269 22.6638 5.33702 22.5354 5.8147 22.2236C6.29239 21.9119 6.6412 21.4379 6.79676 20.8891ZM3.46005 20.2445C3.46005 20.0319 3.52313 19.8241 3.6413 19.6474C3.75948 19.4707 3.92743 19.333 4.1239 19.2518C4.32037 19.1706 4.53652 19.1495 4.74499 19.1912C4.95345 19.2329 5.14485 19.3355 5.29496 19.4861C5.44506 19.6366 5.54713 19.8283 5.58822 20.0369C5.62932 20.2455 5.6076 20.4616 5.52581 20.6578C5.44403 20.854 5.30586 21.0216 5.12879 21.1392C4.95173 21.2569 4.74373 21.3194 4.53114 21.3188C4.2463 21.3185 3.97319 21.2053 3.77178 21.0039C3.57037 20.8025 3.45713 20.5294 3.45692 20.2445H3.46005Z" fill="currentColor"></path><path d="M4.53114 14.8734C5.04435 14.8725 5.54324 14.7041 5.95212 14.3939C6.36099 14.0837 6.65754 13.6487 6.79676 13.1547H9.68739C9.85833 13.1547 10.0223 13.0868 10.1431 12.9659C10.264 12.845 10.3319 12.6811 10.3319 12.5102C10.3319 12.3392 10.264 12.1753 10.1431 12.0544C10.0223 11.9335 9.85833 11.8656 9.68739 11.8656H6.79676C6.67604 11.444 6.44013 11.0643 6.11555 10.7694C5.79097 10.4744 5.39057 10.2758 4.95933 10.1958C4.52809 10.1158 4.08309 10.1577 3.67433 10.3167C3.26557 10.4756 2.90923 10.7454 2.64535 11.0958C2.38146 11.4461 2.22049 11.8631 2.18051 12.2998C2.14053 12.7366 2.22312 13.1759 2.41901 13.5683C2.6149 13.9607 2.91633 14.2907 3.28944 14.5213C3.66255 14.7518 4.09255 14.8738 4.53114 14.8734ZM4.53114 11.4359C4.7436 11.4359 4.95129 11.4989 5.12794 11.617C5.3046 11.735 5.44228 11.9028 5.52359 12.0991C5.60489 12.2954 5.62617 12.5113 5.58472 12.7197C5.54327 12.9281 5.44096 13.1195 5.29073 13.2697C5.14049 13.42 4.94909 13.5223 4.74071 13.5637C4.53233 13.6052 4.31634 13.5839 4.12005 13.5026C3.92377 13.4213 3.756 13.2836 3.63796 13.107C3.51992 12.9303 3.45692 12.7226 3.45692 12.5102C3.45713 12.2253 3.57037 11.9522 3.77178 11.7508C3.97319 11.5494 4.2463 11.4361 4.53114 11.4359Z" fill="currentColor"></path><path d="M19.3554 16.6797V18.5258C19.3554 18.6967 19.4233 18.8607 19.5441 18.9815C19.665 19.1024 19.8289 19.1703 19.9999 19.1703C20.1708 19.1703 20.3348 19.1024 20.4556 18.9815C20.5765 18.8607 20.6444 18.6967 20.6444 18.5258V16.6797C21.0142 16.5301 21.3204 16.2566 21.5106 15.906C21.7008 15.5554 21.7632 15.1496 21.687 14.7581C21.6108 14.3665 21.4008 14.0137 21.093 13.76C20.7852 13.5063 20.3988 13.3676 19.9999 13.3676C19.601 13.3676 19.2146 13.5063 18.9068 13.76C18.599 14.0137 18.389 14.3665 18.3128 14.7581C18.2366 15.1496 18.2989 15.5554 18.4892 15.906C18.6794 16.2566 18.9856 16.5301 19.3554 16.6797Z" fill="currentColor"></path></g></svg>