<svg xmlns="http://www.w3.org/2000/svg" viewBox="0 0 46 46"><g fill="none" class="nc-icon-wrapper"><path fill-rule="evenodd" clip-rule="evenodd" d="M11.3203 23.3594C11.3203 15.4203 17.7562 8.98438 25.6953 8.98438C33.5698 8.98438 39.9655 15.3159 40.069 23.1658L43.5866 31.0804C43.6944 31.3229 43.6895 31.6007 43.5731 31.8392C43.4568 32.0777 43.241 32.2526 42.9835 32.3169L40.0703 33.0452V37.7344C40.0703 39.471 38.6624 40.8789 36.9258 40.8789H33.1881L32.4201 45.2568C32.3447 45.6865 31.9715 46 31.5352 46H28.3906C27.8944 46 27.4922 45.5978 27.4922 45.1016C27.4922 44.6054 27.8944 44.2031 28.3906 44.2031H30.7806L31.5487 39.8252C31.6241 39.3955 31.9973 39.082 32.4336 39.082H36.9258C37.6701 39.082 38.2734 38.4787 38.2734 37.7344V32.3438C38.2734 31.9315 38.554 31.5721 38.954 31.4721L41.5103 30.833L38.3509 23.7243C38.2998 23.6094 38.2734 23.4851 38.2734 23.3594C38.2734 16.4126 32.642 10.7812 25.6953 10.7812C18.7486 10.7812 13.1172 16.4126 13.1172 23.3594C13.1172 26.4462 14.2281 29.2712 16.0727 31.46C17.7018 33.3929 18.5078 35.8629 18.5078 38.3482V44.2031H20.3047C20.8009 44.2031 21.2031 44.6054 21.2031 45.1016C21.2031 45.5978 20.8009 46 20.3047 46H17.6094C17.1132 46 16.7109 45.5978 16.7109 45.1016V38.3482C16.7109 36.2432 16.0279 34.195 14.6988 32.618C12.5912 30.1173 11.3203 26.8856 11.3203 23.3594Z" fill="currentColor"></path><path fill-rule="evenodd" clip-rule="evenodd" d="M35.5781 35.9375C35.5781 35.4413 35.9804 35.0391 36.4766 35.0391H39.1719C39.6681 35.0391 40.0703 35.4413 40.0703 35.9375C40.0703 36.4337 39.6681 36.8359 39.1719 36.8359H36.4766C35.9804 36.8359 35.5781 36.4337 35.5781 35.9375Z" fill="currentColor"></path><path fill-rule="evenodd" clip-rule="evenodd" d="M25.6953 17.0703C22.222 17.0703 19.4062 19.886 19.4062 23.3594C19.4062 26.8327 22.222 29.6484 25.6953 29.6484C29.1687 29.6484 31.9844 26.8327 31.9844 23.3594C31.9844 19.886 29.1687 17.0703 25.6953 17.0703ZM17.6094 23.3594C17.6094 18.8936 21.2296 15.2734 25.6953 15.2734C30.1611 15.2734 33.7812 18.8936 33.7812 23.3594C33.7812 27.8251 30.1611 31.4453 25.6953 31.4453C21.2296 31.4453 17.6094 27.8251 17.6094 23.3594Z" fill="currentColor"></path><path fill-rule="evenodd" clip-rule="evenodd" d="M25.6953 20.6641C24.2067 20.6641 23 21.8708 23 23.3594C23 24.848 24.2067 26.0547 25.6953 26.0547C27.1839 26.0547 28.3906 24.848 28.3906 23.3594C28.3906 21.8708 27.1839 20.6641 25.6953 20.6641ZM21.2031 23.3594C21.2031 20.8784 23.2143 18.8672 25.6953 18.8672C28.1763 18.8672 30.1875 20.8784 30.1875 23.3594C30.1875 25.8403 28.1763 27.8516 25.6953 27.8516C23.2143 27.8516 21.2031 25.8403 21.2031 23.3594Z" fill="currentColor"></path><path fill-rule="evenodd" clip-rule="evenodd" d="M25.6953 1.79688C24.7029 1.79688 23.8984 2.60136 23.8984 3.59375C23.8984 4.58614 24.7029 5.39062 25.6953 5.39062C26.6877 5.39062 27.4922 4.58614 27.4922 3.59375C27.4922 2.60136 26.6877 1.79688 25.6953 1.79688ZM22.1016 3.59375C22.1016 1.60898 23.7105 0 25.6953 0C27.6801 0 29.2891 1.60898 29.2891 3.59375C29.2891 5.57852 27.6801 7.1875 25.6953 7.1875C23.7105 7.1875 22.1016 5.57852 22.1016 3.59375Z" fill="currentColor"></path><path fill-rule="evenodd" clip-rule="evenodd" d="M25.6953 5.39062C26.1915 5.39062 26.5938 5.79287 26.5938 6.28906V16.1719C26.5938 16.6681 26.1915 17.0703 25.6953 17.0703C25.1991 17.0703 24.7969 16.6681 24.7969 16.1719V6.28906C24.7969 5.79287 25.1991 5.39062 25.6953 5.39062Z" fill="currentColor"></path><path fill-rule="evenodd" clip-rule="evenodd" d="M11.7189 7.58614C10.7266 7.58614 9.92207 8.39062 9.92207 9.38301C9.92207 10.3754 10.7266 11.1799 11.7189 11.1799C12.7113 11.1799 13.5158 10.3754 13.5158 9.38301C13.5158 8.39062 12.7113 7.58614 11.7189 7.58614ZM8.1252 9.38301C8.1252 7.39824 9.73417 5.78926 11.7189 5.78926C13.7037 5.78926 15.3127 7.39824 15.3127 9.38301C15.3127 11.3678 13.7037 12.9768 11.7189 12.9768C9.73417 12.9768 8.1252 11.3678 8.1252 9.38301Z" fill="currentColor"></path><path fill-rule="evenodd" clip-rule="evenodd" d="M12.9895 10.6536C13.3404 10.3027 13.9092 10.3027 14.2601 10.6536L21.2482 17.6417C21.5991 17.9926 21.5991 18.5614 21.2482 18.9123C20.8974 19.2632 20.3285 19.2632 19.9776 18.9123L12.9895 11.9242C12.6387 11.5733 12.6387 11.0044 12.9895 10.6536Z" fill="currentColor"></path><path fill-rule="evenodd" clip-rule="evenodd" d="M5.92969 21.5625C4.9373 21.5625 4.13281 22.367 4.13281 23.3594C4.13281 24.3518 4.9373 25.1562 5.92969 25.1562C6.92207 25.1562 7.72656 24.3518 7.72656 23.3594C7.72656 22.367 6.92207 21.5625 5.92969 21.5625ZM2.33594 23.3594C2.33594 21.3746 3.94491 19.7656 5.92969 19.7656C7.91446 19.7656 9.52344 21.3746 9.52344 23.3594C9.52344 25.3441 7.91446 26.9531 5.92969 26.9531C3.94491 26.9531 2.33594 25.3441 2.33594 23.3594Z" fill="currentColor"></path><path fill-rule="evenodd" clip-rule="evenodd" d="M7.72656 23.3594C7.72656 22.8632 8.12881 22.4609 8.625 22.4609H18.5078C19.004 22.4609 19.4062 22.8632 19.4062 23.3594C19.4062 23.8556 19.004 24.2578 18.5078 24.2578H8.625C8.12881 24.2578 7.72656 23.8556 7.72656 23.3594Z" fill="currentColor"></path><path fill-rule="evenodd" clip-rule="evenodd" d="M11.7189 35.539C10.7266 35.539 9.92207 36.3434 9.92207 37.3358C9.92207 38.3282 10.7266 39.1327 11.7189 39.1327C12.7113 39.1327 13.5158 38.3282 13.5158 37.3358C13.5158 36.3434 12.7113 35.539 11.7189 35.539ZM8.1252 37.3358C8.1252 35.3511 9.73417 33.7421 11.7189 33.7421C13.7037 33.7421 15.3127 35.3511 15.3127 37.3358C15.3127 39.3206 13.7037 40.9296 11.7189 40.9296C9.73417 40.9296 8.1252 39.3206 8.1252 37.3358Z" fill="currentColor"></path><path fill-rule="evenodd" clip-rule="evenodd" d="M21.2482 27.8065C21.5991 28.1573 21.5991 28.7262 21.2482 29.077L14.2601 36.0652C13.9092 36.416 13.3404 36.416 12.9895 36.0652C12.6387 35.7143 12.6387 35.1455 12.9895 34.7946L19.9776 27.8065C20.3285 27.4556 20.8974 27.4556 21.2482 27.8065Z" fill="currentColor"></path><path fill-rule="evenodd" clip-rule="evenodd" d="M39.6718 7.58614C38.6794 7.58614 37.8749 8.39062 37.8749 9.38301C37.8749 10.3754 38.6794 11.1799 39.6718 11.1799C40.6642 11.1799 41.4686 10.3754 41.4686 9.38301C41.4686 8.39062 40.6642 7.58614 39.6718 7.58614ZM36.078 9.38301C36.078 7.39824 37.687 5.78926 39.6718 5.78926C41.6565 5.78926 43.2655 7.39824 43.2655 9.38301C43.2655 11.3678 41.6565 12.9768 39.6718 12.9768C37.687 12.9768 36.078 11.3678 36.078 9.38301Z" fill="currentColor"></path><path fill-rule="evenodd" clip-rule="evenodd" d="M38.4011 10.6536C38.752 11.0044 38.752 11.5733 38.4011 11.9242L31.413 18.9123C31.0621 19.2632 30.4933 19.2632 30.1424 18.9123C29.7915 18.5614 29.7915 17.9926 30.1424 17.6417L37.1305 10.6536C37.4814 10.3027 38.0503 10.3027 38.4011 10.6536Z" fill="currentColor"></path></g></svg>