<svg xmlns="http://www.w3.org/2000/svg" viewBox="0 0 30 30"><path d="M14.35.155c-3.723.223-7.017 2.787-8.197 6.38a8.078 8.078 0 0 0-.44 2.504c-.028.878.011 1.249.217 2.073.551 2.205 2.193 5.514 4.687 9.443l.425.67-1.108.109c-4.11.405-7.136 1.193-8.609 2.241-1.351.961-1.581 2.207-.602 3.264.637.688 1.746 1.264 3.389 1.761 4.102 1.241 11.095 1.634 16.888.948 4.199-.497 7.112-1.451 8.277-2.709.822-.888.806-1.893-.045-2.779-1.271-1.324-4.409-2.257-9.166-2.726l-1.108-.109.425-.67c2.845-4.483 4.506-8.002 4.87-10.318.095-.603.034-1.923-.122-2.647-.535-2.492-1.945-4.568-4.031-5.938C18.389.528 16.469.028 14.35.155m2.35 1.81c1.491.358 2.608.986 3.703 2.082 1.139 1.138 1.814 2.401 2.129 3.98.127.634.127 1.901.001 2.448-.56 2.425-2.574 6.274-5.807 11.1-1.039 1.55-1.683 2.472-1.726 2.472-.063.001-1.886-2.666-2.851-4.172-1.929-3.009-3.571-6.08-4.238-7.925-.452-1.248-.583-1.931-.546-2.85.077-1.965.816-3.637 2.232-5.053 1.199-1.199 2.498-1.88 4.153-2.175.258-.046.694-.062 1.4-.05.886.014 1.096.034 1.55.143M13.925 3.52A6.41 6.41 0 0 0 11.5 4.554c-2.1 1.487-3.015 4.258-2.218 6.721.578 1.788 2.025 3.258 3.787 3.85.734.246 1.052.294 1.956.292.788-.001.893-.012 1.436-.155C19.165 14.55 21 12.19 21 9.425c0-2.342-1.314-4.402-3.463-5.426-.826-.393-1.343-.508-2.387-.529-.593-.011-.988.005-1.225.05m2.2 1.698c.165.045.525.193.8.328 2.71 1.332 3.259 4.947 1.068 7.032-.548.522-1.075.826-1.828 1.055-.39.119-.522.134-1.165.134s-.775-.015-1.165-.134c-.753-.229-1.28-.533-1.828-1.055a4.34 4.34 0 0 1-.372-5.901c.592-.731 1.496-1.284 2.465-1.508.382-.089 1.631-.058 2.025.049M12.75 23.763c1.117 1.619 1.668 2.346 1.851 2.445.242.129.592.12.804-.021.203-.136.57-.617 1.668-2.188l.823-1.176.614.038c3.981.244 7.541 1.032 9.121 2.016.653.407.724.624.321.987-.583.523-2.058 1.089-3.928 1.505-6.704 1.492-17.071.995-21.201-1.016-1.35-.658-1.354-1.058-.017-1.721 1.642-.814 4.553-1.448 7.819-1.704 1.271-.1 1.443-.109 1.481-.078.017.014.307.425.644.913" fill="currentColor" fill-rule="evenodd"/></svg>