<svg xmlns="http://www.w3.org/2000/svg" viewBox="0 0 23 23"><g fill="none" class="nc-icon-wrapper"><path d="M11.6875 0.75C13.6068 0.778646 15.3398 1.2513 16.8867 2.16797C18.4336 3.08464 19.6654 4.31641 20.582 5.86328C21.4987 7.41016 21.9714 9.14323 22 11.0625C21.9714 11.4922 21.7422 11.7214 21.3125 11.75C20.8828 11.7214 20.6536 11.4922 20.625 11.0625C20.5677 8.54167 19.694 6.4362 18.0039 4.74609C16.3138 3.05599 14.2083 2.18229 11.6875 2.125C11.2578 2.09635 11.0286 1.86719 11 1.4375C11.0286 1.00781 11.2578 0.778646 11.6875 0.75ZM12.375 9C12.776 9 13.1055 9.12891 13.3633 9.38672C13.6211 9.64453 13.75 9.97396 13.75 10.375C13.75 10.776 13.6211 11.1055 13.3633 11.3633C13.1055 11.6211 12.776 11.75 12.375 11.75C11.974 11.75 11.6445 11.6211 11.3867 11.3633C11.1289 11.1055 11 10.776 11 10.375C11 9.97396 11.1289 9.64453 11.3867 9.38672C11.6445 9.12891 11.974 9 12.375 9ZM11 5.5625C11.0286 5.13281 11.2578 4.90365 11.6875 4.875C13.4349 4.93229 14.8958 5.53385 16.0703 6.67969C17.2161 7.85417 17.8177 9.3151 17.875 11.0625C17.8464 11.4922 17.6172 11.7214 17.1875 11.75C16.7578 11.7214 16.5286 11.4922 16.5 11.0625C16.4714 9.6875 15.9987 8.55599 15.082 7.66797C14.194 6.7513 13.0625 6.27865 11.6875 6.25C11.2578 6.22135 11.0286 5.99219 11 5.5625ZM14.1367 13.082C14.7096 12.4518 15.3828 12.2799 16.1562 12.5664L20.9688 14.6289C21.3411 14.8008 21.6276 15.0729 21.8281 15.4453C22 15.7891 22.043 16.1615 21.957 16.5625L20.9258 21.375C20.6966 22.2344 20.138 22.6927 19.25 22.75C18.9922 22.75 18.7344 22.75 18.4766 22.75C18.276 22.7214 18.0755 22.707 17.875 22.707C14.4948 22.4206 11.4727 21.4036 8.80859 19.6562C6.11589 17.9089 3.98177 15.6315 2.40625 12.8242C0.830729 10.0456 0.0286458 6.9375 0 3.5C0.0572917 2.61198 0.515625 2.05339 1.375 1.82422L6.1875 0.792969C6.58854 0.707031 6.96094 0.75 7.30469 0.921875C7.67708 1.1224 7.94922 1.40885 8.12109 1.78125L10.1836 6.59375C10.4701 7.36719 10.2982 8.04036 9.66797 8.61328L7.94922 10.0312C9.1237 12.0365 10.7135 13.6263 12.7188 14.8008L14.1367 13.082ZM19.25 21.375C19.4219 21.375 19.5365 21.2891 19.5938 21.1172L20.625 16.3047C20.6536 16.1328 20.582 16.0039 20.4102 15.918L15.5977 13.8555C15.4544 13.7982 15.3255 13.8268 15.2109 13.9414L13.793 15.7031C13.2773 16.2188 12.6901 16.319 12.0312 16.0039C9.79688 14.7148 8.03516 12.9531 6.74609 10.7188C6.43099 10.0599 6.53125 9.48698 7.04688 9L8.80859 7.53906C8.92318 7.42448 8.95182 7.29557 8.89453 7.15234L6.83203 2.33984C6.77474 2.16797 6.64583 2.09635 6.44531 2.125L1.63281 3.15625C1.46094 3.21354 1.375 3.32812 1.375 3.5C1.40365 6.82292 2.22005 9.83073 3.82422 12.5234C5.39974 15.2161 7.53385 17.3503 10.2266 18.9258C12.9193 20.5299 15.9271 21.3464 19.25 21.375Z" fill="currentColor"></path></g></svg>