<svg xmlns="http://www.w3.org/2000/svg" viewBox="0 0 40 40"><g fill="none" class="nc-icon-wrapper"><path d="M35.8334 40H4.16656C1.86676 39.9972 0.00274658 38.1332 0 35.8334C0 35.3732 0.37323 35 0.833435 35H39.1666C39.6268 35 40 35.3732 40 35.8334C39.9973 38.1332 38.1332 39.9972 35.8334 40ZM1.80908 36.6666C2.1637 37.6648 3.1076 38.3319 4.16656 38.3334H35.8334C36.8924 38.3319 37.8363 37.6648 38.1909 36.6666H1.80908Z" fill="currentColor"></path><path d="M36.6666 36.6666H3.33344C2.87323 36.6666 2.5 36.2936 2.5 35.8334V20H4.16656V35H35.8334V11.6666H30.8334V10H36.6666C37.1268 10 37.5 10.3732 37.5 10.8334V35.8334C37.5 36.2936 37.1268 36.6666 36.6666 36.6666Z" fill="currentColor"></path><path d="M3.33344 31.6666H36.6666V33.3334H3.33344V31.6666Z" fill="currentColor"></path><path d="M25 27.5C22.24 27.4966 20.0034 25.26 20 22.5V19.1666C20 18.7064 20.3732 18.3334 20.8334 18.3334C21.2836 18.3624 21.7245 18.1961 22.0438 17.8769C22.3627 17.558 22.529 17.117 22.5 16.6666C22.5 16.2064 22.8732 15.8334 23.3334 15.8334C23.7936 15.8334 24.1666 16.2064 24.1666 16.6666C24.1666 16.6666 24.429 18.3334 29.1666 18.3334C29.6268 18.3334 30 18.7064 30 19.1666V22.5C29.9966 25.26 27.76 27.4966 25 27.5ZM21.6666 19.895V22.5C21.6666 24.3408 23.1592 25.8334 25 25.8334C26.8408 25.8334 28.3334 24.3408 28.3334 22.5V19.9826C25.8417 19.8749 24.4168 19.2825 23.5941 18.6258C23.125 19.2667 22.4408 19.7171 21.6666 19.895Z" fill="currentColor"></path><path d="M29.7559 19.7559L28.5776 18.5776L30 17.1552V16.6666C30 13.9053 27.7615 11.6666 25 11.6666C22.2385 11.6666 20 13.9053 20 16.6666V17.1552L21.4224 18.5776L20.2441 19.7559L18.5776 18.0893C18.4213 17.933 18.3334 17.7209 18.3334 17.5V16.6666C18.3334 12.9846 21.3181 10 25 10C28.6819 10 31.6666 12.9846 31.6666 16.6666V17.5C31.6666 17.7209 31.5787 17.933 31.4224 18.0893L29.7559 19.7559Z" fill="currentColor"></path><path d="M29.1666 23.3334V21.6666C29.6268 21.6666 30 21.2936 30 20.8334C30 20.3732 29.6268 20 29.1666 20L29.1666 18.3334C30.5475 18.3334 31.6666 19.4525 31.6666 20.8334C31.6666 22.2141 30.5475 23.3334 29.1666 23.3334Z" fill="currentColor"></path><path d="M20.8334 23.3334C19.4525 23.3334 18.3334 22.2141 18.3334 20.8334C18.3334 19.4525 19.4525 18.3334 20.8334 18.3334V20C20.3732 20 20 20.3732 20 20.8334C20 21.2936 20.3732 21.6666 20.8334 21.6666V23.3334Z" fill="currentColor"></path><path d="M25 30C23.6194 30 22.5 28.8806 22.5 27.5V25.8334H24.1666V27.5C24.1666 27.9602 24.5398 28.3334 25 28.3334C25.4602 28.3334 25.8334 27.9602 25.8334 27.5V25.8334H27.5V27.5C27.5 28.8806 26.3806 30 25 30Z" fill="currentColor"></path><path d="M33.3334 33.3334H16.6666C16.2064 33.3334 15.8334 32.9602 15.8334 32.5V30.8334C15.8362 28.5333 17.6999 26.6693 20 26.6666H23.3334V28.3334H20C18.6194 28.3334 17.5 29.4525 17.5 30.8334V31.6666H32.5V30.8334C32.5 29.4525 31.3806 28.3334 30 28.3334H26.6666V26.6666H30C32.3001 26.6693 34.1638 28.5333 34.1666 30.8334V32.5C34.1666 32.9602 33.7936 33.3334 33.3334 33.3334Z" fill="currentColor"></path><path d="M24.1666 29.1666H25.8334V32.5H24.1666V29.1666Z" fill="currentColor"></path><path d="M14.1666 22.5C13.9456 22.5 13.7338 22.4121 13.5776 22.2559L9.65515 18.3334H2.5C1.11939 18.3334 5.96046e-07 17.2141 5.96046e-07 15.8334V2.5C5.96046e-07 1.11938 1.11939 0 2.5 0H22.5C23.8806 0 25 1.11938 25 2.5V8.33344H23.3334V2.5C23.3334 2.03979 22.9602 1.66656 22.5 1.66656H2.5C2.0398 1.66656 1.66657 2.03979 1.66657 2.5V15.8334C1.66657 16.2936 2.0398 16.6666 2.5 16.6666H10C10.2209 16.6666 10.433 16.7545 10.5893 16.9107L13.3334 19.6552V17.5C13.3334 17.0398 13.7064 16.6666 14.1666 16.6666H16.6666V18.3334H15V21.6666C15 22.1268 14.6268 22.5 14.1666 22.5Z" fill="currentColor"></path><path d="M5.83344 11.6666C4.45251 11.6666 3.33344 10.5475 3.33344 9.16656C3.33344 7.78595 4.45251 6.66656 5.83344 6.66656C7.21405 6.66656 8.33344 7.78595 8.33344 9.16656C8.33344 10.5475 7.21405 11.6666 5.83344 11.6666ZM5.83344 8.33343C5.37323 8.33343 5 8.70636 5 9.16656C5 9.62677 5.37323 10 5.83344 10C6.29364 10 6.66656 9.62677 6.66656 9.16656C6.66656 8.70636 6.29364 8.33343 5.83344 8.33343Z" fill="currentColor"></path><path d="M12.5 11.6666C11.1194 11.6666 10 10.5475 10 9.16656C10 7.78595 11.1194 6.66656 12.5 6.66656C13.8806 6.66656 15 7.78595 15 9.16656C15 10.5475 13.8806 11.6666 12.5 11.6666ZM12.5 8.33343C12.0398 8.33343 11.6666 8.70636 11.6666 9.16656C11.6666 9.62677 12.0398 10 12.5 10C12.9602 10 13.3334 9.62677 13.3334 9.16656C13.3334 8.70636 12.9602 8.33343 12.5 8.33343Z" fill="currentColor"></path><path d="M19.1666 11.6666C17.7859 11.6666 16.6666 10.5475 16.6666 9.16656C16.6666 7.78595 17.7859 6.66656 19.1666 6.66656C20.5475 6.66656 21.6666 7.78595 21.6666 9.16656H20C20 8.70636 19.6268 8.33343 19.1666 8.33343C18.7064 8.33343 18.3334 8.70636 18.3334 9.16656C18.3334 9.62677 18.7064 10 19.1666 10V11.6666Z" fill="currentColor"></path></g></svg>