<svg xmlns="http://www.w3.org/2000/svg" viewBox="0 0 46 46"><path d="M27.152.193c-.146.123-.57.845-1.161 1.974-.512.98-.954 1.805-.983 1.835-.029.029-.957.208-2.061.398-1.105.19-2.107.396-2.228.458-.267.139-.402.415-.402.822 0 .294.061.37 1.517 1.882l1.518 1.576-.306 2.12c-.338 2.344-.336 2.38.13 2.725.391.29.638.216 2.642-.787l1.859-.93 1.706.854c2.069 1.035 2.222 1.094 2.56.983.36-.119.64-.481.641-.826 0-.155-.127-1.15-.282-2.21l-.283-1.929 1.473-1.521c1.616-1.67 1.729-1.844 1.52-2.344-.064-.153-.196-.33-.295-.394-.132-.086-3.977-.816-4.297-.816-.026 0-.331-.543-.677-1.207C28.612.684 28.364.261 28.138.128a.853.853 0 0 0-.986.065m1.169 3.889c.591 1.142.8 1.46 1.05 1.595.068.036.654.155 1.303.263.65.108 1.276.216 1.392.239.205.042.184.073-.766 1.076-.538.568-1.026 1.13-1.083 1.249-.092.188-.08.386.096 1.567.11.744.2 1.404.2 1.466 0 .079-.396-.083-1.311-.537-.721-.357-1.407-.65-1.525-.65-.118 0-.81.295-1.537.655l-1.321.656.048-.291c.217-1.315.369-2.644.324-2.824-.033-.131-.459-.627-1.09-1.268-1.012-1.028-1.031-1.054-.82-1.097.12-.025.75-.133 1.4-.242.651-.108 1.28-.254 1.398-.323.192-.114.913-1.344 1.415-2.415.074-.158.154-.288.178-.288.024 0 .316.526.649 1.169m-9.499 8.443a1.213 1.213 0 0 0-.356.249c-.068.079-.53.921-1.026 1.869-.496.949-.929 1.756-.962 1.793-.034.037-.952.217-2.04.4-1.089.183-2.086.383-2.217.443-.316.147-.523.582-.453.956.043.233.303.533 1.54 1.781.819.826 1.489 1.55 1.489 1.61 0 .06-.121.92-.269 1.911-.299 2.012-.322 2.419-.148 2.666.149.213.501.4.753.4.104 0 1.046-.426 2.093-.947l1.902-.948 1.917.955c1.7.847 1.95.95 2.213.915.361-.048.72-.369.78-.697.023-.13-.094-1.15-.261-2.268l-.304-2.031.897-.92c2.206-2.264 2.157-2.205 2.157-2.596 0-.28-.046-.404-.218-.598-.216-.241-.24-.247-2.357-.612-1.176-.203-2.149-.395-2.161-.428-.164-.436-1.969-3.698-2.101-3.796a.88.88 0 0 0-.868-.107m16.981.033c-.232.127-.4.398-1.252 2.017a112.06 112.06 0 0 1-1.012 1.898c-.015.016-.918.179-2.006.363-1.088.184-2.077.376-2.198.426-.264.109-.508.482-.508.778 0 .312.163.575.652 1.05.238.232.879.892 1.423 1.466l.991 1.045-.309 2.077c-.284 1.917-.3 2.098-.196 2.346.127.304.519.579.826.579.113 0 1.062-.426 2.108-.947l1.903-.948 1.903.948c1.046.521 1.995.947 2.108.947.306 0 .698-.274.824-.575.101-.243.085-.438-.196-2.346l-.307-2.08.837-.892c.461-.49 1.102-1.15 1.424-1.467.631-.619.805-.875.805-1.188 0-.293-.201-.633-.452-.763-.121-.062-.957-.236-1.858-.386-.901-.15-1.814-.307-2.028-.35l-.391-.079-.983-1.874c-.614-1.171-1.052-1.921-1.168-1.997a.893.893 0 0 0-.94-.048m-15.95 4.093c.362.681.743 1.3.851 1.38.136.102.627.218 1.624.384l1.428.238-1.01 1.061c-.556.584-1.044 1.15-1.085 1.258-.052.139-.016.606.128 1.629.111.788.191 1.444.178 1.457-.013.014-.588-.258-1.278-.604-.868-.435-1.337-.627-1.522-.626-.175.002-.716.218-1.553.62-1.1.529-1.284.596-1.284.471 0-.081.087-.718.193-1.417.106-.698.17-1.363.142-1.478-.03-.126-.462-.627-1.088-1.262-.571-.579-1.024-1.066-1.005-1.082.018-.017.664-.137 1.435-.269.904-.154 1.468-.286 1.588-.374.102-.074.489-.711.859-1.414s.689-1.263.708-1.243c.02.02.331.591.691 1.271m17.094.024c.306.59.628 1.15.714 1.244.206.221.394.274 1.861.522.674.114 1.242.222 1.261.239.019.018-.402.471-.936 1.007-.544.546-1.019 1.093-1.081 1.243-.099.242-.089.407.101 1.687.116.78.202 1.429.192 1.442-.011.013-.584-.26-1.273-.606-.945-.474-1.33-.629-1.561-.629-.231 0-.616.155-1.561.629-.689.346-1.263.619-1.275.606-.012-.013.06-.559.16-1.212.216-1.412.228-1.818.059-2.072-.069-.105-.542-.611-1.051-1.127-.508-.515-.909-.95-.89-.968.019-.017.587-.125 1.261-.239 1.467-.248 1.655-.301 1.86-.522.086-.094.44-.716.787-1.382.55-1.06.641-1.195.722-1.074.052.076.344.622.65 1.212M2.99 29.203a2.623 2.623 0 0 0-1.601 1.38c-.181.386-.201.518-.201 1.328v.899l.237.237c.274.275.727.367 1.026.209.104-.055.268-.217.364-.359.147-.218.175-.361.175-.89 0-.521.027-.665.159-.832l.159-.202h4.424l.159.202c.157.2.159.258.159 5.373v5.17l-.224.225-.224.224H3.438l-.224-.224c-.211-.211-.224-.261-.224-.846 0-.739-.128-1.097-.45-1.264-.506-.261-1.086-.085-1.285.392-.144.344-.134 1.433.018 1.945a2.442 2.442 0 0 0 1.588 1.66c.348.121.676.138 2.659.138 1.997 0 2.309-.016 2.666-.141.576-.201 1.096-.64 1.364-1.152l.225-.431h1.157l1.157-.001 5.309 1.419c2.921.78 5.781 1.554 6.357 1.72 1.57.452 2.045.55 2.892.596 1.287.071 2.439-.231 3.745-.98.96-.55 12.883-9.049 13.392-9.546 1.398-1.364 1.402-3.498.01-4.8-.848-.793-1.954-1.07-3.15-.788-.343.081-1.66.716-4.44 2.142l-3.953 2.028-.252-.222a3.38 3.38 0 0 0-1.368-.726c-.373-.098-.994-.12-3.411-.122l-2.955-.002-.688-.611c-1.713-1.522-3.346-2.399-5.072-2.724-.527-.099-.939-.119-1.83-.087-1.531.055-2.161.203-4.618 1.082-.473.169-.682.198-1.426.198H9.76l-.141-.312c-.189-.42-.634-.864-1.126-1.123l-.405-.213-2.453-.015c-1.349-.008-2.54.013-2.645.046m15.774 2.353c1.251.363 2.48 1.115 3.843 2.353.966.877.783.841 4.546.893l3.194.043.327.23c.974.687.896 2.178-.144 2.744l-.382.208h-4.331c-2.382 0-4.441.022-4.575.049-.135.026-.346.15-.47.274-.185.185-.225.289-.225.586 0 .428.152.676.506.824.39.163 8.854.156 9.484-.008 1.676-.436 2.764-1.918 2.64-3.595l-.041-.545 3.883-1.989c3.467-1.776 3.929-1.993 4.315-2.021.742-.056 1.273.216 1.531.784.3.661.102 1.428-.496 1.923-.615.51-12.284 8.774-12.837 9.091-1.114.64-2.095.878-3.106.752-.315-.039-1.068-.209-1.673-.378-.606-.168-3.62-.985-6.698-1.815l-5.597-1.508-1.284-.032-1.284-.031V32.68l1.016-.037c.979-.037 1.052-.051 2.012-.403 1.534-.563 2.166-.73 3.45-.914.524-.075 1.751.043 2.396.23M1.56 35.798c-.482.294-.512 1.097-.053 1.458.313.246.866.217 1.162-.06.802-.748-.168-1.972-1.109-1.398" fill="currentColor" fill-rule="evenodd"/></svg>