<svg xmlns="http://www.w3.org/2000/svg" viewBox="0 0 30 31"><g fill="none" class="nc-icon-wrapper"><path d="M28.1784 2.14089C27.4706 1.43308 26.4384 1.16964 25.4794 1.45839L2.96531 8.17276C1.89375 8.49151 1.15594 9.3812 1.03875 10.494C0.921564 11.6059 1.45875 12.6296 2.44031 13.165L11.6953 18.2134C11.8697 18.309 12.0113 18.4506 12.1059 18.624L17.1544 27.8781C17.6419 28.7715 18.5316 29.2965 19.5253 29.2965C19.6238 29.2965 19.725 29.2918 19.8253 29.2806C20.9372 29.1634 21.8269 28.4256 22.1456 27.3531L28.86 4.83995C29.1469 3.88276 28.8853 2.84776 28.1784 2.14089ZM27.2438 4.35808L20.5294 26.8721C20.3475 27.4825 19.8094 27.5865 19.6491 27.6025C19.4878 27.6193 18.9413 27.6296 18.6356 27.0709L13.6266 17.889L21.2325 10.2821C21.5625 9.95308 21.5625 9.4187 21.2325 9.08964C20.9025 8.75964 20.3691 8.75964 20.04 9.08964L12.4341 16.6946L3.24844 11.6837C2.68781 11.3781 2.7 10.8306 2.71688 10.6703C2.73375 10.51 2.83594 9.97183 3.44813 9.78995L25.9613 3.07558C26.0616 3.04558 26.1628 3.03151 26.2622 3.03151C26.5294 3.03151 26.7863 3.13651 26.985 3.33526C27.2569 3.6062 27.3534 3.98964 27.2438 4.35808Z" fill="currentColor"></path></g></svg>