<svg xmlns="http://www.w3.org/2000/svg" viewBox="0 0 64 64"><g fill="none" class="nc-icon-wrapper"><path d="M7.96399 21.372H51.7719C53.3284 21.372 54.5947 20.1057 54.5947 18.5491V11.8497C54.5947 10.2932 53.3284 9.02686 51.7719 9.02686H7.96399C6.40743 9.02686 5.14111 10.2932 5.14111 11.8497V18.5491C5.14111 20.1057 6.40742 21.372 7.96399 21.372ZM7.06111 11.8497C7.06111 11.3519 7.46612 10.9469 7.96399 10.9469H51.7719C52.2697 10.9469 52.6747 11.3519 52.6747 11.8497V18.5491C52.6747 19.047 52.2697 19.452 51.7719 19.452H7.96399C7.46612 19.452 7.06111 19.047 7.06111 18.5491V11.8497Z" fill="currentColor"></path><path d="M24.3796 29.1946C23.8494 29.1946 23.4195 29.6244 23.4195 30.1546C23.4195 30.6848 23.8494 31.1146 24.3796 31.1146H45.6159C46.1461 31.1146 46.5759 30.6848 46.5759 30.1546C46.5759 29.6244 46.1461 29.1946 45.6159 29.1946H24.3796Z" fill="currentColor"></path><path d="M19.7172 29.6215C19.6813 29.569 19.6417 29.5204 19.5982 29.4756C19.5534 29.4321 19.5047 29.3912 19.4522 29.3566C19.3998 29.322 19.3435 29.2926 19.2859 29.2682C19.2282 29.2439 19.1681 29.226 19.1067 29.2132C18.9825 29.1889 18.8545 29.1889 18.7316 29.2132C18.6702 29.226 18.61 29.2439 18.5511 29.2682C18.4935 29.2926 18.4385 29.322 18.386 29.3566C18.3335 29.3912 18.2836 29.4321 18.2401 29.4756C18.1953 29.5204 18.1556 29.5691 18.121 29.6215C18.0865 29.674 18.0558 29.729 18.0327 29.7879C18.0084 29.8455 17.9905 29.9057 17.9777 29.9672C17.9649 30.0286 17.9585 30.0926 17.9585 30.154C17.9585 30.2167 17.9649 30.2807 17.9777 30.3422C17.9905 30.4036 18.0084 30.4638 18.0327 30.5214C18.0558 30.5802 18.0865 30.6353 18.121 30.6878C18.1556 30.7402 18.1953 30.7889 18.2401 30.8337C18.2836 30.8772 18.3335 30.9182 18.386 30.9527C18.4385 30.9873 18.4935 31.0167 18.5511 31.041C18.61 31.0653 18.6702 31.0833 18.7316 31.0961C18.793 31.1076 18.8558 31.114 18.9185 31.114C18.9812 31.114 19.0439 31.1076 19.1067 31.0961C19.1681 31.0833 19.2282 31.0654 19.2859 31.041C19.3435 31.0167 19.3998 30.9873 19.4522 30.9527C19.5047 30.9182 19.5534 30.8772 19.5982 30.8337C19.6417 30.7889 19.6813 30.7402 19.7172 30.6878C19.7518 30.6353 19.7812 30.5802 19.8055 30.5214C19.8285 30.4638 19.8478 30.4036 19.8605 30.3422C19.8721 30.2807 19.8785 30.2167 19.8785 30.154C19.8785 30.0926 19.8721 30.0286 19.8605 29.9672C19.8478 29.9057 19.8285 29.8455 19.8055 29.7879C19.7812 29.7291 19.7518 29.674 19.7172 29.6215Z" fill="currentColor"></path><path d="M14.9185 29.6215C14.8827 29.569 14.843 29.5204 14.7982 29.4756C14.7547 29.4321 14.7047 29.3912 14.6522 29.3566C14.6011 29.322 14.5447 29.2926 14.4871 29.2682C14.4296 29.2439 14.3681 29.226 14.3079 29.2132C14.1838 29.1889 14.0558 29.1889 13.9329 29.2132C13.8715 29.226 13.81 29.2439 13.7524 29.2682C13.6948 29.2926 13.6385 29.322 13.5873 29.3566C13.5348 29.3912 13.4849 29.4321 13.4414 29.4756C13.3966 29.5204 13.3569 29.5691 13.3211 29.6215C13.2865 29.674 13.2571 29.729 13.234 29.7879C13.2097 29.8455 13.1905 29.9057 13.179 29.9672C13.1662 30.0286 13.1598 30.0926 13.1598 30.154C13.1598 30.2167 13.1662 30.2807 13.179 30.3422C13.1905 30.4036 13.2097 30.4638 13.234 30.5214C13.2571 30.5802 13.2865 30.6353 13.3211 30.6878C13.3569 30.7402 13.3966 30.7889 13.4414 30.8337C13.4849 30.8772 13.5348 30.9182 13.5873 30.9527C13.6385 30.9873 13.6948 31.0167 13.7524 31.041C13.81 31.0653 13.8715 31.0833 13.9329 31.0961C13.9944 31.1076 14.0571 31.114 14.1198 31.114C14.1825 31.114 14.2453 31.1076 14.3079 31.0961C14.3681 31.0833 14.4296 31.0654 14.4871 31.041C14.5447 31.0167 14.6011 30.9873 14.6522 30.9527C14.706 30.9182 14.7547 30.8772 14.7982 30.8337C14.843 30.7889 14.8827 30.7402 14.9185 30.6878C14.953 30.6353 14.9825 30.5802 15.0068 30.5214C15.0299 30.4638 15.049 30.4036 15.0605 30.3422C15.0733 30.2807 15.0798 30.2167 15.0798 30.154C15.0798 30.0926 15.0733 30.0286 15.0605 29.9672C15.049 29.9057 15.0299 29.8455 15.0068 29.7879C14.9825 29.7291 14.953 29.674 14.9185 29.6215Z" fill="currentColor"></path><path d="M7.96399 36.3272H30.6825C31.2127 36.3272 31.6425 35.8974 31.6425 35.3672C31.6425 34.837 31.2127 34.4072 30.6825 34.4072H7.96399C7.46612 34.4072 7.06111 34.0022 7.06111 33.5043V26.8049C7.06111 26.307 7.46612 25.902 7.96399 25.902H51.7719C52.2697 25.902 52.6747 26.307 52.6747 26.8049V33.5043C52.6747 33.5531 52.6709 33.6019 52.6633 33.649C52.5791 34.1725 52.9352 34.6651 53.4587 34.7493C53.9817 34.8339 54.4747 34.4774 54.5589 33.9539C54.5827 33.8062 54.5947 33.6549 54.5947 33.5043V26.8049C54.5947 25.2483 53.3284 23.982 51.7719 23.982H7.96399C6.40743 23.982 5.14111 25.2484 5.14111 26.8049V33.5043C5.14111 35.0609 6.40742 36.3272 7.96399 36.3272Z" fill="currentColor"></path><path d="M19.2859 44.5809C19.2282 44.5566 19.1681 44.5387 19.1067 44.5259C18.9825 44.5015 18.8545 44.5015 18.7316 44.5259C18.6702 44.5387 18.61 44.5566 18.5511 44.5809C18.4935 44.6052 18.4385 44.6347 18.386 44.6692C18.3335 44.7038 18.2836 44.7447 18.2401 44.7882C18.0609 44.9675 17.9585 45.2145 17.9585 45.4679C17.9585 45.7201 18.0609 45.9672 18.2401 46.1464C18.2836 46.1912 18.3335 46.2308 18.386 46.2654C18.4385 46.2999 18.4935 46.3307 18.5511 46.3537C18.61 46.378 18.6702 46.3959 18.7316 46.4087C18.793 46.4215 18.8558 46.4279 18.9185 46.4279C18.9812 46.4279 19.0439 46.4215 19.1067 46.4087C19.1681 46.3959 19.2282 46.378 19.2859 46.3537C19.3435 46.3307 19.3998 46.2999 19.4522 46.2654C19.5047 46.2308 19.5534 46.1912 19.5982 46.1464C19.7761 45.9672 19.8785 45.7201 19.8785 45.4679C19.8785 45.2145 19.7761 44.9675 19.5982 44.7882C19.5534 44.7447 19.5047 44.7038 19.4522 44.6692C19.3998 44.6347 19.3435 44.6052 19.2859 44.5809Z" fill="currentColor"></path><path d="M14.4871 44.5809C14.4295 44.5566 14.3681 44.5387 14.3079 44.5259C14.1838 44.5015 14.0558 44.5015 13.9329 44.5259C13.8715 44.5387 13.81 44.5566 13.7524 44.5809C13.6948 44.6052 13.6385 44.6347 13.5873 44.6692C13.5348 44.7038 13.4849 44.7447 13.4414 44.7882C13.2622 44.9675 13.1598 45.2145 13.1598 45.4679C13.1598 45.7201 13.2622 45.9672 13.4414 46.1464C13.4849 46.1912 13.5348 46.2308 13.5873 46.2654C13.6385 46.2999 13.6948 46.3307 13.7524 46.3537C13.81 46.378 13.8715 46.3959 13.9329 46.4087C13.9944 46.4215 14.057 46.4279 14.1198 46.4279C14.1825 46.4279 14.2452 46.4215 14.3079 46.4087C14.3681 46.3959 14.4295 46.378 14.4871 46.3537C14.5447 46.3307 14.601 46.2999 14.6522 46.2654C14.706 46.2308 14.7547 46.1912 14.7982 46.1464C14.9774 45.9672 15.0798 45.7201 15.0798 45.4679C15.0798 45.2145 14.9774 44.9675 14.7982 44.7882C14.7547 44.7447 14.706 44.7038 14.6522 44.6692C14.601 44.6347 14.5447 44.6052 14.4871 44.5809Z" fill="currentColor"></path><path d="M22.8731 40.255C22.8731 39.7249 22.4433 39.295 21.9131 39.295H7.96399C6.40743 39.295 5.14111 40.5614 5.14111 42.1179V48.8174C5.14111 50.3739 6.40743 51.6402 7.96399 51.6402H21.9131C22.4433 51.6402 22.8731 51.2104 22.8731 50.6802C22.8731 50.15 22.4433 49.7202 21.9131 49.7202H7.96399C7.46612 49.7202 7.06111 49.3152 7.06111 48.8174V42.1179C7.06111 41.62 7.46612 41.215 7.96399 41.215H21.9131C22.4433 41.215 22.8731 40.7852 22.8731 40.255Z" fill="currentColor"></path><path d="M24.3796 16.1594H45.6159C46.1461 16.1594 46.5759 15.7296 46.5759 15.1994C46.5759 14.6692 46.1461 14.2394 45.6159 14.2394H24.3796C23.8494 14.2394 23.4195 14.6692 23.4195 15.1994C23.4195 15.7296 23.8494 16.1594 24.3796 16.1594Z" fill="currentColor"></path><path d="M18.0327 15.5672C18.0558 15.6247 18.0865 15.6798 18.121 15.7322C18.1556 15.7847 18.1953 15.8334 18.2401 15.8782C18.2836 15.923 18.3335 15.9627 18.386 15.9972C18.4385 16.0318 18.4935 16.0625 18.5511 16.0855C18.61 16.1099 18.6702 16.1278 18.7316 16.1406C18.793 16.1534 18.8558 16.1598 18.9185 16.1598C18.9812 16.1598 19.0439 16.1534 19.1067 16.1406C19.1681 16.1278 19.2282 16.1099 19.2859 16.0855C19.3435 16.0625 19.3998 16.0318 19.4522 15.9972C19.5047 15.9627 19.5534 15.923 19.5982 15.8782C19.6417 15.8334 19.6813 15.7847 19.7172 15.7322C19.7518 15.6798 19.7812 15.6247 19.8055 15.5672C19.8298 15.5082 19.8478 15.4481 19.8605 15.3867C19.8721 15.3252 19.8785 15.2625 19.8785 15.1998C19.8785 15.137 19.8721 15.0743 19.8605 15.0116C19.8478 14.9502 19.8299 14.89 19.8055 14.8324C19.7812 14.7748 19.7518 14.7185 19.7172 14.666C19.6813 14.6135 19.6417 14.5649 19.5982 14.5201C19.5534 14.4766 19.5047 14.4356 19.4522 14.401C19.3998 14.3665 19.3435 14.337 19.2859 14.3127C19.2282 14.2884 19.1681 14.2705 19.1067 14.2577C18.9825 14.2334 18.8545 14.2334 18.7316 14.2577C18.6702 14.2705 18.61 14.2884 18.5511 14.3127C18.4935 14.337 18.4385 14.3665 18.386 14.401C18.3335 14.4356 18.2836 14.4766 18.2401 14.5201C18.1953 14.5649 18.1556 14.6135 18.121 14.666C18.0865 14.7185 18.0558 14.7748 18.0327 14.8324C18.0084 14.89 17.9905 14.9502 17.9777 15.0116C17.9649 15.073 17.9585 15.137 17.9585 15.1998C17.9585 15.2625 17.9649 15.3252 17.9777 15.3867C17.9905 15.4481 18.0084 15.5082 18.0327 15.5672Z" fill="currentColor"></path><path d="M13.234 15.5672C13.257 15.6247 13.2865 15.6798 13.321 15.7322C13.3569 15.7847 13.3965 15.8334 13.4413 15.8782C13.4849 15.923 13.5348 15.9627 13.5873 15.9972C13.6385 16.0318 13.6948 16.0625 13.7524 16.0855C13.81 16.1099 13.8715 16.1278 13.9329 16.1406C13.9943 16.1534 14.057 16.1598 14.1198 16.1598C14.1825 16.1598 14.2452 16.1534 14.3079 16.1406C14.3693 16.1278 14.4295 16.1099 14.4871 16.0855C14.5447 16.0612 14.601 16.0318 14.6522 15.9972C14.706 15.9627 14.7547 15.923 14.7981 15.8782C14.843 15.8334 14.8827 15.7847 14.9185 15.7322C14.953 15.6798 14.9825 15.6247 15.0068 15.5672C15.0298 15.5082 15.049 15.4481 15.0605 15.3867C15.0733 15.3252 15.0798 15.2625 15.0798 15.1998C15.0798 15.137 15.0733 15.073 15.0605 15.0116C15.049 14.9502 15.0298 14.89 15.0068 14.8324C14.9825 14.7748 14.953 14.7185 14.9185 14.666C14.8826 14.6135 14.843 14.5649 14.7981 14.5201C14.7547 14.4766 14.706 14.4356 14.6522 14.401C14.601 14.3665 14.5447 14.337 14.4871 14.3127C14.4295 14.2884 14.3693 14.2705 14.3079 14.2577C14.1838 14.2334 14.0558 14.2334 13.9329 14.2577C13.8715 14.2705 13.81 14.2884 13.7524 14.3127C13.6948 14.337 13.6385 14.3665 13.5873 14.401C13.5348 14.4356 13.4849 14.4766 13.4413 14.5201C13.3965 14.5649 13.3569 14.6135 13.321 14.666C13.2865 14.7185 13.257 14.7748 13.234 14.8324C13.2097 14.89 13.1905 14.9502 13.179 15.0116C13.1662 15.073 13.1598 15.137 13.1598 15.1998C13.1598 15.2625 13.1662 15.3252 13.179 15.3867C13.1905 15.4481 13.2097 15.5082 13.234 15.5672Z" fill="currentColor"></path><path d="M51.8643 40.983C51.7646 40.983 51.6644 40.9853 51.5636 40.9899C50.8411 36.7417 47.1448 33.5447 42.7418 33.5447C39.2984 33.5447 36.1593 35.5507 34.6784 38.6164C34.1466 38.5103 33.6044 38.4568 33.0579 38.4568C28.5045 38.4568 24.8 42.1613 24.8 46.7147C24.8 51.2682 28.5045 54.9727 33.0579 54.9727H51.8643C55.7212 54.9727 58.8591 51.8349 58.8591 47.9778C58.8591 44.1209 55.7212 40.983 51.8643 40.983ZM51.8643 53.0527H33.0579C29.5632 53.0527 26.72 50.2096 26.72 46.7147C26.72 43.22 29.5632 40.3768 33.0579 40.3768C33.7036 40.3768 34.3412 40.4739 34.9529 40.6652C35.4415 40.8182 35.964 40.5607 36.1406 40.0802C37.1552 37.3195 39.808 35.4647 42.7418 35.4647C46.4698 35.4647 49.5527 38.3829 49.7603 42.1082C49.7757 42.3848 49.9099 42.6412 50.1282 42.8117C50.3467 42.9821 50.6282 43.0495 50.9 42.9975C51.2261 42.9349 51.5505 42.903 51.8643 42.903C54.6625 42.903 56.9391 45.1796 56.9391 47.9779C56.9391 50.7762 54.6625 53.0527 51.8643 53.0527Z" fill="currentColor"></path></g></svg>