<svg xmlns="http://www.w3.org/2000/svg" viewBox="0 0 54 54"><g fill="none" class="nc-icon-wrapper"><path d="M29.0734 37.2877H24.9266C24.3966 37.2877 23.9669 37.719 23.9669 38.2511C23.9669 38.7832 24.3966 39.2144 24.9266 39.2144H29.0734C29.6034 39.2144 30.0331 38.7832 30.0331 38.2511C30.0331 37.719 29.6034 37.2877 29.0734 37.2877Z" fill="currentColor"></path><path d="M49.141 2H4.85906C2.17976 2 0 4.18805 0 6.87758V39.0753C0 41.7647 2.17977 43.9527 4.85906 43.9527H18.414L15.6425 50.0731H11.6166C11.0866 50.0731 10.6569 50.5043 10.6569 51.0364C10.6569 51.5685 11.0866 51.9997 11.6166 51.9997H16.2552L16.2599 52L16.2634 51.9997H37.7366L37.7401 52L37.7448 51.9997H42.3834C42.9134 51.9997 43.3431 51.5685 43.3431 51.0364C43.3431 50.5043 42.9134 50.0731 42.3834 50.0731H38.3575L35.586 43.9527H49.1409C51.8202 43.9527 54 41.7647 54 39.0753V6.87758C54 4.18805 51.8202 2 49.141 2ZM4.85906 3.92665H49.141C50.7619 3.92665 52.0807 5.25046 52.0807 6.87758V32.7575H1.91936V6.87758C1.91936 5.25046 3.23811 3.92665 4.85906 3.92665ZM36.2492 50.0731H17.7508L20.5223 43.9527H33.4777L36.2492 50.0731ZM49.141 42.0261H4.85906C3.23809 42.0261 1.91936 40.7024 1.91936 39.0753V34.6841H52.0807V39.0753C52.0807 40.7024 50.7619 42.0261 49.141 42.0261Z" fill="currentColor"></path><path d="M7.74615 21.2697C7.76802 21.2712 7.82606 21.2751 7.85668 21.3494C7.88735 21.4236 7.84899 21.4677 7.83462 21.4841C7.12635 22.2958 7.16703 23.5294 7.92721 24.2925L9.49013 25.8613C10.2501 26.6243 11.4789 26.6652 12.2879 25.9544C12.3044 25.9397 12.3483 25.9014 12.4221 25.9322C12.4961 25.9629 12.4999 26.0212 12.5014 26.0432C12.5725 27.1198 13.4702 27.9632 14.5452 27.9632H16.7556C17.8305 27.9632 18.7282 27.1198 18.7993 26.0431C18.8008 26.0211 18.8046 25.9629 18.8786 25.932C18.9525 25.9017 18.9965 25.9399 19.0129 25.9544C19.8217 26.6651 21.0505 26.6243 21.8106 25.8614L23.3736 24.2925C24.1337 23.5295 24.1744 22.2959 23.4662 21.4841C23.4518 21.4675 23.4134 21.4236 23.4441 21.3494C23.4747 21.2751 23.5328 21.2712 23.5545 21.2697C24.6272 21.1985 25.4675 20.2972 25.4675 19.2181V16.9995C25.4675 15.9204 24.6272 15.0192 23.5545 14.9479C23.5327 14.9464 23.4748 14.9425 23.4441 14.8683C23.4134 14.794 23.4518 14.7501 23.4662 14.7336C24.1744 13.9218 24.1337 12.6881 23.3736 11.9251L21.8106 10.3562C21.0505 9.59321 19.8216 9.55244 19.0129 10.2633C18.9965 10.2777 18.9525 10.3162 18.8787 10.2856C18.8046 10.2547 18.8008 10.1964 18.7993 10.1745C18.7282 9.09788 17.8305 8.25447 16.7556 8.25447H14.5452C13.4702 8.25447 12.5725 9.09788 12.5014 10.1746C12.4999 10.1965 12.4961 10.2547 12.4221 10.2855C12.3478 10.3163 12.3044 10.2777 12.2878 10.2633C11.479 9.55244 10.2501 9.59321 9.49018 10.3562L7.92721 11.9251C7.16703 12.6883 7.12635 13.9219 7.83456 14.7334C7.84899 14.75 7.88735 14.794 7.85668 14.8683C7.82606 14.9425 7.76802 14.9464 7.74621 14.9479C6.67351 15.0192 5.83329 15.9204 5.83329 16.9995V19.2182C5.83329 20.2972 6.67351 21.1985 7.74615 21.2697ZM7.75265 16.9995C7.75265 16.9315 7.80551 16.8748 7.87298 16.8703C8.65628 16.8182 9.32949 16.3337 9.6299 15.6057C9.93035 14.8777 9.79572 14.0571 9.27851 13.4642C9.23397 13.4131 9.2366 13.3355 9.28439 13.2876L10.8474 11.7185C10.8953 11.6706 10.9726 11.6682 11.0234 11.7128C11.614 12.2319 12.4314 12.367 13.1567 12.0655C13.8819 11.7639 14.3647 11.0881 14.4165 10.3019C14.421 10.2342 14.4775 10.1811 14.5452 10.1811H16.7556C16.8232 10.1811 16.8797 10.2342 16.8842 10.302C16.9361 11.0882 17.4189 11.7641 18.1442 12.0655C18.8694 12.3669 19.6868 12.2319 20.2774 11.7128C20.3283 11.6681 20.4057 11.6704 20.4535 11.7186L22.0164 13.2876C22.0642 13.3355 22.0669 13.4131 22.0222 13.4642C21.5051 14.0571 21.3704 14.8777 21.6709 15.6057C21.9713 16.3337 22.6445 16.8182 23.4278 16.8703C23.4952 16.8748 23.5481 16.9315 23.5481 16.9995V19.2181C23.5481 19.2861 23.4952 19.3428 23.4278 19.3473C22.6445 19.3994 21.9713 19.8839 21.6709 20.612C21.3704 21.34 21.5051 22.1605 22.0222 22.7535C22.0669 22.8045 22.0642 22.8822 22.0164 22.9301L20.4535 24.499C20.4057 24.5473 20.3284 24.5497 20.2774 24.5049C19.6869 23.9857 18.8694 23.8506 18.1442 24.1522C17.4189 24.4537 16.9361 25.1294 16.8842 25.9158C16.8797 25.9835 16.8232 26.0365 16.7556 26.0365H14.5452C14.4775 26.0365 14.421 25.9835 14.4165 25.9156C14.3647 25.1294 13.8819 24.4537 13.1567 24.1522C12.9008 24.0458 12.6335 23.9938 12.3687 23.9938C11.883 23.9938 11.4057 24.1689 11.0235 24.5049C10.9726 24.5494 10.8952 24.5472 10.8474 24.499L9.28439 22.9301C9.2366 22.8822 9.23397 22.8045 9.27858 22.7534C9.79572 22.1606 9.93037 21.34 9.6299 20.612C9.32949 19.8839 8.65628 19.3994 7.87292 19.3473C7.8055 19.3428 7.75265 19.2861 7.75265 19.2181V16.9995Z" fill="currentColor"></path><path d="M15.6504 22.4887C18.0563 22.4887 20.0137 20.5239 20.0137 18.1088C20.0137 15.6937 18.0563 13.729 15.6504 13.729C13.2444 13.729 11.2871 15.6937 11.2871 18.1088C11.2871 20.5239 13.2444 22.4887 15.6504 22.4887ZM15.6504 15.6556C16.998 15.6556 18.0943 16.7562 18.0943 18.1088C18.0943 19.4615 16.998 20.562 15.6504 20.562C14.3028 20.562 13.2065 19.4615 13.2065 18.1088C13.2065 16.7562 14.3028 15.6556 15.6504 15.6556Z" fill="currentColor"></path><path d="M29.4601 10.9155H31.2458C31.7759 10.9155 32.2055 10.4843 32.2055 9.95218C32.2055 9.42009 31.7759 8.98886 31.2458 8.98886H29.4601C28.9301 8.98886 28.5004 9.42009 28.5004 9.95218C28.5004 10.4843 28.9301 10.9155 29.4601 10.9155Z" fill="currentColor"></path><path d="M35.1943 10.9155H46.019C46.549 10.9155 46.9786 10.4843 46.9786 9.95218C46.9786 9.42009 46.549 8.98886 46.019 8.98886H35.1943C34.6643 8.98886 34.2347 9.42009 34.2347 9.95218C34.2347 10.4843 34.6643 10.9155 35.1943 10.9155Z" fill="currentColor"></path><path d="M29.4601 15.6556H31.2458C31.7759 15.6556 32.2055 15.2244 32.2055 14.6923C32.2055 14.1602 31.7759 13.729 31.2458 13.729H29.4601C28.9301 13.729 28.5004 14.1602 28.5004 14.6923C28.5004 15.2244 28.9301 15.6556 29.4601 15.6556Z" fill="currentColor"></path><path d="M35.1943 15.6556H46.019C46.549 15.6556 46.9786 15.2244 46.9786 14.6923C46.9786 14.1602 46.549 13.729 46.019 13.729H35.1943C34.6643 13.729 34.2347 14.1602 34.2347 14.6923C34.2347 15.2244 34.6643 15.6556 35.1943 15.6556Z" fill="currentColor"></path><path d="M29.4601 28.6821H45.6508C46.1808 28.6821 46.6105 28.2508 46.6105 27.7187V19.4324C46.6105 18.9003 46.1808 18.4691 45.6508 18.4691H29.4601C28.9301 18.4691 28.5004 18.9003 28.5004 19.4324V27.7187C28.5004 28.2508 28.9301 28.6821 29.4601 28.6821ZM30.4198 20.3957H44.6911V26.7554H30.4198V20.3957Z" fill="currentColor"></path></g></svg>