<svg xmlns="http://www.w3.org/2000/svg" viewBox="0 0 110 46"><path d="M93.384 7.482c-9.088 4.103-16.496 7.49-16.462 7.528.034.037 2.142.574 4.686 1.192l4.624 1.125-1.586 1.7C73.859 30.58 59.398 37.859 41.25 40.867c-11.547 1.915-24.243 1.945-36.3.087a927.353 927.353 0 0 0-3.575-.545c-1.137-.162 2.345.877 6.189 1.846a128.206 128.206 0 0 0 19.278 3.304c4.131.389 17.461.383 21.062-.009 6.911-.753 12.494-1.92 18.554-3.878 9.819-3.171 19.295-8.492 26.425-14.837 1.053-.936 1.326-1.102 1.395-.845l1.15 4.26c.585 2.168 1.113 3.999 1.172 4.069.06.07 2.996-7.347 6.525-16.483 6.37-16.49 6.889-17.846 6.82-17.825-.02.007-7.473 3.368-16.561 7.471" fill="currentColor" fill-rule="evenodd"/></svg>