<svg xmlns="http://www.w3.org/2000/svg" viewBox="0 0 54 54"><g fill="none" class="nc-icon-wrapper"><path d="M44.9144 24.7564C44.9144 23.4692 43.8857 22.422 42.6214 22.422H11.3786C10.1143 22.422 9.08563 23.4692 9.08563 24.7564V29.6209C9.08563 30.1252 9.24516 30.5914 9.51331 30.9735C9.24517 31.3556 9.08563 31.8218 9.08563 32.3261V37.1906C9.08563 38.4778 10.1143 39.525 11.3786 39.525H42.6214C43.8857 39.525 44.9144 38.4778 44.9144 37.1906V32.3261C44.9144 31.8218 44.7548 31.3556 44.4867 30.9735C44.7548 30.5914 44.9144 30.1252 44.9144 29.6209L44.9144 24.7564ZM11.0143 24.7564C11.0143 24.5519 11.1777 24.3856 11.3786 24.3856H42.6214C42.8223 24.3856 42.9857 24.5519 42.9857 24.7564V29.6209C42.9857 29.8253 42.8223 29.9917 42.6214 29.9917H11.3786C11.1777 29.9917 11.0143 29.8253 11.0143 29.6209V24.7564ZM42.9857 37.1906C42.9857 37.395 42.8223 37.5614 42.6214 37.5614H11.3786C11.1777 37.5614 11.0143 37.395 11.0143 37.1906V32.3261C11.0143 32.1216 11.1777 31.9553 11.3786 31.9553H42.6214C42.8223 31.9553 42.9857 32.1216 42.9857 32.3261L42.9857 37.1906Z" fill="currentColor"></path><path d="M15.7688 28.1704H30.9142C31.4469 28.1704 31.8786 27.7309 31.8786 27.1886C31.8786 26.6464 31.4469 26.2068 30.9142 26.2068H15.7688C15.2362 26.2068 14.8045 26.6464 14.8045 27.1886C14.8045 27.7309 15.2362 28.1704 15.7688 28.1704Z" fill="currentColor"></path><path d="M34.2736 28.0053C34.3251 28.0407 34.3817 28.0708 34.4395 28.0957C34.4974 28.1193 34.5591 28.1389 34.6195 28.1507C34.6826 28.1637 34.7456 28.1703 34.8085 28.1703C34.8715 28.1703 34.9346 28.1637 34.9976 28.1507C35.058 28.1389 35.1197 28.1193 35.1775 28.0957C35.2354 28.0708 35.2921 28.0407 35.3434 28.0053C35.3974 27.9687 35.4462 27.9281 35.4899 27.8823C35.67 27.7003 35.7728 27.4477 35.7728 27.1885C35.7728 26.9306 35.67 26.6766 35.4899 26.4947C35.4462 26.4489 35.3974 26.4083 35.3434 26.373C35.2921 26.3376 35.2354 26.3062 35.1775 26.2826C35.1197 26.2578 35.058 26.2381 34.9976 26.2263C34.8728 26.2001 34.7442 26.2001 34.6195 26.2263C34.5591 26.2381 34.4974 26.2578 34.4395 26.2826C34.3817 26.3062 34.3251 26.3376 34.2736 26.373C34.2196 26.4083 34.1708 26.4489 34.1271 26.4947C33.947 26.6766 33.8442 26.9306 33.8442 27.1885C33.8442 27.4477 33.947 27.7003 34.1271 27.8823C34.1708 27.9281 34.2196 27.9687 34.2736 28.0053Z" fill="currentColor"></path><path d="M37.3403 27.5642C37.3647 27.6231 37.3943 27.6807 37.4289 27.7331C37.465 27.7881 37.5049 27.8378 37.5486 27.8837C37.5936 27.9281 37.6424 27.9687 37.6964 28.0054C37.7479 28.0407 37.8044 28.0708 37.8623 28.0957C37.9201 28.1206 37.9805 28.1389 38.0423 28.152C38.1054 28.1637 38.1683 28.1703 38.2313 28.1703C38.2943 28.1703 38.3574 28.1637 38.419 28.152C38.4808 28.1389 38.5425 28.1206 38.6003 28.0957C38.6582 28.0708 38.7147 28.0407 38.7662 28.0054C38.819 27.9687 38.869 27.9281 38.9127 27.8837C38.9578 27.8378 38.9976 27.7881 39.0324 27.7331C39.0683 27.6807 39.098 27.6231 39.1211 27.5642C39.1455 27.5053 39.1648 27.4437 39.1764 27.3809C39.1892 27.3168 39.1957 27.2526 39.1957 27.1885C39.1957 27.1243 39.1892 27.0602 39.1764 26.9974C39.1648 26.9346 39.1456 26.873 39.1211 26.8128C39.098 26.7538 39.0683 26.6963 39.0324 26.6439C38.9976 26.5902 38.9578 26.5392 38.9127 26.4947C38.869 26.4489 38.8189 26.4083 38.7662 26.3716C38.7147 26.3376 38.6582 26.3062 38.6003 26.2826C38.5425 26.2578 38.4808 26.2394 38.419 26.2263C38.2956 26.2001 38.167 26.2001 38.0423 26.2263C37.9805 26.2394 37.9201 26.2578 37.8623 26.2826C37.8044 26.3062 37.7479 26.3376 37.6964 26.3716C37.6424 26.4083 37.5936 26.4489 37.5486 26.4947C37.5049 26.5392 37.465 26.5902 37.4289 26.6439C37.3943 26.6963 37.3647 26.7538 37.3403 26.8128C37.3172 26.873 37.2978 26.9346 37.2863 26.9974C37.2734 27.0602 37.267 27.1243 37.267 27.1885C37.267 27.2526 37.2734 27.3168 37.2863 27.3809C37.2978 27.4437 37.3172 27.5053 37.3403 27.5642Z" fill="currentColor"></path><path d="M30.9142 33.7765H15.7688C15.2362 33.7765 14.8045 34.2161 14.8045 34.7583C14.8045 35.3006 15.2362 35.7401 15.7688 35.7401H30.9142C31.4469 35.7401 31.8786 35.3006 31.8786 34.7583C31.8786 34.2161 31.4469 33.7765 30.9142 33.7765Z" fill="currentColor"></path><path d="M35.6997 34.3833C35.6752 34.323 35.6457 34.2667 35.6109 34.213C35.5748 34.1594 35.5351 34.1097 35.49 34.0638C35.4463 34.0193 35.3974 33.9774 35.3434 33.9421C35.2921 33.9067 35.2355 33.8766 35.1776 33.8518C35.1197 33.8269 35.058 33.8085 34.9976 33.7954C34.8728 33.7706 34.7443 33.7706 34.6196 33.7954C34.5592 33.8085 34.4974 33.8269 34.4395 33.8518C34.3818 33.8766 34.3251 33.9067 34.2736 33.9421C34.2197 33.9774 34.1708 34.0193 34.1271 34.0638C34.0822 34.1097 34.0422 34.1594 34.0063 34.213C33.9715 34.2667 33.942 34.323 33.9176 34.3833C33.8944 34.4421 33.8751 34.5037 33.8636 34.5665C33.8506 34.6293 33.8442 34.6948 33.8442 34.7576C33.8442 34.8218 33.8506 34.8873 33.8636 34.9501C33.8751 35.0129 33.8944 35.0744 33.9176 35.1334C33.942 35.1936 33.9715 35.2499 34.0063 35.3035C34.0422 35.3572 34.0822 35.4069 34.1271 35.4528C34.1708 35.4972 34.2197 35.5392 34.2736 35.5745C34.3251 35.6099 34.3818 35.64 34.4395 35.6648C34.4974 35.6897 34.5592 35.7081 34.6196 35.7211C34.6826 35.7342 34.7456 35.7408 34.8085 35.7408C34.8716 35.7408 34.9346 35.7342 34.9976 35.7211C35.058 35.7081 35.1197 35.6897 35.1776 35.6648C35.2355 35.64 35.2921 35.6099 35.3434 35.5745C35.3974 35.5392 35.4463 35.4973 35.49 35.4528C35.5351 35.4069 35.5749 35.3572 35.6109 35.3035C35.6457 35.2499 35.6752 35.1936 35.6997 35.1334C35.7228 35.0744 35.7421 35.0129 35.7537 34.9501C35.7665 34.8873 35.7729 34.8218 35.7729 34.7576C35.7729 34.6948 35.7665 34.6293 35.7537 34.5665C35.7421 34.5037 35.7228 34.4421 35.6997 34.3833Z" fill="currentColor"></path><path d="M38.7662 33.9421C38.7147 33.9067 38.6582 33.8766 38.6003 33.8518C38.5425 33.8269 38.4808 33.8085 38.419 33.7954C38.2956 33.7706 38.167 33.7706 38.0423 33.7954C37.9805 33.8085 37.9201 33.8269 37.8623 33.8518C37.8044 33.8766 37.7479 33.9067 37.6964 33.9421C37.6424 33.9774 37.5936 34.0193 37.5486 34.0638C37.5049 34.1097 37.465 34.1594 37.4289 34.213C37.3943 34.2667 37.3647 34.323 37.3403 34.3833C37.3172 34.4421 37.2978 34.5037 37.2863 34.5665C37.2734 34.6293 37.267 34.6948 37.267 34.759C37.267 34.8218 37.2734 34.8873 37.2863 34.9501C37.2978 35.0129 37.3172 35.0744 37.3403 35.1334C37.3647 35.1936 37.3943 35.2499 37.4289 35.3035C37.465 35.3572 37.5049 35.4069 37.5486 35.4528C37.5936 35.4972 37.6424 35.5392 37.6964 35.5745C37.7479 35.6099 37.8044 35.64 37.8623 35.6648C37.9201 35.6897 37.9805 35.7081 38.0423 35.7211C38.1054 35.7342 38.1683 35.7408 38.2313 35.7408C38.2943 35.7408 38.3574 35.7342 38.419 35.7211C38.4808 35.7081 38.5425 35.6897 38.6003 35.6648C38.6582 35.64 38.7147 35.6099 38.7662 35.5745C38.819 35.5392 38.869 35.4973 38.9127 35.4528C38.9578 35.4069 38.9976 35.3572 39.0324 35.3035C39.0683 35.2499 39.098 35.1936 39.1211 35.1334C39.1455 35.0744 39.1648 35.0129 39.1764 34.9501C39.1892 34.8873 39.1957 34.8218 39.1957 34.759C39.1957 34.4998 39.0928 34.2471 38.9128 34.0638C38.869 34.0193 38.8189 33.9774 38.7662 33.9421Z" fill="currentColor"></path><path d="M53.0357 42.4118H49.8341V16.8415C49.8341 14.9702 48.3389 13.4478 46.5009 13.4478H36.9598C36.4272 13.4478 35.9955 13.8874 35.9955 14.4296C35.9955 14.9719 36.4272 15.4115 36.9598 15.4115H46.5009C47.2754 15.4115 47.9055 16.053 47.9055 16.8415V42.4118H35.1663C34.6336 42.4118 34.2019 42.8514 34.2019 43.3936C34.2019 44.3519 33.4362 45.1314 32.4951 45.1314H21.5049C20.5638 45.1314 19.7981 44.3519 19.7981 43.3936C19.7981 42.8514 19.3664 42.4118 18.8338 42.4118H5.9155V16.8415C5.9155 16.053 6.54559 15.4115 7.32007 15.4115H16.4137C16.9464 15.4115 17.3781 14.9719 17.3781 14.4296C17.3781 13.8874 16.9464 13.4478 16.4137 13.4478H7.32007C5.48218 13.4478 3.98682 14.9702 3.98682 16.8415V42.4118H0.96434C0.43169 42.4118 0 42.8514 0 43.3936V44.7603C0 48.7523 3.18986 52 7.11074 52H46.8893C50.8101 52 54 48.7523 54 44.7603V43.3936C54 42.8514 53.5683 42.4118 53.0357 42.4118ZM52.0713 44.7603C52.0713 47.6695 49.7466 50.0364 46.8893 50.0364H7.11076C4.25339 50.0364 1.92869 47.6695 1.92869 44.7603V44.3755H17.9992C18.4228 45.9414 19.834 47.0951 21.5049 47.0951H32.4951C34.166 47.0951 35.5772 45.9414 36.0007 44.3755H52.0713L52.0713 44.7603Z" fill="currentColor"></path><path d="M32.5205 19.8033C33.0531 19.8033 33.4848 19.3638 33.4848 18.8215V8.87643H35.6963C36.1079 10.2197 37.3409 11.1975 38.7941 11.1975C40.583 11.1975 42.0383 9.71583 42.0383 7.89461C42.0383 6.07333 40.583 4.59165 38.7941 4.59165C37.3409 4.59165 36.1079 5.56944 35.6963 6.9128H32.5205C31.9878 6.9128 31.5561 7.35238 31.5561 7.89461V18.8215C31.5561 19.3638 31.9878 19.8033 32.5205 19.8033ZM38.7941 6.55529C39.5195 6.55529 40.1096 7.15608 40.1096 7.89461C40.1096 8.63308 39.5195 9.23388 38.7941 9.23388C38.0688 9.23388 37.4787 8.63308 37.4787 7.89461C37.4787 7.15608 38.0688 6.55529 38.7941 6.55529Z" fill="currentColor"></path><path d="M15.2059 11.1975C16.6591 11.1975 17.8921 10.2197 18.3037 8.87642H20.5152V18.9394C20.5152 19.4816 20.9469 19.9212 21.4795 19.9212C22.0122 19.9212 22.4439 19.4816 22.4439 18.9394V7.8946C22.4439 7.35236 22.0122 6.91278 21.4795 6.91278H18.3037C17.8921 5.56944 16.6591 4.59164 15.2059 4.59164C13.417 4.59164 11.9617 6.07332 11.9617 7.8946C11.9617 9.71583 13.417 11.1975 15.2059 11.1975ZM15.2059 6.55529C15.9312 6.55529 16.5213 7.15608 16.5213 7.89461C16.5213 8.63308 15.9312 9.23388 15.2059 9.23388C14.4805 9.23388 13.8904 8.63308 13.8904 7.89461C13.8904 7.15608 14.4805 6.55529 15.2059 6.55529Z" fill="currentColor"></path><path d="M26.0357 8.45692V18.9394C26.0357 19.4816 26.4674 19.9212 27 19.9212C27.5327 19.9212 27.9643 19.4816 27.9643 18.9394V8.45692C29.2837 8.03789 30.2441 6.78249 30.2441 5.30296C30.2441 3.48168 28.7888 2 27 2C25.2112 2 23.7559 3.48168 23.7559 5.30296C23.7559 6.78249 24.7163 8.03788 26.0357 8.45692ZM27 3.96363C27.7253 3.96363 28.3154 4.56442 28.3154 5.30296C28.3154 6.0415 27.7253 6.64229 27 6.64229C26.2747 6.64229 25.6846 6.0415 25.6846 5.30296C25.6846 4.56442 26.2747 3.96363 27 3.96363Z" fill="currentColor"></path></g></svg>