<svg xmlns="http://www.w3.org/2000/svg" viewBox="0 0 46 46"><g fill="none" class="nc-icon-wrapper"><path d="M20.346 41.1344H25.6537C26.1429 41.1344 26.5383 40.739 26.5383 40.2498C26.5383 39.7606 26.1429 39.3652 25.6537 39.3652H20.346C19.8568 39.3652 19.4614 39.7606 19.4614 40.2498C19.4614 40.739 19.8568 41.1344 20.346 41.1344Z" fill="currentColor"></path><path d="M41.5768 37.1537H27.9758C27.4866 37.1537 27.0912 37.5491 27.0912 38.0383C27.0912 38.5275 27.4866 38.9229 27.9758 38.9229H41.5768C42.0651 38.9229 42.4614 39.3192 42.4614 39.8075V40.6921C42.4614 41.6679 41.6679 42.4614 40.6922 42.4614H5.30757C4.33183 42.4614 3.53833 41.6679 3.53833 40.6921V39.8075C3.53833 39.3192 3.93464 38.9229 4.42295 38.9229H18.0239C18.5131 38.9229 18.9085 38.5275 18.9085 38.0383C18.9085 37.5491 18.5131 37.1537 18.0239 37.1537H4.42295C2.9598 37.1537 1.7691 38.3443 1.7691 39.8075V40.6921C1.7691 42.6436 3.3561 44.2306 5.30757 44.2306H40.6922C42.6436 44.2306 44.2306 42.6436 44.2306 40.6921V39.8075C44.2306 38.3443 43.0399 37.1537 41.5768 37.1537Z" fill="currentColor"></path><path d="M41.5768 34.4998V23.8844C41.5768 23.3952 41.1814 22.9998 40.6922 22.9998C40.203 22.9998 39.8076 23.3952 39.8076 23.8844V34.4998C39.8076 34.989 40.203 35.3844 40.6922 35.3844C41.1814 35.3844 41.5768 34.989 41.5768 34.4998Z" fill="currentColor"></path><path d="M5.30757 35.3844C5.79676 35.3844 6.19218 34.989 6.19218 34.4998V15.9229C6.19218 14.9472 6.98568 14.1537 7.96141 14.1537H13.2691C13.7583 14.1537 14.1537 13.7582 14.1537 13.269C14.1537 12.7799 13.7583 12.3844 13.2691 12.3844H7.96141C6.00995 12.3844 4.42295 13.9714 4.42295 15.9229V34.4998C4.42295 34.989 4.81837 35.3844 5.30757 35.3844Z" fill="currentColor"></path><path d="M39.8076 1.76904H20.346C17.9071 1.76904 15.923 3.75324 15.923 6.19212V7.96135C15.923 8.45054 16.3184 8.84597 16.8076 8.84597C17.2968 8.84597 17.6922 8.45054 17.6922 7.96135V6.19212C17.6922 4.72897 18.8829 3.53827 20.346 3.53827H39.8076C41.2707 3.53827 42.4614 4.72897 42.4614 6.19212V16.8075C42.4614 18.2707 41.2707 19.4614 39.8076 19.4614H30.4625C29.9547 19.4614 29.4708 19.6799 29.132 20.0638L26.993 22.5027L25.1247 20.1345C24.7877 19.7064 24.2808 19.4614 23.735 19.4614H20.346C18.8829 19.4614 17.6922 18.2707 17.6922 16.8075V11.4998C17.6922 11.0106 17.2968 10.6152 16.8076 10.6152C16.3184 10.6152 15.923 11.0106 15.923 11.4998V16.8075C15.923 19.2464 17.9071 21.2306 20.346 21.2306L23.735 21.2297L26.2623 24.432C26.426 24.6381 26.671 24.762 26.9338 24.769H26.9568C27.2106 24.769 27.4539 24.6594 27.622 24.4674L30.4625 21.2306H39.8076C42.2465 21.2306 44.2306 19.2464 44.2306 16.8075V6.19212C44.2306 3.75324 42.2465 1.76904 39.8076 1.76904Z" fill="currentColor"></path><path d="M23.8845 9.73058H36.2691C36.7583 9.73058 37.1537 9.33516 37.1537 8.84597C37.1537 8.35677 36.7583 7.96135 36.2691 7.96135H23.8845C23.3953 7.96135 22.9999 8.35677 22.9999 8.84597C22.9999 9.33516 23.3953 9.73058 23.8845 9.73058Z" fill="currentColor"></path><path d="M23.8845 15.0383H32.7306C33.2198 15.0383 33.6153 14.6429 33.6153 14.1537C33.6153 13.6645 33.2198 13.269 32.7306 13.269H23.8845C23.3953 13.269 22.9999 13.6645 22.9999 14.1537C22.9999 14.6429 23.3953 15.0383 23.8845 15.0383Z" fill="currentColor"></path><path d="M15.0383 22.9998C13.0869 22.9998 11.4999 24.5868 11.4999 26.5383C11.4999 28.4897 13.0869 30.0767 15.0383 30.0767C16.9898 30.0767 18.5768 28.4897 18.5768 26.5383C18.5768 24.5868 16.9898 22.9998 15.0383 22.9998ZM15.0383 28.3075C14.0626 28.3075 13.2691 27.514 13.2691 26.5383C13.2691 25.5625 14.0626 24.769 15.0383 24.769C16.0141 24.769 16.8076 25.5625 16.8076 26.5383C16.8076 27.514 16.0141 28.3075 15.0383 28.3075Z" fill="currentColor"></path><path d="M18.5768 31.846H11.4999C11.0107 31.846 10.6153 32.2414 10.6153 32.7306C10.6153 33.2198 11.0107 33.6152 11.4999 33.6152H18.5768C19.066 33.6152 19.4614 33.2198 19.4614 32.7306C19.4614 32.2414 19.066 31.846 18.5768 31.846Z" fill="currentColor"></path></g></svg>